{"glyphs":{"0":{"ha":585,"x_min":14,"x_max":616,"o":"m 266 1072 q 494 1004 438 1072 l 494 979 q 502 982 496 979 q 529 944 523 982 q 540 930 531 944 l 540 925 q 534 920 540 920 l 524 920 q 510 925 510 920 l 496 917 l 486 917 q 445 914 469 917 l 429 917 q 401 909 401 915 l 401 901 q 418 895 406 901 q 426 898 420 895 q 467 895 460 895 q 507 898 500 898 q 532 892 517 892 l 543 895 q 575 871 570 871 l 581 873 q 602 857 602 867 l 600 844 q 605 806 600 837 l 591 795 l 589 795 l 570 798 q 553 789 567 789 l 399 789 q 393 795 393 789 l 396 833 q 374 871 385 871 l 355 868 q 320 901 346 868 q 279 914 304 911 q 225 890 237 890 q 222 892 222 890 l 217 890 l 92 890 l 76 887 q 65 890 71 890 l 38 887 q 27 895 27 891 l 27 906 q 54 966 38 943 q 84 1012 77 1008 q 255 1072 153 1072 l 266 1072 m 87 871 l 217 871 q 247 865 220 871 l 266 865 q 274 854 270 865 q 266 814 269 846 q 269 806 269 808 q 231 787 269 789 q 222 757 222 764 l 225 751 q 220 738 222 738 q 225 697 225 724 q 222 656 225 656 q 225 578 225 608 l 225 277 q 217 247 225 247 l 214 247 q 212 250 212 247 q 198 247 207 247 l 198 244 q 209 225 198 230 q 217 231 210 225 q 233 203 226 227 q 282 190 244 195 l 301 193 q 353 160 318 160 q 393 182 393 170 l 393 184 q 388 190 393 190 q 380 187 385 190 q 342 198 342 190 q 353 323 353 280 l 353 654 q 350 684 353 665 q 355 703 355 697 l 350 762 q 358 773 354 773 q 423 768 393 768 l 488 768 q 562 757 562 768 q 556 732 562 750 q 559 724 559 727 q 551 713 555 713 l 545 716 q 543 708 545 708 q 548 697 545 697 q 556 700 553 700 l 556 301 l 553 288 q 562 274 559 288 q 556 203 562 254 q 589 190 578 190 l 594 190 q 605 193 600 190 q 616 184 616 189 q 562 92 592 92 q 545 87 545 92 l 545 79 l 548 79 l 556 84 q 559 81 556 81 q 529 46 559 62 q 429 5 515 24 l 420 5 l 420 8 q 396 0 403 0 l 301 0 q 187 30 225 7 q 106 125 123 79 q 79 184 87 184 q 27 190 79 189 q 19 198 27 194 q 16 353 16 300 l 16 401 q 22 453 16 431 q 16 483 16 464 l 16 591 l 14 624 q 27 635 26 635 l 71 635 q 79 643 75 635 l 79 651 l 65 654 l 24 654 l 14 662 l 16 681 l 16 692 q 14 749 16 713 l 16 754 q 14 765 14 759 l 14 770 q 57 798 14 798 l 60 803 l 60 830 l 57 857 q 87 871 70 871 m 572 841 l 572 830 l 575 830 q 578 838 575 833 l 572 841 z "},"1":{"ha":402,"x_min":7,"x_max":414,"o":"m 208 1043 q 224 1040 222 1040 q 235 1043 230 1040 q 346 1029 346 1040 l 346 867 q 387 850 346 856 l 387 834 q 365 823 387 827 l 365 815 l 384 804 q 389 788 389 795 l 389 785 q 351 769 389 772 q 297 753 351 753 l 275 753 q 259 745 259 751 q 275 728 259 728 q 343 726 286 728 l 349 718 q 338 690 346 690 q 316 696 321 696 l 316 677 q 321 671 317 671 l 338 682 q 346 674 342 682 l 346 579 q 349 568 346 573 q 343 552 346 552 q 346 492 346 511 l 346 232 q 343 221 346 226 q 370 175 343 175 q 414 164 406 172 q 403 134 411 134 l 370 134 q 357 132 361 134 l 340 134 l 275 134 l 259 132 q 245 134 254 134 l 235 134 q 218 118 218 134 l 229 110 l 232 110 q 259 113 258 110 q 297 110 282 110 l 324 110 q 362 113 339 110 q 411 102 405 105 q 408 83 411 94 q 411 15 411 42 q 389 -1 411 -1 q 340 -7 362 -7 l 213 -7 l 199 4 l 202 37 l 202 61 q 199 94 202 79 q 202 126 202 108 l 202 145 q 183 172 202 172 l 164 172 q 161 175 161 172 l 156 172 l 153 172 q 134 191 134 172 l 134 604 q 142 612 134 608 l 178 612 q 189 614 184 612 l 194 612 q 202 614 199 614 l 202 628 q 197 633 202 633 l 172 633 q 161 636 166 633 q 151 633 157 633 q 134 642 136 633 l 134 671 q 140 753 134 694 l 137 758 q 148 777 142 777 l 172 777 q 178 783 178 777 l 178 785 q 172 791 178 791 l 134 791 q 80 793 111 791 q 58 791 70 791 q 47 799 47 795 q 53 823 53 817 q 34 853 53 853 q 7 897 7 853 q 56 916 7 916 q 148 962 121 928 q 183 1032 179 1000 q 208 1043 201 1043 m 319 595 q 313 563 313 570 q 324 533 317 533 l 327 533 q 332 538 332 533 l 332 541 q 321 595 332 550 l 319 595 m 319 503 l 319 484 l 321 484 l 321 503 l 319 503 m 319 262 l 319 254 l 321 254 l 321 262 l 319 262 m 319 237 l 316 224 l 316 213 l 330 216 l 330 227 q 324 237 324 233 l 319 237 z "},"2":{"ha":616,"x_min":14,"x_max":602,"o":"m 250 1061 q 293 1034 267 1061 l 355 1034 q 456 1015 456 1034 q 515 960 474 1011 q 540 906 536 906 l 543 901 l 543 895 q 537 890 543 890 l 507 890 q 488 884 488 889 l 469 887 l 396 887 q 385 890 390 887 q 374 876 374 887 l 377 863 l 410 863 q 437 844 421 863 l 458 844 q 467 846 467 844 l 480 844 l 540 844 q 589 827 589 834 q 575 822 589 822 l 575 814 q 591 798 591 814 l 591 795 q 583 779 591 781 l 575 779 q 567 784 568 784 l 564 784 q 540 678 547 784 q 483 556 505 583 q 458 515 483 541 q 407 450 450 492 q 320 353 407 443 q 279 298 305 346 q 209 288 222 288 q 190 290 201 288 q 168 288 180 288 l 165 288 q 152 290 157 288 q 79 277 79 288 l 79 274 q 90 266 79 270 q 92 269 92 266 q 114 266 95 269 l 146 269 l 171 266 l 195 269 q 225 260 213 266 q 241 266 234 266 l 244 266 q 250 260 250 265 l 250 255 q 228 193 228 235 q 285 176 253 176 l 293 157 l 320 152 q 450 155 410 155 q 529 152 472 155 l 543 155 q 602 144 602 151 q 597 79 600 92 l 600 73 l 597 46 q 602 24 602 29 q 586 3 595 3 l 581 5 q 540 0 555 0 l 98 0 q 76 16 83 0 l 79 35 l 79 103 q 81 125 79 115 q 79 146 79 136 l 79 171 q 71 179 79 173 q 62 176 68 179 q 19 187 24 178 q 68 307 45 307 l 73 309 l 79 307 q 117 309 102 309 l 133 307 q 144 315 144 311 l 144 317 q 106 328 144 326 l 90 323 q 76 342 76 327 q 195 483 163 451 q 290 602 255 545 q 339 757 339 699 l 336 762 q 353 784 347 783 l 377 784 q 385 800 385 787 l 385 825 q 374 860 374 853 l 345 860 q 317 887 328 860 q 279 903 284 903 l 277 903 q 231 871 231 892 q 269 857 241 860 l 269 854 q 239 825 269 833 l 236 811 q 244 808 241 808 q 252 811 250 811 q 260 792 260 798 q 241 779 256 779 q 233 792 234 779 l 231 792 q 214 768 224 792 l 220 751 q 217 727 217 736 l 217 722 q 222 700 217 720 q 206 694 214 694 l 179 694 q 160 692 163 694 q 136 694 145 694 l 125 694 q 79 692 100 694 q 46 694 64 694 q 30 692 32 692 q 14 703 14 698 l 14 711 q 19 751 14 726 l 16 768 q 60 789 16 783 q 62 792 60 792 q 60 814 62 795 l 62 833 q 46 860 62 860 q 24 873 24 860 q 52 955 24 896 q 174 1053 64 1004 l 250 1061 m 187 757 l 187 749 q 193 743 188 743 q 198 760 198 752 l 193 762 q 187 757 187 762 m 575 109 l 575 106 q 581 100 576 100 q 586 106 586 100 l 581 109 l 575 109 m 578 87 l 575 81 l 575 65 l 586 65 q 594 73 590 65 q 578 87 594 77 z "},"3":{"ha":599,"x_min":14,"x_max":608,"o":"m 279 1072 q 499 985 446 1072 q 526 936 511 983 q 543 882 543 913 q 586 868 551 873 l 589 863 l 589 846 l 586 830 q 591 814 591 821 l 591 800 q 581 792 591 792 l 562 795 q 537 670 547 795 q 488 605 509 613 q 450 578 473 578 l 358 578 q 342 570 342 576 l 342 564 q 350 556 342 560 l 358 556 q 477 540 477 556 q 496 521 477 536 q 521 483 521 490 q 548 363 538 483 q 537 328 542 336 l 532 331 l 529 331 q 526 323 529 328 q 529 317 526 317 l 526 298 l 526 282 q 532 277 527 277 q 537 282 532 282 q 545 271 545 282 l 543 233 q 545 222 543 232 q 540 206 540 212 q 583 190 557 191 l 600 190 q 608 182 604 190 q 581 109 597 164 q 551 79 555 93 q 553 68 553 74 q 439 11 501 19 q 377 0 423 6 l 290 0 q 174 38 234 0 q 103 144 103 96 q 84 184 96 144 q 16 201 16 190 l 16 288 q 14 347 16 307 q 33 355 24 355 l 71 355 q 95 353 85 355 q 122 355 109 355 l 130 355 q 198 353 153 355 l 198 347 q 138 345 157 345 l 130 345 q 122 336 126 345 l 122 326 q 130 320 122 320 q 217 309 217 320 l 214 296 q 217 266 217 272 q 212 241 212 248 q 222 203 220 231 q 266 190 260 190 l 290 190 l 312 163 l 339 160 l 347 160 q 385 179 355 160 l 385 187 q 331 201 331 187 q 339 231 339 219 l 339 260 q 336 269 339 269 l 339 282 l 339 358 q 233 480 339 480 q 176 494 176 480 l 174 494 l 176 513 l 176 526 q 179 578 176 552 l 174 618 q 187 635 178 630 l 214 635 q 312 662 296 635 q 331 694 320 662 q 339 743 339 694 l 339 776 q 377 798 339 798 q 382 800 377 800 q 355 871 382 871 q 317 892 331 871 q 274 914 290 914 q 228 879 228 901 q 260 871 231 875 l 266 863 l 252 833 l 260 803 q 250 789 255 791 l 247 789 l 231 792 q 212 773 222 792 q 217 768 217 772 l 217 762 q 146 746 217 753 l 136 746 q 98 749 115 746 q 76 746 83 746 q 35 749 49 749 q 24 746 31 746 l 16 757 l 16 787 l 24 798 l 38 795 l 41 795 q 57 806 54 795 q 54 817 57 812 q 57 854 57 840 l 57 868 q 24 882 24 871 q 62 987 24 913 q 184 1066 119 1054 q 279 1072 193 1069 m 526 258 l 526 239 l 532 239 l 532 258 l 526 258 z "},"4":{"ha":632,"x_min":14,"x_max":621,"o":"m 369 1050 q 388 1044 374 1050 l 456 1050 q 475 1047 467 1047 q 491 1050 489 1050 q 543 1036 535 1043 q 540 982 540 1000 l 540 882 q 586 857 543 857 q 589 854 586 854 q 581 827 586 834 q 559 833 560 833 l 556 827 l 556 817 q 562 811 557 811 l 567 811 l 581 814 q 586 798 586 805 q 545 776 586 776 q 537 762 540 762 l 540 749 l 540 665 l 543 648 q 529 610 541 610 q 472 600 472 610 l 472 594 q 480 586 472 592 l 486 589 l 491 589 q 543 570 543 584 l 540 551 l 540 399 q 553 347 540 347 l 597 342 l 597 334 q 572 328 579 328 l 556 328 q 532 331 547 328 q 521 328 527 328 q 505 331 519 328 q 477 323 477 329 l 477 315 q 483 309 478 309 l 548 309 q 600 304 567 309 l 605 307 q 618 288 618 302 l 618 225 l 621 198 q 567 187 606 194 l 567 182 q 605 168 605 176 l 605 152 q 600 130 600 133 q 608 111 608 120 l 608 103 q 605 92 608 97 q 608 84 608 87 q 589 76 597 76 l 472 76 q 464 68 468 76 q 494 54 464 57 l 510 57 q 513 54 513 57 q 524 57 514 54 q 608 38 608 50 l 608 24 q 551 0 608 0 l 429 0 q 393 16 393 0 q 399 33 395 33 q 396 35 399 35 q 399 76 399 62 l 399 84 q 396 171 399 113 q 388 176 389 176 l 369 176 q 296 190 314 190 l 133 190 q 106 193 120 190 q 81 190 96 190 l 46 190 q 14 201 14 190 l 19 209 q 22 247 19 239 q 19 296 19 273 l 19 336 q 57 434 35 384 q 81 486 57 441 q 163 681 90 513 q 179 722 163 686 q 225 784 194 784 l 241 787 l 241 784 q 277 854 253 784 q 271 860 277 860 l 258 857 q 241 876 241 863 q 288 982 263 906 q 307 1028 300 1000 q 323 1047 319 1047 l 328 1047 q 369 1050 345 1047 m 510 751 l 510 746 l 513 746 l 513 751 l 510 751 m 510 722 l 510 711 l 513 711 l 513 722 l 510 722 m 309 586 q 301 591 301 589 q 274 581 282 581 l 195 581 q 184 583 189 581 q 174 570 174 581 q 184 564 180 564 q 298 562 212 564 l 304 553 l 304 548 q 285 515 304 538 q 247 412 270 463 q 225 361 235 406 q 217 353 221 361 q 250 345 227 345 q 328 347 269 345 q 336 393 336 356 l 336 494 q 334 545 336 515 q 372 567 334 567 l 372 575 q 345 583 372 581 q 336 608 336 593 l 336 616 l 334 616 l 312 586 l 309 586 m 231 480 l 203 480 q 187 472 187 479 l 187 467 q 198 458 187 463 l 209 461 l 244 456 q 255 472 255 458 l 255 480 q 247 486 255 486 q 231 480 238 480 z "},"5":{"ha":574,"x_min":14,"x_max":608,"o":"m 60 1031 l 475 1031 q 502 1025 480 1031 l 518 1028 q 526 1017 524 1017 q 521 971 523 975 q 524 947 524 956 l 524 892 q 515 884 524 888 l 513 884 q 448 879 509 884 l 263 879 q 233 863 242 879 q 247 846 237 852 l 271 846 q 279 830 277 846 q 271 814 275 814 l 274 808 l 274 773 q 236 760 274 767 q 222 708 229 745 l 222 700 q 231 692 222 696 l 236 692 q 282 708 273 708 l 380 708 q 524 616 474 708 q 526 594 526 597 l 521 591 l 491 591 q 477 610 488 591 l 317 610 q 290 589 303 589 l 239 589 q 231 581 235 589 q 241 570 231 576 l 260 572 l 309 572 q 353 570 325 572 l 358 572 q 382 570 373 570 q 456 572 418 570 q 518 562 518 568 l 524 564 l 526 564 q 548 515 548 564 q 551 358 551 425 q 515 339 551 339 q 507 334 507 336 l 488 336 l 442 336 q 434 328 438 336 l 434 320 q 439 315 435 315 l 458 317 l 491 315 l 502 317 q 521 312 513 312 l 545 315 l 551 307 l 551 282 q 548 271 551 276 l 551 266 q 548 195 548 214 q 543 179 543 181 q 605 160 543 164 l 608 155 l 608 152 q 589 109 600 144 q 564 62 589 91 l 556 62 l 545 71 l 543 71 q 540 62 543 62 q 553 46 540 58 q 350 -27 493 -27 l 290 -27 q 198 0 198 -18 q 174 14 197 6 q 119 68 174 18 q 84 152 98 111 q 68 163 71 163 q 52 160 66 163 q 16 182 16 160 q 14 266 16 225 q 16 298 16 285 l 14 312 q 27 328 18 323 l 141 328 q 195 323 168 328 q 203 326 201 326 q 214 317 214 321 l 214 307 q 212 296 214 300 q 214 288 214 290 q 212 266 212 269 q 217 239 217 241 q 212 214 212 218 q 236 168 218 168 l 241 171 q 293 160 252 165 q 336 133 293 145 q 380 155 361 133 l 380 157 q 336 168 380 162 l 334 174 q 342 244 342 238 q 339 301 339 270 l 342 301 l 339 307 l 339 323 q 345 353 339 342 q 339 418 339 377 l 339 475 q 279 548 329 548 q 271 551 279 551 q 228 515 228 546 q 212 477 212 486 q 217 453 212 471 q 160 442 208 446 q 133 423 151 423 l 24 423 q 16 429 18 429 q 30 667 19 667 l 27 692 q 41 768 27 768 l 65 768 q 73 779 73 768 l 76 822 q 57 841 76 841 q 35 852 47 841 l 43 1001 q 41 1023 41 1012 q 60 1031 51 1031 m 521 486 l 518 467 l 524 464 q 529 469 529 464 q 521 486 526 486 m 184 472 l 184 469 l 193 469 q 195 480 195 479 l 193 480 q 184 472 189 480 m 182 274 l 182 260 q 187 255 182 255 l 190 255 q 195 266 190 259 l 195 271 l 182 274 m 518 252 q 515 247 518 247 q 521 228 521 233 q 515 195 515 209 l 515 187 q 524 179 515 183 l 537 179 l 537 182 l 526 193 q 532 220 526 204 q 521 252 525 252 l 518 252 m 184 225 l 182 212 q 187 206 182 206 q 195 209 193 209 l 195 217 q 187 225 195 221 l 184 225 m 184 141 l 184 136 q 193 127 184 132 q 212 138 204 127 q 195 149 209 149 l 193 149 q 184 141 189 149 m 570 144 l 567 138 q 572 133 568 133 l 575 133 l 575 138 q 570 144 575 144 z "},"6":{"ha":610,"x_min":14,"x_max":618,"o":"m 301 1092 q 464 1043 433 1085 q 505 1008 479 1043 q 524 981 505 1001 q 551 899 551 928 l 594 888 q 600 869 600 878 q 594 853 594 859 q 600 821 600 831 q 488 799 570 799 l 377 799 q 361 807 363 799 l 361 810 q 399 821 361 817 l 399 853 q 382 891 393 891 l 361 891 q 328 918 347 891 q 304 932 323 918 l 282 932 q 241 899 241 922 q 274 891 241 894 l 277 886 l 277 880 q 266 856 277 870 l 266 850 q 269 826 266 841 q 250 812 264 812 l 247 812 l 233 815 q 222 783 222 797 l 222 704 l 214 693 q 231 688 223 688 q 320 715 271 715 l 366 715 q 456 696 456 709 q 488 677 479 696 q 507 652 501 677 q 559 457 559 618 l 559 435 q 562 425 559 429 q 548 406 558 406 q 534 408 539 406 q 483 397 483 406 l 483 395 q 553 378 483 385 l 562 368 q 556 319 562 359 q 562 294 559 300 q 553 232 557 232 q 583 210 553 221 q 591 213 589 213 q 618 202 618 210 l 618 199 q 597 140 606 189 q 548 80 553 80 q 353 20 487 20 l 296 20 q 168 64 197 34 q 92 194 92 142 q 68 210 81 210 l 35 210 q 19 216 28 210 q 16 351 16 310 l 16 739 q 14 799 16 758 q 30 807 24 807 q 38 804 33 807 l 52 807 l 71 804 q 87 807 73 804 q 109 804 102 804 q 122 823 122 808 l 114 829 l 73 829 q 57 840 57 829 q 62 856 62 848 q 60 878 60 876 q 62 886 62 883 l 30 897 q 24 902 30 902 q 81 1029 33 974 q 236 1089 137 1089 q 301 1092 252 1089 m 491 997 l 491 975 q 499 972 494 975 q 505 981 505 979 q 496 997 502 997 l 491 997 m 174 902 l 174 897 l 187 894 l 206 894 q 228 902 227 894 l 228 907 q 217 918 228 911 l 182 918 q 174 902 174 916 m 491 650 l 491 636 q 496 631 492 631 l 499 644 q 494 650 499 650 l 491 650 m 222 449 l 222 359 l 225 340 l 220 338 l 209 343 q 171 340 186 340 l 168 340 q 160 330 161 340 l 168 319 l 182 321 q 209 313 188 321 q 217 324 213 324 l 222 324 l 228 321 l 222 264 q 252 216 227 216 q 279 210 259 216 q 301 213 294 213 q 347 180 320 180 q 393 205 374 180 q 382 210 387 210 q 380 208 380 210 q 342 218 342 210 l 342 224 q 350 264 350 250 l 350 487 q 290 557 350 531 l 285 557 q 228 503 249 557 q 222 449 223 503 m 521 530 l 521 517 q 526 511 522 511 l 534 511 q 540 517 540 511 q 529 530 534 529 l 521 530 m 570 161 l 570 153 q 575 159 575 153 l 575 161 l 570 161 z "},"7":{"ha":572,"x_min":14,"x_max":586,"o":"m 33 1047 l 469 1047 q 556 1034 556 1047 q 551 996 551 1013 l 551 955 q 556 925 556 928 q 483 903 556 903 q 461 906 468 906 q 456 892 456 897 q 477 884 463 888 l 491 887 q 521 882 498 887 q 540 884 532 884 q 583 860 549 860 q 586 852 583 857 q 570 789 575 827 q 524 776 554 779 q 494 665 506 744 q 464 559 481 645 q 448 507 452 555 q 412 369 412 372 q 396 331 405 361 q 391 326 391 330 l 391 301 q 377 260 391 271 q 380 252 380 255 l 363 203 q 410 179 363 179 q 423 171 423 177 q 393 68 393 73 q 336 54 389 62 l 233 54 q 228 49 228 54 l 228 41 q 233 35 229 35 l 372 35 q 382 24 376 35 l 382 16 q 320 0 382 5 l 214 0 q 203 3 208 0 q 193 0 199 0 l 182 0 q 171 11 178 0 l 171 19 q 209 149 184 75 l 209 168 q 157 182 209 179 q 155 190 155 187 l 231 477 q 241 521 234 477 q 258 581 248 530 q 307 768 307 753 q 323 784 320 784 l 342 784 q 366 836 366 784 q 374 857 374 846 q 336 871 336 861 l 339 884 q 279 895 328 895 l 27 895 q 14 906 26 895 l 16 920 l 16 930 q 19 979 16 960 q 14 1034 16 1028 q 33 1047 18 1047 m 491 754 q 486 746 491 753 l 486 741 q 491 735 486 735 l 494 735 l 496 749 q 491 754 496 754 m 437 556 q 442 551 437 551 q 453 556 449 556 l 450 575 l 450 594 q 445 600 450 600 q 437 556 437 600 m 358 274 l 361 274 q 377 301 377 288 q 372 307 377 307 q 358 274 360 307 z "},"8":{"ha":624,"x_min":14,"x_max":629,"o":"m 255 1058 q 472 1015 422 1058 q 515 971 486 1013 q 551 914 543 930 q 567 871 551 903 q 559 863 563 871 l 548 865 q 491 854 491 862 l 491 849 q 505 838 491 845 l 564 844 q 586 836 567 844 l 591 838 q 613 808 613 838 q 616 792 613 796 q 583 779 616 781 q 564 684 572 779 q 548 632 553 663 q 513 583 525 591 q 480 562 499 562 l 480 553 q 505 529 480 538 q 562 420 553 470 q 572 366 572 378 l 572 285 q 575 260 572 275 q 540 247 575 249 q 518 241 540 241 q 505 244 509 241 q 480 241 490 241 l 472 241 q 442 244 460 241 q 434 241 437 241 l 434 231 q 442 222 434 229 l 456 225 l 472 225 q 507 222 490 225 l 524 225 q 570 212 570 220 q 597 176 570 176 l 602 179 l 608 179 q 629 171 628 179 q 608 160 629 164 q 600 163 602 163 q 583 157 583 161 l 570 160 l 494 160 q 486 146 488 160 q 502 136 488 136 l 505 136 q 526 138 516 136 l 543 136 q 570 138 546 136 q 591 133 580 133 l 613 133 q 618 127 618 132 l 618 125 q 518 19 563 31 q 339 -14 474 -14 l 293 -14 q 209 8 209 2 q 119 84 170 20 q 84 168 101 122 l 76 174 l 65 174 q 54 171 59 174 q 16 195 16 176 q 14 277 16 229 q 57 499 14 446 q 106 548 57 505 l 106 553 q 38 637 49 597 q 14 754 21 655 l 14 765 q 30 784 20 781 q 52 781 45 781 l 60 792 l 57 817 q 60 827 60 826 q 57 846 57 838 q 90 860 57 860 l 269 860 q 277 852 273 860 l 266 819 q 269 798 266 817 q 244 776 269 780 l 239 779 q 220 751 220 770 l 220 722 q 266 635 236 635 q 290 627 266 631 q 355 678 338 627 q 366 776 363 726 l 380 784 l 396 781 q 407 792 405 784 q 372 857 407 857 q 339 879 339 857 q 282 901 301 901 q 239 873 264 896 q 225 879 225 873 q 171 876 189 876 l 73 876 l 57 879 q 38 860 54 879 l 30 860 q 19 871 26 860 q 95 1004 58 982 q 255 1058 156 1058 m 532 901 l 532 892 l 537 892 l 537 895 q 532 901 537 901 m 236 817 l 241 814 l 241 822 q 236 817 236 821 m 521 646 l 521 635 l 526 635 l 526 640 q 521 646 526 646 m 152 393 l 149 380 l 149 377 q 157 369 149 373 l 193 369 q 225 358 225 369 q 220 334 222 338 q 222 309 222 319 l 222 288 q 220 277 222 281 q 225 260 225 268 l 225 244 l 222 228 q 252 182 231 182 l 288 176 l 301 179 q 350 144 315 153 l 353 144 q 404 168 404 159 l 404 171 q 396 176 404 176 q 393 174 393 176 q 353 184 353 176 l 353 190 l 363 247 q 361 252 363 252 l 363 285 l 363 361 q 336 434 355 422 q 279 464 336 458 q 236 418 252 455 q 179 393 236 393 l 152 393 z "},"9":{"ha":612,"x_min":20,"x_max":623,"o":"m 227 1069 l 327 1069 q 460 1036 394 1069 q 495 1006 494 1012 q 519 979 495 994 q 555 895 544 931 q 601 871 555 871 l 606 863 q 601 814 606 850 q 606 808 606 813 l 606 803 q 595 792 606 799 q 585 795 589 792 q 560 738 563 795 l 557 738 l 563 713 q 560 705 563 711 l 563 692 q 557 616 563 683 q 566 600 562 600 l 563 581 l 563 407 l 566 374 q 555 366 555 369 l 541 369 l 511 361 l 498 363 q 476 361 496 363 q 422 366 461 361 q 408 355 410 361 l 408 350 q 430 342 410 342 q 471 345 447 342 q 479 342 473 345 q 495 345 481 342 q 557 342 538 342 l 566 328 q 563 260 563 283 l 566 247 q 547 239 555 239 l 463 239 q 446 231 446 237 l 446 217 l 460 214 l 481 214 q 571 195 571 214 q 623 182 623 189 l 623 179 q 598 111 612 179 q 563 65 595 111 q 368 0 496 0 l 292 0 q 175 41 224 9 q 121 119 121 102 q 99 176 110 124 l 77 190 q 69 187 75 190 q 26 217 26 187 q 23 244 26 230 q 26 271 26 258 q 23 279 26 274 q 47 293 23 293 l 123 293 q 224 277 224 293 l 221 250 q 273 193 221 193 q 324 160 301 193 l 338 157 q 397 182 368 157 q 387 190 397 184 q 378 187 381 187 q 343 201 343 189 q 357 331 357 235 q 354 410 354 367 q 351 420 351 419 l 349 420 q 245 377 323 377 q 186 374 217 377 q 118 391 136 383 q 45 467 95 398 q 94 480 45 477 q 123 477 109 477 l 129 486 l 129 491 q 113 499 126 499 l 47 499 q 28 513 28 499 q 20 591 28 529 l 20 776 q 39 798 23 798 l 56 795 l 66 803 q 64 811 66 806 q 69 863 67 859 q 66 871 66 868 l 47 871 q 31 879 33 871 q 94 1015 31 938 q 227 1069 165 1069 m 495 968 l 495 960 l 500 960 l 500 963 q 495 968 500 968 m 245 879 q 278 871 249 875 l 281 865 l 281 863 q 259 836 281 848 q 273 795 273 828 q 264 792 267 792 l 245 795 q 218 743 218 764 l 216 743 q 210 749 216 749 l 208 743 l 208 738 l 210 724 l 218 730 q 229 703 229 718 l 229 700 q 218 689 229 696 q 208 692 214 692 q 205 681 208 690 q 213 659 207 659 q 218 667 213 667 q 232 635 232 642 l 232 602 q 224 594 232 598 l 218 594 q 167 583 167 594 l 167 581 q 232 570 167 572 q 270 540 238 568 q 289 534 281 534 q 346 567 310 534 q 362 572 355 572 l 387 572 q 411 575 396 572 q 427 572 415 572 q 433 581 433 579 l 433 583 q 416 591 430 591 l 359 591 q 351 605 355 591 l 354 632 q 357 762 354 684 l 354 779 q 384 795 354 795 q 397 800 393 800 l 397 808 q 400 833 397 818 q 349 873 400 873 q 330 895 342 873 q 294 911 302 911 l 286 911 q 245 879 245 905 m 210 762 l 210 754 q 216 760 216 754 l 210 762 m 210 654 l 210 648 l 213 648 l 213 654 l 210 654 m 544 618 q 536 600 544 608 l 536 597 l 544 597 l 547 613 l 547 618 l 544 618 m 194 274 l 194 258 q 210 266 208 258 l 210 277 l 208 277 l 194 274 m 576 138 l 576 136 l 585 136 l 585 144 l 582 144 q 576 138 576 143 z "},"\u0000":{"ha":0,"x_min":0,"x_max":0,"o":""}," ":{"ha":345,"x_min":0,"x_max":0,"o":""},"!":{"ha":317,"x_min":20,"x_max":300,"o":"m 34 1050 l 61 1047 l 156 1047 q 180 1050 165 1047 q 224 1044 192 1044 l 227 1044 l 235 1039 q 232 1017 232 1024 l 235 1001 q 205 971 235 971 q 189 968 193 971 q 180 971 183 971 l 167 968 q 148 971 156 971 l 134 963 q 202 947 134 947 q 235 936 231 944 l 232 909 l 232 865 q 229 863 232 863 q 251 841 235 841 q 275 833 275 841 l 275 827 q 235 811 235 822 q 227 768 232 768 q 229 760 227 765 l 227 722 l 229 716 q 227 708 227 711 q 232 684 232 690 l 232 654 q 227 635 232 635 l 229 629 l 229 605 q 227 496 229 565 q 221 491 221 496 q 140 488 167 488 l 123 488 q 121 477 123 487 q 140 464 121 468 q 148 467 142 464 q 164 464 150 467 l 178 467 q 213 464 195 464 l 221 464 q 229 456 225 464 q 213 250 223 456 l 210 250 l 213 244 q 202 236 213 240 q 191 239 193 239 l 140 231 l 126 233 l 91 233 q 61 231 79 233 q 39 296 39 231 l 23 618 q 26 741 26 694 q 23 819 23 810 l 34 827 l 61 827 q 66 833 66 827 q 61 838 66 838 l 50 838 q 39 836 44 838 q 23 849 28 840 q 26 979 26 944 l 23 990 q 26 993 23 993 l 20 1039 q 34 1050 34 1048 m 208 762 q 218 757 212 762 l 224 765 q 218 770 224 770 q 208 762 208 766 m 104 165 l 194 165 q 237 163 210 165 l 243 165 q 294 152 294 159 l 294 122 l 297 109 q 289 103 290 103 l 275 103 q 224 98 229 98 q 205 100 216 98 q 183 98 190 98 l 159 100 q 132 81 136 100 l 140 76 l 202 76 q 229 73 215 76 q 248 76 240 76 q 297 62 297 76 q 300 43 297 54 q 294 27 294 35 q 297 19 294 24 q 235 0 297 0 l 221 0 l 216 3 l 210 0 q 180 3 199 0 q 107 0 142 0 q 88 16 101 1 l 91 35 q 94 114 91 57 q 91 149 91 137 q 104 165 95 161 z "},"\"":{"ha":456,"x_min":0,"x_max":0,"o":""},"#":{"ha":906,"x_min":0,"x_max":867,"o":"m 385 1124 q 400 1059 389 1124 q 418 1050 412 1059 l 418 1048 l 402 1038 l 402 1036 q 422 1028 422 1034 q 414 1023 422 1023 l 414 1021 q 424 1015 424 1020 l 424 1009 q 408 1001 424 1005 l 408 999 l 422 931 q 410 927 415 927 l 382 927 q 379 923 379 926 q 382 919 380 919 l 408 919 q 424 907 424 919 q 433 857 426 882 l 431 857 l 433 853 l 433 847 l 431 843 q 435 840 435 842 q 412 827 416 827 l 412 820 l 416 822 l 420 822 q 445 808 427 812 q 453 769 453 789 q 422 765 444 765 l 408 765 q 404 762 404 765 l 408 760 l 416 760 q 457 753 457 760 l 457 751 q 431 746 457 746 l 385 746 q 373 798 378 746 q 369 810 371 810 q 324 816 337 812 l 313 814 l 301 814 l 301 806 l 311 808 l 313 808 q 307 755 307 765 l 307 751 q 272 746 307 746 l 239 746 q 233 751 236 746 q 241 802 241 780 l 241 810 l 225 810 q 221 814 221 810 l 221 820 l 223 824 q 210 822 215 822 l 210 804 q 227 787 227 795 q 198 753 214 753 l 170 753 q 163 755 166 753 q 155 753 159 753 l 151 753 q 141 755 144 753 l 130 753 l 112 753 q 108 749 108 753 l 108 746 q 125 748 115 746 q 136 744 132 744 q 151 748 141 744 l 163 744 q 180 746 173 746 q 184 742 184 745 q 170 738 176 738 l 167 740 q 147 734 157 734 q 139 736 139 734 l 120 734 l 36 734 l 31 738 l 32 742 l 32 769 l 31 773 q 42 777 37 777 l 47 777 q 58 775 54 777 q 63 777 60 775 q 110 775 91 775 l 122 775 q 143 777 130 775 l 147 775 q 153 777 151 777 q 151 783 151 781 l 36 783 q 31 789 33 783 q 32 791 31 791 q 11 800 32 798 l 7 820 q 31 826 10 823 l 32 836 q 24 845 29 836 l 24 925 q 28 929 25 929 l 87 929 l 87 933 q 83 937 87 937 q 77 935 81 937 q 60 937 66 937 q 42 935 52 937 q 24 941 24 937 l 24 989 l 40 999 l 40 1017 q 34 1023 40 1018 l 31 1021 q 24 1026 27 1021 q 31 1032 24 1029 l 40 1032 l 40 1038 q 22 1050 40 1040 l 24 1054 l 24 1108 q 28 1112 25 1112 l 118 1112 q 208 1079 188 1112 q 221 1044 215 1050 l 225 1046 l 229 1046 q 235 1040 232 1046 l 235 1036 q 219 1028 235 1031 l 219 1023 l 231 1023 q 235 1017 235 1023 q 233 1001 233 1003 q 235 995 235 997 q 223 991 229 991 l 217 991 q 190 941 210 953 q 182 935 182 940 l 182 933 q 205 921 187 933 l 205 916 l 143 916 l 143 907 l 210 907 q 219 892 219 903 l 219 890 q 217 876 217 882 q 225 853 223 876 q 223 838 223 846 l 223 833 q 254 847 253 844 l 254 849 l 243 851 q 266 1003 250 909 l 272 1007 l 281 1007 q 286 1032 286 1025 l 286 1034 l 275 1034 q 272 1038 272 1034 l 272 1040 q 275 1044 273 1044 l 288 1044 l 290 1054 q 275 1061 275 1055 q 288 1124 283 1120 l 385 1124 m 460 1124 l 564 1124 q 648 1081 631 1124 q 646 1079 646 1081 q 654 1059 650 1079 l 640 1057 l 605 1057 q 603 1059 603 1057 q 581 1055 595 1055 q 547 1069 557 1069 l 534 1067 l 534 1061 q 550 1055 534 1057 l 550 1054 q 549 1052 550 1052 l 550 1048 q 534 1040 550 1046 l 534 1036 q 550 1028 550 1034 l 550 1009 l 534 999 l 534 882 l 533 871 q 534 861 534 867 l 534 840 q 519 833 534 833 l 519 814 q 543 802 543 814 l 554 802 q 578 810 578 802 q 560 816 560 810 q 578 838 565 838 l 580 838 l 580 985 q 581 994 580 990 l 580 997 q 597 1009 580 1007 l 597 1021 l 595 1034 l 585 1034 q 581 1038 581 1034 l 581 1040 q 599 1050 584 1042 l 667 1050 q 671 1046 671 1049 q 657 1042 665 1042 l 657 1036 q 673 1015 673 1036 l 673 1009 q 657 1001 673 1005 l 657 867 q 656 865 657 865 l 657 861 l 657 859 q 648 833 657 833 q 640 816 640 833 l 661 806 q 614 795 661 795 l 614 789 l 646 789 q 652 783 648 789 q 568 746 633 747 l 471 746 l 465 749 l 467 764 l 467 806 q 443 812 467 810 l 443 831 q 447 836 444 836 l 457 836 q 458 985 457 890 q 457 1001 457 996 q 474 1010 474 1008 l 474 1023 q 458 1036 474 1036 l 458 1040 q 465 1046 458 1043 l 469 1044 q 474 1046 472 1046 l 473 1055 l 463 1055 q 457 1067 457 1057 l 457 1083 q 458 1085 457 1085 l 457 1088 l 457 1120 q 460 1124 457 1124 m 382 1108 l 381 1104 l 381 1102 l 387 1102 l 387 1104 q 382 1108 387 1108 m 638 1081 l 638 1075 l 640 1075 l 640 1081 l 638 1081 m 100 1052 l 100 1048 q 116 1040 116 1046 l 116 1034 q 112 1030 116 1030 l 104 1040 l 104 1028 q 89 1017 89 1025 q 116 1009 116 1012 l 116 995 q 112 991 116 991 l 108 991 l 104 994 q 100 978 100 986 l 100 964 l 104 958 q 141 983 134 958 q 157 995 141 995 l 157 1001 q 159 1009 157 1005 q 153 1023 156 1023 l 149 1023 l 145 1021 l 141 1026 q 155 1032 141 1032 q 136 1046 155 1046 q 118 1055 127 1055 l 104 1055 q 100 1052 100 1055 m 486 1038 l 488 1034 l 502 1036 l 525 1036 l 525 1042 l 490 1042 q 486 1038 486 1041 m 330 995 l 330 994 q 332 987 330 987 q 315 890 320 890 q 313 905 313 892 l 311 905 l 311 880 l 315 874 q 305 872 311 872 l 305 871 q 328 867 310 871 q 336 869 332 869 l 336 867 l 340 869 l 353 869 q 334 995 338 984 l 330 995 m 402 987 l 402 972 l 406 972 l 406 987 l 402 987 m 496 948 l 496 945 l 498 941 l 511 943 l 515 943 l 515 947 q 511 950 515 950 l 505 950 l 496 948 m 104 903 l 98 890 l 100 886 l 100 882 q 98 880 100 880 l 100 876 l 100 843 q 98 841 100 841 l 100 838 l 100 827 q 75 816 100 823 l 75 810 l 77 810 q 83 812 81 812 q 108 796 88 796 q 110 791 110 793 l 125 791 l 145 793 l 145 798 l 132 798 q 127 802 127 798 q 138 824 133 824 l 147 824 l 147 867 q 104 903 147 903 m 646 851 q 650 847 646 847 l 652 857 l 652 863 q 646 851 646 861 m 507 827 l 507 822 q 511 826 511 822 l 511 827 l 507 827 m 116 707 q 227 662 204 707 l 227 659 q 197 647 197 656 q 205 645 200 647 l 210 647 q 217 645 212 647 l 230 647 q 259 637 259 646 l 259 632 q 244 625 259 629 q 242 623 244 623 q 247 581 247 603 l 247 576 q 242 570 247 570 l 158 570 q 153 576 153 570 l 153 578 q 146 625 153 606 q 153 632 149 625 q 151 635 151 632 q 128 625 140 635 q 119 627 123 625 q 99 588 99 619 q 126 524 107 545 q 173 496 150 496 l 185 484 l 185 479 l 182 479 l 178 481 l 175 477 q 247 336 247 414 q 264 343 264 339 q 262 370 262 366 q 264 378 262 378 l 262 403 l 262 454 q 264 507 262 474 q 262 516 262 511 q 284 526 284 524 l 284 528 l 269 528 q 262 536 266 528 l 262 538 q 281 555 262 555 l 281 583 q 262 590 281 588 l 262 595 q 271 603 262 599 q 279 600 277 600 l 281 605 l 279 618 l 274 615 l 269 615 q 262 620 263 620 l 264 650 l 264 682 l 262 699 l 267 701 l 355 701 l 361 699 l 358 674 l 358 662 q 336 654 358 657 q 334 657 334 654 l 321 654 l 316 654 l 304 657 l 301 652 l 301 647 l 338 647 q 358 632 358 647 q 378 615 358 615 l 380 610 l 380 605 q 358 595 380 599 l 358 593 q 378 581 378 587 q 380 553 378 567 q 358 543 358 546 l 358 507 q 353 501 358 501 l 306 501 l 306 492 q 316 489 316 492 q 323 492 321 492 q 361 487 346 492 l 358 462 l 358 393 q 361 370 358 384 q 358 353 358 368 q 361 338 361 340 l 355 336 l 343 336 q 338 326 343 326 l 340 321 l 340 314 l 338 309 q 370 281 370 309 l 370 260 l 368 245 q 370 235 370 240 q 368 225 368 231 q 331 222 343 222 l 279 222 q 271 230 275 222 l 271 299 q 244 294 262 294 l 197 294 q 193 289 193 293 l 193 287 l 197 287 q 264 284 218 287 q 267 277 267 279 q 244 245 258 257 l 242 245 q 237 252 237 245 l 215 225 l 153 215 q 50 260 75 215 l 50 262 q 54 267 50 267 l 106 267 l 119 264 l 123 272 l 119 274 l 47 274 q 35 301 39 274 q 3 309 3 304 l 3 336 q 0 358 3 345 q 7 368 3 368 l 54 368 q 94 358 94 368 q 92 338 94 352 q 113 304 92 304 q 141 292 134 304 q 151 289 145 289 l 153 289 q 168 301 168 298 l 146 304 l 151 336 q 47 474 151 380 l 47 477 q 57 481 47 481 l 57 484 q 30 499 57 495 q 3 583 3 534 q 17 630 3 630 q 30 635 30 630 l 30 642 q 15 650 15 645 q 116 707 40 707 m 516 704 q 629 650 601 704 l 629 647 l 625 640 l 625 625 q 629 620 625 620 l 632 625 l 627 632 l 627 635 l 629 635 q 659 610 641 614 l 662 605 l 662 600 q 644 593 662 595 l 644 588 l 662 578 q 659 570 662 570 l 662 558 l 662 551 q 585 534 652 536 l 570 536 l 553 536 q 548 541 548 536 q 568 551 548 545 l 570 573 q 551 585 568 585 l 551 590 l 568 600 l 568 603 q 541 618 568 606 q 531 630 534 629 l 513 630 q 501 618 510 630 l 516 608 l 516 600 l 511 593 l 506 595 l 501 595 q 494 588 498 595 l 494 585 q 513 578 513 583 l 513 551 q 494 543 512 543 l 494 336 q 474 329 494 331 l 474 321 q 509 299 474 299 q 524 287 509 298 l 526 287 q 548 292 532 287 l 548 296 q 543 301 548 301 q 536 299 538 299 q 526 309 526 301 q 536 334 531 334 l 548 334 l 548 408 q 513 420 548 414 l 513 484 l 526 487 l 605 487 q 642 474 613 477 l 642 336 q 637 331 642 331 l 625 331 q 622 304 622 323 q 650 292 648 304 q 531 212 626 212 l 526 212 q 417 277 435 212 q 402 301 410 301 q 395 299 400 301 q 378 309 378 299 q 380 319 380 317 q 378 329 378 323 q 397 341 397 334 q 395 361 395 359 q 397 380 395 367 q 395 422 395 399 q 397 442 395 429 q 395 462 395 452 q 400 484 400 478 q 395 507 395 500 q 397 516 397 515 l 395 522 q 397 531 397 526 q 395 541 395 540 q 415 553 415 551 l 415 576 q 397 585 415 581 l 397 590 q 417 597 397 596 l 417 610 q 400 620 400 610 q 454 692 425 692 q 516 704 458 701 m 346 682 l 346 672 l 348 672 l 348 682 l 346 682 m 86 588 q 92 583 87 583 l 92 593 q 86 588 86 592 m 481 526 q 479 522 481 522 q 486 511 483 511 l 489 524 l 484 526 l 481 526 m 442 432 q 447 427 447 431 q 462 430 450 430 l 462 437 l 447 437 q 442 432 442 437 m 444 408 l 444 400 l 469 400 l 469 408 l 454 408 q 452 410 452 408 q 444 408 447 408 m 79 353 l 79 334 l 81 334 l 86 336 q 84 353 84 346 l 79 353 m 232 326 l 232 314 l 235 314 l 235 326 l 232 326 m 608 321 l 608 316 l 610 316 l 610 321 l 608 321 m 358 292 l 358 287 l 361 287 l 361 292 l 358 292 m 239 260 l 239 257 q 244 262 244 257 l 244 264 q 239 260 239 264 m 448 210 q 467 134 454 210 q 488 122 481 134 l 488 120 l 469 109 l 469 106 q 492 97 492 103 q 483 90 492 90 l 483 87 q 494 81 494 87 l 494 74 q 476 64 494 69 l 476 62 l 492 -18 q 478 -23 484 -23 l 446 -23 q 441 -28 441 -24 q 446 -33 442 -33 l 476 -33 q 494 -46 494 -33 q 506 -106 496 -76 l 504 -106 l 506 -111 l 506 -118 l 504 -123 q 508 -127 508 -123 q 481 -141 485 -141 l 481 -150 l 485 -148 l 490 -148 q 519 -164 498 -159 q 529 -210 529 -186 q 492 -215 519 -215 l 476 -215 q 471 -220 471 -216 l 476 -222 l 485 -222 q 534 -229 534 -222 l 534 -231 q 504 -238 534 -238 l 448 -238 q 434 -176 440 -238 q 430 -162 432 -162 q 376 -155 391 -159 l 363 -157 l 349 -157 l 349 -166 l 360 -164 l 363 -164 q 356 -227 356 -215 l 356 -231 q 314 -238 356 -238 l 275 -238 l 271 -236 q 266 -261 271 -261 l 182 -261 q 171 -236 174 -261 q 185 -231 176 -231 l 185 -227 q 166 -220 185 -222 q 148 -185 159 -185 q 123 -150 123 -185 q 90 -30 90 -52 l 83 -23 q 81 -26 83 -26 l 83 -37 l 83 -76 q 81 -85 83 -81 q 83 -95 83 -90 l 83 -115 q 72 -150 83 -123 q 74 -153 74 -150 l 79 -150 l 85 -155 l 83 -166 q 109 -185 83 -185 l 111 -189 l 111 -201 q 109 -231 111 -216 q 111 -256 111 -239 l 104 -261 l 33 -261 q 28 -254 28 -261 q 25 -217 28 -241 q 28 -187 28 -202 q 0 -180 0 -185 l 0 -26 l 18 -9 l 18 -5 q 0 5 0 -2 l 0 113 q 18 122 0 120 l 18 127 q 0 136 18 132 l 0 182 q 5 187 1 187 l 81 187 q 113 166 113 187 q 143 130 113 139 l 143 122 q 138 118 143 118 l 136 118 l 132 120 q 130 113 132 117 q 155 14 130 104 q 159 7 155 7 l 159 18 q 157 53 159 43 q 159 92 159 71 l 159 113 q 178 122 159 119 l 178 130 l 157 141 l 159 146 l 159 182 q 164 187 160 187 l 208 187 q 245 180 245 187 l 245 178 l 240 171 q 245 157 245 163 l 243 157 l 245 153 q 238 146 245 149 l 235 146 q 233 148 233 146 q 210 138 210 144 l 215 136 l 254 136 q 261 122 261 134 q 254 118 255 118 l 250 120 q 243 104 243 112 l 243 5 l 261 -9 l 261 -14 l 243 -26 l 243 -141 q 220 -148 243 -146 q 208 -146 216 -146 q 201 -153 205 -146 l 208 -157 l 210 -157 q 217 -155 217 -157 q 243 -166 243 -155 q 259 -182 243 -182 q 271 -189 271 -183 l 266 -192 l 217 -192 q 212 -197 212 -193 q 217 -201 213 -201 l 254 -201 q 256 -203 256 -201 l 261 -201 l 263 -201 q 271 -217 271 -201 l 273 -217 q 277 -171 277 -184 l 277 -162 l 259 -162 q 254 -157 254 -162 q 266 -132 254 -132 q 294 -118 290 -121 l 294 -115 l 279 -113 q 307 67 289 -43 l 314 72 l 326 72 q 330 102 330 92 l 330 104 l 319 104 q 314 109 314 104 l 314 111 q 319 115 315 115 l 333 115 l 335 127 q 319 136 319 128 q 333 210 328 205 l 448 210 m 543 201 l 624 201 q 629 197 629 200 l 629 155 q 647 148 629 150 l 647 138 q 593 132 647 132 l 562 132 q 538 153 551 149 q 536 166 538 154 q 538 180 536 168 q 536 197 536 189 q 543 201 537 197 m 446 192 l 444 187 l 444 184 l 450 184 l 450 187 q 446 192 450 192 m 543 134 l 547 134 q 555 122 549 122 l 610 122 q 629 115 627 122 l 629 56 q 591 48 629 48 l 543 48 q 536 56 540 48 l 536 64 q 538 72 536 72 l 536 83 l 536 104 l 538 118 q 536 130 536 121 l 543 134 m 614 111 l 614 102 q 621 109 618 102 l 621 111 l 614 111 m 383 58 l 383 56 q 386 48 383 48 q 365 -67 372 -67 q 363 -49 363 -64 l 360 -49 l 360 -79 l 365 -85 q 353 -88 361 -88 l 353 -90 q 381 -95 359 -90 q 391 -92 385 -92 l 391 -95 l 395 -92 l 411 -92 q 388 58 393 45 l 383 58 m 469 48 l 469 30 l 473 30 l 473 48 l 469 48 m 541 41 q 547 39 543 41 q 557 41 553 39 q 589 39 576 39 l 606 41 q 629 33 629 37 l 629 14 q 644 5 644 11 l 644 0 l 629 -9 l 629 -159 q 647 -180 647 -174 l 649 -180 l 649 -176 l 652 -176 q 680 -182 654 -179 l 693 -180 l 709 -180 q 728 -182 719 -180 q 746 -180 736 -180 q 772 -187 772 -180 l 769 -208 q 772 -240 772 -228 q 739 -248 763 -248 l 663 -248 q 661 -245 661 -248 l 656 -248 l 649 -248 q 647 -245 647 -248 l 642 -248 q 610 -245 613 -245 l 587 -248 l 587 -245 l 582 -248 l 570 -248 q 564 -243 565 -243 l 566 -227 l 566 -176 q 557 -169 566 -170 l 552 -171 q 536 -164 536 -168 l 536 -67 q 538 -5 536 -47 l 543 -2 l 555 -2 l 555 12 q 536 23 536 12 q 541 41 536 30 m 44 -201 l 44 -210 l 90 -210 q 95 -205 95 -210 l 95 -203 l 83 -201 l 44 -201 m 867 630 q 865 602 867 610 l 863 602 l 863 616 q 861 618 863 618 q 859 616 861 618 l 860 611 l 860 608 q 855 587 860 587 l 854 587 q 852 588 852 586 l 852 613 q 851 614 852 614 q 849 613 849 614 l 849 600 q 845 581 849 581 q 835 577 843 581 l 835 573 q 832 570 835 572 l 831 570 q 828 576 829 570 l 826 576 q 823 569 825 576 l 823 569 q 819 575 821 569 q 817 574 817 574 l 819 572 q 816 570 818 572 l 813 570 q 806 595 808 570 l 808 595 l 806 597 q 809 611 807 611 q 812 608 810 611 q 811 604 811 606 q 814 603 812 604 l 815 604 q 817 603 817 604 l 821 604 l 823 604 q 826 611 823 610 l 827 611 l 829 609 l 829 605 l 829 604 l 831 604 q 836 614 833 604 q 841 623 841 614 q 836 629 840 627 l 835 629 l 835 625 l 834 623 l 832 623 q 829 623 831 623 q 826 631 827 631 l 825 631 q 821 623 823 623 l 821 623 q 820 624 820 623 l 818 623 l 812 623 q 810 631 810 624 l 797 630 q 793 631 795 630 l 791 630 q 789 631 789 630 l 783 630 l 749 630 q 741 631 745 630 q 734 630 740 630 q 732 637 732 635 l 731 637 q 722 625 722 637 q 718 619 722 624 l 718 616 q 722 610 718 611 q 725 618 722 618 q 734 614 734 617 q 734 611 734 612 q 736 610 736 610 l 751 610 l 756 610 l 758 608 l 758 587 q 754 577 758 577 l 751 577 q 747 586 749 576 l 748 587 q 747 595 747 592 q 748 597 747 595 l 747 599 l 748 604 l 746 604 l 745 604 l 745 593 q 742 576 745 576 l 739 576 q 739 578 739 576 l 736 576 l 736 576 q 730 587 734 576 l 724 584 q 722 575 722 576 l 721 575 l 720 584 l 720 596 l 716 596 l 716 578 q 713 576 716 576 q 692 606 692 587 q 691 614 691 606 l 691 616 q 708 654 691 647 q 722 661 713 659 q 724 671 722 671 l 732 671 q 734 670 734 670 l 733 668 l 733 665 l 738 665 l 808 665 q 812 658 810 665 q 824 663 824 658 q 826 665 824 665 l 827 665 q 829 658 828 665 l 832 658 q 838 664 835 664 q 863 647 857 659 q 867 630 866 640 m 864 292 l 865 214 q 863 212 865 212 l 861 212 q 859 214 859 212 l 859 230 q 857 231 858 231 l 856 231 l 855 227 l 855 214 q 852 212 855 214 q 851 213 851 212 l 850 212 l 842 212 q 839 235 839 212 l 839 257 q 837 259 838 259 q 833 252 835 259 l 831 251 q 825 258 830 251 l 825 258 l 824 252 l 822 252 q 820 254 820 252 l 820 274 q 819 275 820 275 q 817 274 817 275 l 817 258 q 814 251 817 252 l 811 251 q 808 258 810 251 l 808 258 l 806 258 q 803 258 804 258 q 802 258 802 258 l 798 258 l 794 258 q 791 252 791 258 l 792 222 q 790 220 791 220 q 777 221 781 221 q 770 220 770 220 q 767 229 767 224 l 767 256 q 764 258 767 257 l 760 258 l 755 258 q 753 260 753 260 l 753 291 l 754 293 q 781 292 772 292 l 809 292 q 811 290 811 292 q 810 287 810 288 l 812 286 l 821 286 q 825 292 821 286 l 826 292 l 829 286 l 832 286 q 834 289 834 286 q 833 292 833 291 q 837 296 835 292 l 835 308 l 836 311 l 833 326 l 821 326 q 819 327 819 326 q 825 330 819 330 q 823 332 825 332 l 821 332 q 811 326 817 332 l 809 326 q 807 335 807 329 l 807 346 l 804 346 l 804 336 q 801 325 803 325 l 789 325 q 786 318 788 318 l 783 318 q 780 325 783 318 l 765 325 q 751 326 755 325 q 736 325 745 325 l 722 325 q 717 314 719 325 q 705 315 706 315 l 690 314 l 688 317 l 688 347 q 690 349 688 349 l 715 349 q 720 360 718 349 l 724 359 l 767 359 q 783 355 782 359 q 787 353 783 353 q 789 359 787 359 l 793 359 q 810 361 804 360 q 828 360 817 360 l 835 360 q 836 363 835 363 q 835 363 836 363 l 836 374 l 836 380 q 836 380 836 380 l 836 382 l 836 387 q 834 397 834 395 q 836 401 836 400 l 833 415 l 820 415 q 819 416 819 415 q 825 419 819 419 q 823 421 824 421 l 820 421 q 810 415 817 421 l 808 415 q 807 425 807 418 l 806 435 l 804 435 l 804 425 q 800 415 802 415 l 788 414 q 785 408 787 408 l 783 408 q 779 414 782 408 l 764 414 q 750 415 755 414 q 736 414 745 414 l 721 414 q 716 404 718 414 q 704 404 705 404 l 690 404 q 688 406 688 406 l 688 436 q 690 438 688 438 l 715 438 q 719 450 717 438 l 723 449 l 766 449 q 782 445 782 449 q 786 442 782 442 q 789 449 787 449 l 792 450 q 810 450 804 450 q 828 450 817 450 l 834 450 q 835 452 834 452 q 834 453 835 453 l 835 464 l 835 469 q 840 477 840 473 l 842 478 l 858 478 q 860 476 860 478 l 860 433 l 859 427 q 860 423 860 426 l 860 417 q 859 414 860 414 l 860 410 l 860 395 q 859 389 860 392 q 860 387 860 388 l 861 343 l 859 338 q 861 334 861 336 l 861 328 q 860 325 861 325 l 861 320 l 861 306 q 854 297 861 299 l 845 297 q 844 298 844 297 q 841 297 842 297 l 841 292 l 852 293 l 863 294 l 864 292 m 866 41 l 866 -37 q 865 -39 866 -39 l 862 -39 q 860 -37 860 -39 l 860 -21 q 858 -20 860 -20 l 857 -20 l 857 -24 l 857 -37 q 854 -39 857 -38 q 853 -38 853 -39 l 851 -39 l 843 -39 q 840 -16 840 -39 l 840 6 q 838 8 840 8 q 835 1 836 8 l 833 0 q 827 7 831 0 l 826 7 l 825 1 l 823 1 q 822 3 822 1 l 821 23 q 820 24 821 24 q 818 23 818 24 l 818 7 q 815 0 818 0 l 812 0 q 810 7 811 0 l 809 7 l 808 7 q 805 7 806 7 q 804 7 804 7 l 800 7 l 796 7 q 793 1 793 7 l 793 -28 q 791 -31 793 -31 q 779 -30 783 -30 q 771 -31 772 -31 q 768 -23 768 -27 l 768 5 q 766 7 768 6 l 762 7 l 757 7 q 755 9 755 9 l 755 40 l 755 42 q 783 41 774 41 l 810 41 q 812 39 812 41 q 812 36 812 37 l 813 35 l 823 35 l 827 41 l 827 41 l 831 35 l 834 35 q 836 38 836 35 q 835 41 835 39 q 836 43 836 41 l 843 41 l 854 41 l 865 43 l 866 41 m 862 565 q 861 558 861 560 q 862 557 861 557 l 861 553 l 861 535 q 859 533 861 533 l 830 533 q 827 526 828 533 l 825 526 q 821 533 825 533 l 819 532 q 816 536 816 532 l 805 536 q 796 533 802 533 l 784 532 q 782 534 782 532 l 783 536 l 778 536 q 770 532 778 532 l 768 532 q 745 533 762 532 q 732 532 737 532 q 730 544 730 536 l 730 565 q 731 567 730 567 l 823 568 q 825 560 825 568 l 826 560 q 829 568 827 568 l 859 568 q 862 565 861 568 m 862 512 l 861 506 l 861 481 q 860 480 861 480 l 829 479 q 826 473 828 473 q 823 479 825 479 l 778 479 q 775 491 775 479 l 775 505 q 773 507 775 507 l 772 507 l 772 503 l 772 481 q 770 479 772 479 l 766 479 q 765 480 765 479 l 763 479 l 731 479 q 726 481 726 479 q 719 473 719 479 q 720 470 720 471 l 719 470 q 690 494 698 470 q 687 516 688 500 q 713 554 687 545 l 718 555 l 718 558 q 722 567 718 565 l 724 567 q 727 564 726 567 l 727 542 q 721 530 727 532 q 714 513 719 522 l 714 512 q 717 505 714 510 l 720 505 l 720 512 q 721 513 720 513 l 722 513 q 724 512 724 512 l 823 513 q 826 507 826 513 l 827 507 q 827 508 827 508 l 827 510 l 827 511 q 828 513 827 513 l 852 513 q 856 513 854 513 l 858 513 q 861 513 859 513 q 862 512 861 512 m 859 916 q 852 882 859 892 q 838 869 848 877 q 833 860 838 862 q 827 868 833 860 l 827 879 q 825 881 827 881 l 823 880 l 823 868 q 817 865 822 865 q 807 866 813 865 q 800 865 805 866 q 795 867 795 865 l 795 888 q 793 889 795 889 l 791 889 l 791 876 q 789 865 791 865 q 783 859 785 865 l 779 858 l 777 861 q 779 863 779 863 q 776 865 778 863 l 730 865 q 716 866 725 865 q 715 859 715 863 l 715 857 l 718 859 l 766 859 l 771 860 l 773 859 q 777 860 774 860 q 783 852 779 852 l 784 852 l 784 857 q 787 859 784 858 l 788 859 q 790 857 790 859 l 789 852 q 790 848 790 850 l 789 848 l 790 846 l 790 840 q 784 822 790 822 q 782 817 784 817 l 779 817 q 777 825 778 817 l 761 825 q 756 825 758 825 l 751 824 l 723 824 q 715 812 715 824 q 709 806 709 807 l 709 803 q 714 797 713 797 l 715 797 l 715 804 l 715 806 l 720 804 l 776 805 q 780 797 778 805 l 784 797 l 784 800 q 787 805 784 804 l 823 805 q 829 808 826 805 l 833 805 q 833 808 833 806 q 824 824 830 824 q 816 825 819 824 q 808 825 811 825 l 804 825 l 800 829 q 798 825 800 825 l 796 825 q 793 846 793 825 l 793 857 q 797 860 793 859 l 802 859 l 819 859 q 831 852 831 859 q 834 850 831 851 l 836 850 q 839 855 836 854 q 859 820 859 845 q 839 775 860 782 q 836 766 838 768 q 840 764 840 766 l 842 766 l 856 766 q 858 764 858 765 l 858 717 q 839 678 859 686 q 838 680 839 680 q 829 675 838 677 l 828 682 l 828 698 q 829 699 828 699 q 827 709 827 702 q 833 724 833 720 l 832 730 l 829 730 q 827 723 828 730 l 826 723 q 825 724 825 723 l 823 723 q 820 730 823 723 l 818 730 q 814 723 817 723 l 806 723 l 802 730 l 748 729 l 743 730 q 739 729 741 729 l 728 729 q 726 736 726 730 l 717 736 q 712 726 717 726 l 712 720 q 715 709 712 709 q 718 718 715 718 q 728 710 728 715 l 728 709 l 795 709 q 799 709 798 709 l 801 709 q 806 701 805 709 l 811 701 l 817 703 l 817 707 q 819 709 817 709 l 820 709 q 825 701 821 707 l 825 669 q 823 668 825 668 q 821 674 821 670 l 819 674 q 809 667 819 667 l 806 667 q 802 674 804 667 l 741 673 q 741 674 741 673 l 739 673 l 738 673 q 726 677 726 673 q 718 682 726 682 l 714 671 q 709 693 709 671 l 706 692 l 706 679 q 703 676 706 677 q 686 714 687 684 l 686 758 q 688 761 688 760 l 694 760 l 711 760 l 711 761 q 705 763 708 761 q 705 787 705 779 l 704 798 l 705 799 q 703 800 704 799 l 702 798 l 702 779 q 701 769 702 775 q 702 766 702 767 l 699 764 q 683 807 683 778 q 701 842 683 833 q 715 848 713 848 l 715 856 q 705 859 709 856 q 704 882 704 875 l 704 893 l 705 895 q 702 896 704 895 l 701 894 l 701 875 q 701 865 701 871 q 701 862 701 863 l 699 861 q 682 903 682 874 q 701 939 682 928 q 714 944 713 944 l 714 951 q 717 954 714 953 l 766 955 l 771 956 l 772 955 q 776 956 774 956 q 783 948 778 948 l 783 948 l 783 952 q 786 955 783 954 l 787 955 q 789 953 789 955 l 789 948 q 789 943 789 946 l 789 943 l 789 941 l 789 935 q 783 918 789 918 q 782 913 783 913 l 779 913 q 777 920 777 913 l 760 920 q 756 921 758 920 l 751 920 l 722 920 q 714 908 714 920 q 709 902 709 903 l 709 899 q 713 892 713 892 l 714 892 l 714 899 l 715 901 l 720 901 l 776 901 q 779 892 778 901 l 783 892 l 783 895 q 786 901 783 900 l 823 901 q 829 904 825 901 l 832 901 q 833 904 832 902 q 823 920 829 920 q 815 922 819 920 q 807 920 810 920 l 804 920 q 800 925 803 920 q 797 920 799 920 l 795 920 q 792 941 792 920 l 792 953 q 796 956 792 954 l 801 955 l 819 955 l 819 957 l 819 978 q 818 982 819 980 l 823 994 q 856 987 856 991 l 856 982 q 854 959 856 964 q 822 960 840 960 l 821 955 q 831 947 831 955 l 833 945 l 836 945 q 838 951 836 950 q 859 916 859 941 m 865 -89 q 849 -129 865 -121 l 848 -129 q 844 -118 847 -118 q 843 -121 844 -119 l 844 -123 q 843 -125 844 -123 l 844 -130 q 840 -140 843 -140 l 838 -140 q 836 -135 838 -140 q 835 -134 835 -135 q 820 -136 828 -136 l 818 -136 q 817 -134 817 -136 l 816 -104 q 818 -102 816 -102 l 819 -102 q 836 -100 829 -102 q 838 -102 836 -101 q 839 -101 838 -101 q 836 -94 839 -98 q 836 -90 836 -92 q 822 -83 833 -83 q 799 -93 807 -85 q 789 -110 789 -101 q 785 -114 786 -114 l 783 -114 l 783 -113 l 784 -111 l 783 -111 q 732 -136 760 -136 q 722 -136 726 -136 q 720 -143 720 -139 l 720 -144 l 718 -144 l 717 -136 l 717 -119 q 715 -117 716 -117 l 714 -117 l 714 -119 q 713 -143 714 -126 q 711 -144 711 -144 q 699 -136 703 -141 l 699 -135 q 702 -133 699 -133 l 692 -125 l 688 -103 q 704 -66 688 -75 l 705 -66 q 707 -67 707 -66 l 707 -86 l 706 -91 q 709 -92 708 -92 l 709 -90 l 709 -65 q 719 -60 709 -62 q 722 -49 720 -49 l 732 -49 q 739 -47 734 -49 q 743 -50 743 -49 l 743 -67 q 740 -81 743 -81 q 732 -81 737 -81 q 720 -89 720 -81 q 715 -98 720 -96 q 715 -102 715 -100 l 715 -103 q 720 -109 718 -109 l 720 -100 l 732 -102 q 781 -64 747 -102 l 782 -64 q 784 -68 784 -64 l 785 -68 q 790 -58 789 -68 q 820 -48 803 -48 q 837 -54 837 -48 q 839 -58 837 -58 l 842 -58 q 844 -52 842 -52 q 865 -89 865 -62 m 861 201 l 861 157 q 849 121 862 130 l 845 121 q 840 110 841 110 l 839 112 l 838 141 q 837 142 838 142 l 836 142 l 835 138 l 835 128 q 831 114 835 114 q 829 113 831 114 q 826 114 827 114 q 825 113 825 114 l 821 114 l 808 114 q 790 116 802 114 l 789 111 l 787 111 q 785 119 786 117 l 786 125 q 785 127 786 125 l 786 133 l 785 137 l 783 137 q 782 135 783 135 l 783 134 l 783 131 l 782 122 l 781 122 q 776 129 776 125 l 774 129 q 758 117 764 117 l 757 118 l 757 151 l 760 164 q 759 167 759 166 l 753 167 q 751 181 751 167 l 749 181 q 743 172 745 181 q 745 168 745 170 l 743 167 l 724 167 l 722 168 q 719 161 719 163 q 720 158 720 160 l 719 156 q 703 157 707 157 q 691 156 692 156 q 690 159 690 158 l 689 189 q 691 191 691 191 l 695 191 l 703 191 q 707 191 705 191 q 711 191 709 191 l 712 191 l 717 192 q 718 191 717 191 l 720 202 l 722 201 l 772 201 q 775 203 774 201 l 777 201 q 781 203 779 203 l 783 199 l 783 197 l 783 195 l 784 195 l 789 195 l 789 200 q 790 202 789 202 l 833 202 q 836 197 836 200 q 836 196 836 197 l 838 195 l 839 195 l 842 197 l 841 199 l 841 200 q 842 202 841 202 l 859 202 q 861 201 861 202 m 855 1092 l 855 1081 q 854 1063 855 1076 l 852 1063 l 852 1069 q 851 1071 852 1071 q 846 1069 847 1069 l 846 1063 q 843 1061 846 1062 l 840 1061 l 831 1060 q 827 1069 828 1069 q 823 1059 824 1069 q 821 1055 821 1059 q 822 1053 822 1054 l 820 1052 l 817 1058 l 814 1058 l 808 1057 l 808 1058 q 762 1053 791 1055 l 762 1051 q 819 1044 819 1048 l 819 1040 l 821 1040 l 821 1046 q 854 1044 847 1044 q 855 1039 855 1041 q 854 1009 855 1034 q 852 1008 853 1008 q 821 1003 821 1008 q 822 1000 822 1001 l 819 998 q 817 1005 818 1005 q 762 1001 780 1001 q 761 1009 761 1006 l 760 1030 q 762 1031 760 1031 q 759 1035 760 1035 l 757 1035 l 757 1029 q 758 1025 757 1027 q 757 1022 757 1024 q 758 1013 757 1021 l 757 1013 q 758 1013 757 1013 l 757 1008 l 758 989 q 758 979 758 985 l 756 969 l 715 973 q 712 963 713 970 l 710 963 q 692 971 692 963 l 692 991 q 690 992 692 992 q 689 991 689 992 l 689 976 q 686 966 689 966 q 684 976 684 966 l 684 1008 q 685 1010 684 1010 q 688 1009 688 1010 q 713 1015 713 1013 l 713 1017 q 684 1022 713 1019 l 684 1031 l 683 1064 q 686 1067 683 1065 q 712 1072 713 1068 l 711 1074 q 723 1082 711 1081 l 771 1087 l 772 1086 q 817 1093 783 1088 q 819 1087 819 1089 l 821 1087 l 820 1089 q 854 1095 820 1095 q 855 1092 855 1094 m 843 393 l 842 393 l 842 391 l 843 391 l 843 393 m 844 303 l 843 303 l 843 302 l 844 302 l 844 303 m 839 683 l 836 683 l 836 682 l 839 682 l 839 683 m 835 167 l 830 168 l 802 168 l 798 172 l 798 172 l 794 168 q 788 165 791 168 l 789 163 l 789 162 q 785 157 785 159 q 787 146 785 155 l 789 146 l 789 151 l 791 151 q 797 147 795 151 l 797 129 q 799 127 797 127 l 800 129 l 800 146 q 802 149 800 147 l 825 149 q 837 157 837 152 q 835 167 835 160 m 828 772 l 827 783 q 826 785 827 785 l 823 785 l 823 772 q 817 770 823 770 q 807 770 813 770 q 800 768 806 770 q 795 771 795 770 l 795 791 q 794 793 795 793 l 792 793 l 792 780 q 789 770 792 770 q 784 764 784 769 l 791 764 l 802 765 q 806 758 806 758 l 812 758 q 818 764 818 758 l 820 764 q 823 762 821 764 l 821 760 q 823 758 823 758 l 827 758 l 827 763 q 832 766 828 765 q 828 772 831 768 m 826 924 l 823 924 l 823 922 l 826 922 l 826 924 m 827 828 l 824 828 l 824 827 l 827 827 l 827 828 m 819 752 l 817 751 l 818 745 l 818 734 l 821 734 l 821 750 q 819 752 821 752 m 819 991 l 819 989 q 814 985 818 987 l 815 983 q 814 983 815 983 l 815 981 q 814 963 815 975 l 774 967 l 770 967 q 770 968 770 967 l 768 967 l 766 967 q 763 973 763 968 l 762 985 q 761 995 762 986 l 761 996 q 764 998 761 997 q 819 991 819 995 m 821 650 l 818 650 q 817 646 818 650 l 818 637 l 821 637 l 821 650 m 822 -78 q 821 -80 821 -79 l 824 -80 q 822 -78 823 -78 m 811 1072 l 808 1072 l 808 1069 l 811 1069 l 811 1072 m 779 768 l 777 770 l 726 769 l 726 765 l 756 765 q 778 764 764 765 q 779 768 779 767 m 778 747 l 777 747 l 774 747 l 776 740 l 776 739 l 777 739 q 779 740 779 739 l 779 743 l 778 747 m 772 420 l 763 420 l 763 419 l 770 418 l 771 419 q 774 418 773 418 q 772 420 774 420 m 772 330 l 764 330 l 764 330 l 770 328 l 772 330 q 774 328 774 328 q 772 330 774 330 m 751 420 l 751 418 l 753 417 l 753 417 l 753 418 q 751 420 753 420 m 752 330 l 751 328 l 753 328 l 754 328 l 754 328 q 752 330 753 330 m 752 500 l 750 500 q 749 498 749 500 q 750 497 749 497 q 752 498 752 497 l 752 500 m 753 150 l 753 121 q 751 114 753 115 l 747 114 l 739 113 q 736 126 738 114 q 737 127 737 126 l 736 128 l 734 128 l 734 127 q 731 113 734 113 l 727 113 l 722 113 q 718 102 721 112 l 716 102 l 712 103 q 709 102 711 103 q 705 103 708 102 q 690 100 694 100 l 690 102 l 690 133 q 696 136 691 136 l 705 136 q 719 140 719 136 q 722 148 719 148 l 743 149 q 753 150 745 149 m 750 291 l 750 259 l 749 258 l 739 259 q 738 258 739 258 q 736 258 736 258 l 735 257 q 731 264 733 257 l 725 264 q 721 254 722 264 l 718 254 q 718 240 718 245 l 718 210 q 715 208 718 208 l 709 208 q 709 208 709 208 l 707 208 l 703 208 l 701 208 l 699 208 l 694 208 q 692 217 692 211 l 692 288 l 693 289 l 699 288 l 711 288 q 722 294 722 288 q 724 300 722 299 q 727 299 725 300 l 732 300 l 733 298 l 733 293 q 734 292 734 293 l 739 293 l 748 293 q 750 291 750 293 m 751 40 l 751 8 l 751 6 l 741 8 q 739 6 741 6 q 739 7 739 6 l 736 6 q 733 14 734 6 l 726 14 q 722 3 724 14 l 720 3 q 719 -11 719 -6 l 719 -41 q 718 -43 719 -43 l 711 -43 q 710 -43 710 -43 l 708 -43 l 704 -43 l 702 -43 l 701 -43 l 696 -43 q 694 -34 694 -40 l 694 36 l 694 38 l 701 37 l 712 37 q 723 43 723 37 q 726 49 723 48 q 728 48 726 49 l 734 49 l 734 47 l 734 42 q 736 41 736 42 l 741 42 l 749 42 q 751 40 751 41 m 734 679 q 732 677 732 678 l 737 676 l 740 676 q 734 679 739 679 m 734 1027 q 714 1028 726 1028 l 713 1028 l 713 1025 q 715 1023 713 1023 q 734 1025 730 1025 l 734 1027 m 738 -76 l 730 -76 l 730 -77 l 732 -79 q 738 -78 735 -78 l 738 -76 m 730 642 l 728 642 l 728 640 l 730 641 l 730 642 m 730 270 l 728 270 l 728 269 l 730 269 l 730 270 m 731 19 l 729 19 l 729 18 l 731 18 l 731 19 m 723 742 l 721 742 q 722 740 721 740 l 723 740 l 723 742 m 728 -131 l 724 -132 l 724 -132 l 728 -132 l 728 -131 m 725 172 l 722 171 l 722 170 l 723 170 q 725 172 725 170 m 718 90 l 718 79 q 714 62 718 62 l 698 62 q 694 54 696 62 l 692 54 q 690 61 690 54 l 690 86 q 695 95 695 91 l 707 95 l 715 96 q 718 90 718 93 m 705 -134 l 703 -134 q 705 -136 703 -136 l 706 -136 q 705 -134 706 -134 z "},"$":{"ha":688,"x_min":0,"x_max":0,"o":""},"%":{"ha":1092,"x_min":0,"x_max":0,"o":""},"&":{"ha":1141,"x_min":0,"x_max":0,"o":""},"'":{"ha":235,"x_min":0,"x_max":0,"o":""},"(":{"ha":441,"x_min":20,"x_max":414,"o":"m 300 1009 q 321 1004 314 1004 q 338 1006 323 1004 q 351 993 345 1006 q 349 955 349 970 l 349 941 q 346 939 349 939 l 349 933 q 343 901 349 901 q 349 884 349 890 q 340 873 345 873 l 330 873 q 237 827 237 866 q 224 822 237 822 l 224 817 q 243 803 237 817 q 275 795 275 800 l 275 789 q 235 776 275 781 q 229 735 229 741 q 232 727 229 732 q 229 722 232 722 q 232 681 232 694 l 232 187 q 218 179 232 181 q 213 184 218 184 q 208 179 208 184 l 208 176 q 216 171 208 171 l 221 174 q 240 149 235 174 q 302 133 290 138 q 349 103 318 103 q 414 90 408 96 q 408 -8 411 22 q 411 -30 411 -18 l 403 -35 q 392 -33 393 -33 q 357 -41 373 -41 q 251 -38 342 -41 q 161 -3 161 -20 q 110 65 110 28 q 88 133 100 83 q 72 138 79 138 l 45 138 q 23 152 30 138 q 26 176 23 161 q 23 206 23 200 q 26 217 23 217 q 23 263 23 249 l 23 722 q 26 724 23 724 q 20 738 23 738 q 37 787 20 787 q 58 792 58 787 q 23 814 23 792 l 23 819 q 61 939 37 909 q 208 1006 111 1006 l 283 1006 l 300 1009 m 327 903 l 327 895 l 332 895 l 332 898 q 327 903 332 903 z "},")":{"ha":410,"x_min":20,"x_max":416,"o":"m 39 1009 l 58 1006 l 113 1006 q 248 985 214 1006 q 321 922 290 974 q 338 873 338 905 q 330 865 338 869 l 294 865 q 273 863 283 865 q 251 865 262 865 l 240 865 q 235 860 235 865 l 235 849 l 248 846 l 267 846 q 340 844 290 846 q 373 800 349 800 q 395 792 395 799 l 395 789 q 357 779 395 785 q 351 762 357 774 q 354 760 351 760 q 327 686 354 702 q 324 675 324 682 l 324 670 q 330 665 325 665 l 332 665 q 340 670 334 665 l 343 670 q 351 659 351 670 l 349 632 l 354 610 q 349 589 349 600 l 349 391 q 351 366 349 376 q 349 339 349 352 l 349 193 q 340 184 349 189 q 330 187 336 187 l 327 182 l 327 168 l 340 168 q 395 138 366 138 l 408 141 q 416 122 416 127 q 384 100 408 100 l 332 100 q 324 98 324 100 l 311 100 l 199 100 q 189 81 189 96 q 205 76 197 76 l 275 76 q 308 79 294 76 l 384 73 l 389 76 q 400 68 400 72 l 400 65 q 359 19 377 19 q 286 14 333 14 l 170 14 q 159 3 165 14 l 159 0 q 164 -5 159 -5 l 294 -5 q 305 -8 300 -5 q 313 -5 311 -5 l 319 -14 q 121 -41 283 -41 q 88 -33 99 -41 q 91 19 91 4 q 88 71 91 34 q 107 100 88 100 l 134 100 q 194 133 194 109 l 183 138 l 178 136 q 137 160 137 136 q 142 174 142 169 q 140 179 142 179 l 142 206 l 142 581 q 140 621 142 597 q 142 654 142 629 l 142 681 q 140 773 142 717 q 153 789 140 779 l 172 787 l 186 787 l 186 795 q 178 798 183 795 l 151 795 q 129 844 141 804 q 37 868 113 868 q 23 879 37 870 l 26 906 l 26 914 q 23 949 26 932 q 26 971 26 960 q 20 998 26 974 l 39 1009 m 354 49 l 354 43 l 357 43 q 365 52 361 43 l 365 54 l 359 54 q 354 49 354 54 z "},"*":{"ha":694,"x_min":0,"x_max":0,"o":""},"+":{"ha":688,"x_min":0,"x_max":0,"o":""},",":{"ha":378,"x_min":70,"x_max":319,"o":"m 89 170 q 92 167 92 170 l 105 170 l 208 170 q 254 164 218 170 l 260 167 q 276 134 276 167 l 276 118 q 254 104 269 104 l 254 107 q 205 102 241 102 l 111 102 q 86 99 101 102 q 70 115 78 99 q 73 126 73 125 q 70 161 70 144 q 89 170 82 170 m 86 80 l 249 80 q 273 69 270 80 l 273 66 l 271 50 q 290 37 271 43 q 298 39 295 39 q 319 23 316 32 l 319 18 q 287 -50 307 9 q 273 -77 281 -51 q 246 -137 261 -97 l 235 -142 q 216 -140 224 -140 q 189 -145 199 -145 l 173 -142 q 151 -145 163 -145 q 132 -132 140 -145 l 176 -1 q 113 15 113 3 q 78 34 113 31 l 70 45 l 70 58 q 73 61 70 61 l 70 66 l 70 72 q 86 80 73 80 m 238 -77 q 235 -85 238 -80 q 238 -94 238 -91 l 243 -94 l 246 -80 l 246 -77 l 238 -77 z "},"-":{"ha":454,"x_min":0,"x_max":0,"o":""},".":{"ha":378,"x_min":62,"x_max":314,"o":"m 83 165 l 203 165 q 262 152 262 163 q 265 141 265 147 q 262 103 262 107 q 265 92 262 102 q 262 90 265 90 l 265 71 l 265 60 q 262 49 265 54 q 281 33 263 41 l 287 35 q 314 22 300 35 l 314 16 q 249 0 309 0 q 219 3 225 3 l 205 0 q 197 3 203 0 q 159 0 174 0 l 124 0 q 97 24 110 0 q 67 35 67 24 q 64 49 64 40 l 64 122 q 62 146 64 132 q 83 165 62 163 z "},"/":{"ha":560,"x_min":20,"x_max":549,"o":"m 376 1013 l 514 1013 q 549 1002 549 1013 q 519 962 534 966 l 517 962 q 511 972 517 972 l 509 972 q 503 959 509 968 q 519 948 519 951 l 519 945 q 500 888 519 918 q 479 842 488 842 q 471 840 476 842 l 460 845 q 433 837 446 837 l 351 837 q 327 840 342 837 q 313 837 322 837 q 297 853 297 844 q 327 921 313 879 q 359 1008 334 928 q 376 1013 368 1013 m 514 991 l 514 986 l 517 986 l 517 991 l 514 991 m 343 818 q 365 815 363 815 q 389 818 380 818 q 397 815 392 818 l 414 818 q 444 810 423 818 q 463 815 454 815 q 468 807 463 814 l 468 799 q 444 766 468 778 q 403 764 427 766 q 362 766 376 766 l 335 764 q 292 766 319 766 q 281 764 286 766 q 267 777 267 768 q 294 815 289 815 q 343 818 311 815 m 267 745 q 302 742 269 745 l 389 745 q 416 739 410 739 q 433 742 431 742 q 444 734 444 738 l 400 633 q 370 552 370 560 q 338 484 359 518 q 286 346 338 467 q 262 292 286 336 q 216 172 262 270 l 216 170 q 245 145 216 151 l 248 145 l 264 151 q 270 134 270 142 q 221 9 245 85 q 194 -28 209 -28 l 142 -34 q 140 -31 140 -34 l 107 -34 l 72 -34 q 47 -31 62 -34 q 31 -34 43 -34 q 20 -26 20 -30 l 20 -15 l 83 140 q 26 156 26 147 l 26 164 q 80 297 37 180 q 94 330 85 297 q 123 406 109 363 q 153 484 127 406 q 229 666 222 659 q 254 739 254 736 q 267 745 267 739 m 357 604 l 357 598 q 362 593 357 593 l 362 604 l 357 604 m 251 316 l 251 308 l 254 308 l 254 316 l 251 316 z "},":":{"ha":378,"x_min":0,"x_max":0,"o":""},";":{"ha":378,"x_min":0,"x_max":0,"o":""},"<":{"ha":688,"x_min":0,"x_max":0,"o":""},"=":{"ha":688,"x_min":0,"x_max":0,"o":""},">":{"ha":688,"x_min":0,"x_max":0,"o":""},"?":{"ha":566,"x_min":20,"x_max":593,"o":"m 297 1061 q 408 1039 408 1055 l 408 1036 q 349 1034 368 1034 l 305 1034 q 262 1036 290 1034 q 251 1028 251 1032 l 251 1025 q 292 1012 251 1017 q 368 1015 333 1015 l 425 1015 q 465 1001 433 1015 q 495 977 495 1001 q 533 911 533 937 q 563 838 547 838 l 568 841 l 587 841 q 593 836 593 840 l 593 827 q 587 822 593 822 l 560 822 q 549 781 557 822 q 552 765 549 779 q 541 694 547 759 q 525 648 528 661 l 528 643 q 511 616 528 638 q 481 570 498 570 q 454 515 481 550 l 400 437 q 365 358 386 415 l 354 353 q 346 355 346 353 q 292 353 309 353 l 202 353 q 194 345 198 353 l 194 339 l 199 331 q 213 334 208 331 q 270 331 248 331 l 308 334 q 330 326 330 328 q 354 331 342 331 l 359 323 q 354 266 359 313 q 359 244 359 256 q 305 233 356 239 l 305 231 l 286 233 l 205 233 l 189 231 q 164 277 164 231 q 161 307 161 295 q 186 431 167 379 q 259 553 224 512 q 340 817 340 666 l 354 827 l 362 827 q 365 825 365 827 q 378 827 370 827 l 378 836 l 365 838 q 357 836 362 838 q 330 873 337 836 q 278 903 299 903 q 243 879 243 899 q 232 865 241 879 l 232 846 q 240 838 232 842 l 251 841 q 264 833 264 838 q 227 817 264 827 l 213 757 l 224 738 l 224 727 q 208 719 221 719 q 191 724 203 719 q 159 713 171 713 l 153 716 q 121 692 132 716 l 42 692 q 20 705 29 692 l 23 724 l 23 808 q 58 827 23 827 q 64 833 64 827 q 28 841 60 838 l 26 846 l 26 863 q 69 968 51 968 q 153 1042 118 1042 q 216 1058 193 1058 q 297 1061 254 1058 m 191 792 q 189 751 189 765 q 194 746 189 746 q 202 760 202 755 q 194 787 194 775 q 197 789 197 787 l 191 792 m 495 640 q 492 635 495 635 q 495 627 495 629 l 503 627 l 503 635 q 498 640 503 640 l 495 640 m 471 589 q 468 578 471 587 l 473 575 l 476 581 l 476 589 l 471 589 m 245 165 l 335 165 q 430 157 422 165 q 427 76 427 103 l 427 35 q 433 14 427 33 q 419 3 427 3 q 359 0 407 3 q 357 3 357 0 l 343 0 l 262 0 q 251 3 256 0 q 240 0 246 0 q 227 19 227 4 q 229 100 229 73 l 227 114 q 229 125 229 119 l 227 149 q 245 165 227 165 z "},"@":{"ha":1071,"x_min":34,"x_max":1043,"o":"m 514 1061 l 682 1061 q 837 1025 715 1061 q 943 944 889 1006 q 964 914 951 944 q 994 863 977 914 q 1021 795 1005 863 q 1032 776 1032 791 l 1027 768 q 945 765 972 765 l 921 765 q 916 760 916 764 l 916 751 q 924 743 916 747 l 935 743 q 945 746 941 743 q 967 741 967 743 q 975 743 972 743 q 1040 730 1040 741 q 1038 705 1040 720 q 1040 667 1040 688 l 1040 665 q 1016 651 1040 659 l 1016 648 q 1027 637 1020 648 l 1032 640 q 1043 600 1041 640 l 1040 589 q 1043 586 1040 586 q 1016 404 1043 479 q 1010 385 1016 393 l 1013 369 q 918 361 1004 361 q 910 358 916 361 q 899 361 905 361 q 886 345 886 361 q 891 339 886 339 l 921 339 q 978 336 943 339 q 986 339 983 339 l 991 331 l 991 328 q 975 298 991 321 q 815 155 920 192 q 707 144 800 146 l 701 146 l 696 144 q 595 190 627 144 l 593 190 l 528 160 q 476 155 481 155 l 430 155 q 343 187 365 155 q 294 312 318 187 q 297 393 297 360 l 297 401 q 300 412 297 408 l 297 418 q 308 480 305 425 q 324 605 313 480 q 411 743 352 690 q 490 760 439 754 q 612 735 604 755 l 623 735 q 642 754 623 747 q 688 751 673 751 l 810 751 q 818 743 814 751 q 804 732 817 738 q 793 735 800 735 q 788 730 793 730 l 791 724 l 791 697 q 796 692 791 692 q 804 694 802 694 l 810 681 l 807 667 l 810 648 q 793 521 803 641 q 788 499 788 521 l 791 480 q 780 415 780 420 l 783 410 q 774 380 774 384 l 777 366 q 772 339 774 344 q 774 328 774 334 l 774 326 q 769 309 774 318 q 774 296 774 300 l 791 296 q 826 345 826 336 q 859 439 835 345 q 875 600 875 532 l 875 624 q 842 792 875 718 q 793 857 793 856 q 709 906 762 886 q 590 930 642 930 q 425 882 520 930 q 378 852 412 871 l 349 817 q 302 749 313 772 q 278 697 288 749 q 248 610 262 675 q 218 434 236 610 q 224 420 224 425 q 218 388 218 401 q 270 149 218 246 q 349 130 295 130 q 411 60 371 83 q 530 3 435 31 l 609 -5 q 812 46 700 -5 q 894 92 857 68 l 897 92 q 913 68 907 68 q 937 84 922 84 q 943 73 943 77 q 926 3 943 66 q 932 -33 932 -22 l 932 -35 q 907 -60 928 -60 q 815 -100 900 -75 q 690 -130 815 -115 q 568 -136 664 -133 q 365 -103 478 -136 l 292 -62 q 175 62 197 14 q 148 119 167 71 q 77 136 148 130 q 34 407 34 241 l 34 412 q 80 692 34 543 q 145 827 122 789 q 340 1009 234 958 q 452 1050 376 1032 l 514 1061 m 948 917 l 948 903 l 954 903 l 954 917 l 948 917 m 978 852 l 978 844 l 981 844 l 981 852 l 978 852 m 227 659 l 224 646 l 224 640 q 229 635 224 635 q 237 654 237 645 q 232 659 237 659 l 227 659 m 498 507 l 498 488 q 454 477 498 483 l 422 477 q 414 469 418 477 l 414 461 q 433 453 414 456 q 435 456 435 453 l 463 453 l 492 453 q 498 448 498 452 q 487 366 492 432 q 530 301 487 311 l 533 301 q 579 353 579 319 q 598 461 590 353 q 612 499 602 499 l 699 499 l 715 502 q 728 499 720 499 l 742 499 q 750 515 750 502 q 734 521 741 521 l 612 521 l 604 526 l 606 553 q 563 605 606 593 l 557 605 q 503 526 517 605 q 498 507 498 526 m 151 423 q 164 412 152 418 q 172 415 170 415 q 199 410 193 410 q 205 426 205 418 l 202 439 l 197 439 q 151 423 151 433 m 709 396 q 718 391 711 396 l 753 391 q 764 407 764 396 q 761 415 761 412 l 747 415 q 709 399 709 415 l 709 396 m 745 347 l 742 342 l 742 331 q 747 326 743 326 l 750 326 l 750 342 q 745 347 750 347 m 899 -22 l 899 -27 l 902 -27 q 910 -24 907 -24 l 910 -11 q 899 -22 906 -11 z "},"A":{"ha":623,"x_min":-26,"x_max":630,"o":"m 172 1050 l 359 1050 l 375 1047 l 380 1050 q 424 1047 408 1047 l 429 1047 q 443 993 441 1047 q 456 914 453 966 q 467 873 465 914 q 513 860 475 867 q 519 838 513 846 q 481 822 519 825 q 475 808 475 813 q 494 800 486 800 l 513 800 q 527 779 527 793 q 505 768 523 768 l 505 762 q 532 741 532 762 l 532 722 q 497 713 532 716 l 492 703 q 508 632 492 691 q 511 575 511 585 q 527 510 518 575 q 505 505 517 505 l 418 505 q 410 496 414 505 l 410 488 q 418 480 410 484 l 486 480 q 535 461 535 480 q 559 312 535 391 q 557 309 559 309 l 559 296 l 559 282 l 557 269 q 568 258 561 269 l 568 255 q 551 247 565 247 l 532 247 q 511 228 517 228 q 503 231 505 231 l 500 225 l 500 220 q 508 203 502 203 q 522 214 508 208 l 524 214 q 554 184 540 184 q 592 165 592 179 q 606 141 606 150 q 616 81 612 98 q 606 57 612 57 l 592 62 q 554 54 574 54 l 489 54 q 481 46 485 54 q 489 35 485 35 l 573 35 q 603 30 576 35 l 616 33 q 630 11 630 18 q 570 0 621 6 l 551 3 l 538 0 q 522 3 524 3 l 503 0 q 473 3 479 3 l 440 0 l 440 3 l 435 0 l 432 0 q 410 14 417 0 l 413 38 q 391 157 405 68 l 391 174 q 383 182 391 176 q 375 179 378 179 q 261 193 356 179 q 193 190 220 190 l 191 184 q 199 168 193 168 l 204 168 l 212 174 l 220 174 q 229 165 224 174 l 207 49 l 207 14 q 188 3 207 7 l 182 5 q 142 0 148 0 q 106 3 140 0 q 71 0 105 3 l 58 3 q 50 0 52 0 l 39 3 l 25 0 q 6 11 6 4 l 25 98 q 31 155 25 109 l 31 171 q 22 179 31 175 l -7 179 q -26 190 -22 179 l -26 193 q -21 222 -21 219 l -21 225 q -24 236 -21 231 q 22 252 -24 251 q 39 271 28 269 l 55 269 q 68 279 67 274 q 36 290 68 288 q 31 298 31 297 l 31 301 q 58 472 58 432 q 79 575 79 568 q 77 591 79 577 l 93 670 l 90 675 q 112 724 90 703 l 131 722 l 136 722 q 155 789 143 722 q 153 798 153 795 l 125 798 q 115 808 121 798 l 115 817 q 134 830 123 830 q 155 827 149 827 q 163 846 163 840 q 150 860 163 854 q 139 857 145 857 q 123 871 123 867 q 150 1039 150 1013 q 172 1050 161 1050 m 416 998 l 416 990 l 429 987 l 432 993 l 432 998 l 427 1006 q 416 998 416 1002 m 432 911 l 437 909 l 440 909 l 440 917 l 437 917 q 432 911 432 916 m 275 694 l 277 667 l 277 665 q 275 654 277 659 q 277 651 275 651 q 261 548 275 607 l 242 401 l 237 401 q 226 423 230 401 l 229 434 q 226 442 226 439 l 223 442 q 218 437 218 441 l 218 374 q 229 369 218 369 l 229 355 q 223 350 229 350 l 218 350 l 204 353 l 201 347 l 267 336 q 283 339 269 336 q 291 336 286 339 q 315 339 306 339 l 337 339 q 342 345 342 339 q 296 675 304 585 q 283 694 293 675 l 275 694 m 475 673 l 475 643 q 484 621 475 623 l 486 627 l 486 648 q 489 667 489 660 q 475 673 484 667 m 530 317 l 530 307 l 532 307 l 532 317 l 530 317 m 530 301 l 530 296 l 532 296 l 532 301 l 530 301 m 505 195 l 505 193 l 511 193 l 511 195 l 505 195 z "},"B":{"ha":607,"x_min":-14,"x_max":613,"o":"m 52 1016 l 285 1016 q 288 1013 288 1016 l 293 1016 l 296 1016 q 521 943 473 1016 q 559 861 536 937 q 578 829 559 842 q 600 831 593 831 q 613 821 612 826 l 613 807 q 578 788 613 788 l 570 777 q 586 766 572 766 l 605 766 q 613 755 613 766 q 610 712 613 740 l 613 699 q 570 680 613 682 q 537 585 562 671 q 510 555 533 585 q 469 530 497 550 l 469 522 q 537 479 499 513 q 526 471 537 471 q 507 473 518 471 q 480 471 493 471 l 475 471 q 464 473 464 471 l 445 471 l 374 471 q 358 460 358 471 q 377 446 362 446 l 548 446 q 570 416 570 431 l 570 389 q 562 370 570 380 l 562 359 l 575 362 q 586 297 582 362 q 583 251 583 276 l 583 240 q 589 218 583 237 q 559 213 578 213 l 548 213 l 543 194 l 543 161 q 591 140 543 151 l 591 137 l 589 132 q 594 115 594 123 q 570 61 581 97 q 543 31 565 61 q 461 20 534 20 q 420 26 420 20 l 388 20 q 350 26 383 22 q 304 20 328 20 l 279 20 q 263 12 263 19 l 263 4 l 266 -1 l 312 4 q 336 -4 330 -4 l 353 -4 q 385 4 355 -4 l 420 -7 q 453 1 445 1 l 469 1 q 475 -4 475 1 l 475 -7 q 448 -20 475 -15 q 420 -18 444 -20 q 385 -31 399 -31 q 334 -28 377 -31 q 317 -34 317 -31 q 304 -31 309 -34 q 193 -34 233 -34 l 87 -34 q 52 -23 52 -32 l 54 -9 q 52 -7 54 -7 l 54 12 l 54 58 l 52 77 q 84 85 62 85 q 127 83 100 85 q 146 85 136 83 q 241 83 201 83 l 323 83 q 361 85 338 83 q 374 83 366 83 q 391 88 379 83 q 369 104 385 104 l 282 104 q 258 102 268 104 q 231 104 243 104 l 84 104 l 68 102 q 52 121 52 109 l 54 126 q 43 145 50 145 l 16 145 q -11 159 -5 145 l -11 189 l -14 208 l -3 216 l 22 216 q 54 245 54 216 q 33 273 54 250 l 33 500 q 49 509 35 509 l 201 509 q 209 517 205 509 l 209 519 q 193 528 206 528 q 182 525 182 528 l 155 528 l 109 528 q 81 525 96 528 q 57 528 71 528 l 41 528 q 33 544 33 530 l 33 631 l 35 647 q 33 661 33 652 l 33 666 q 73 690 33 690 l 79 726 q 68 764 79 764 q 60 766 65 764 l 46 764 q 33 774 34 769 l 33 783 q 57 796 33 791 l 76 796 q 79 804 76 799 q 49 826 79 826 q 30 842 41 829 l 33 856 q 35 910 33 880 q 33 945 33 933 l 35 964 q 33 997 33 979 q 52 1016 33 1016 m 244 853 l 244 842 q 282 829 244 832 l 285 823 l 285 810 q 277 788 285 790 l 274 788 q 263 812 267 788 l 258 815 l 255 815 l 252 802 l 263 791 q 225 774 241 774 q 212 758 212 774 l 212 753 q 258 739 212 745 q 282 742 273 742 l 285 736 l 285 690 q 277 682 285 686 l 269 682 q 258 685 262 682 q 241 628 241 685 l 241 620 q 252 590 241 597 q 331 612 331 600 q 350 639 331 618 l 358 663 q 355 671 355 669 q 399 690 368 690 l 404 728 q 388 766 404 766 l 385 766 l 366 764 l 358 780 q 369 796 358 783 l 382 793 l 388 793 q 396 802 392 793 l 396 807 q 380 826 385 826 l 361 826 q 312 856 353 826 l 298 859 l 279 859 q 255 861 270 859 q 244 853 244 857 m 241 425 l 244 419 q 239 397 244 408 q 241 387 239 396 q 239 373 241 378 q 241 335 241 350 l 241 297 q 239 262 241 279 l 244 218 q 228 213 235 213 l 209 213 q 190 194 207 213 l 174 194 l 171 183 l 179 178 q 195 183 190 183 q 214 151 207 155 l 233 145 l 236 145 l 252 148 q 269 126 266 148 l 282 123 l 293 123 q 372 140 372 123 q 342 148 372 148 q 334 145 339 148 q 320 156 321 151 l 334 197 q 331 205 331 202 q 372 218 344 218 l 374 224 l 374 343 q 320 430 374 407 q 269 435 306 430 l 252 435 q 241 425 250 435 m 548 395 l 551 381 l 556 381 l 553 395 l 548 395 m 513 194 l 513 189 l 518 189 q 513 194 518 194 z "},"C":{"ha":612,"x_min":-7,"x_max":620,"o":"m 275 1101 l 292 1099 l 335 1099 q 430 1080 430 1090 l 430 1077 l 411 1074 l 338 1074 q 321 1066 321 1073 l 321 1063 q 340 1050 321 1061 l 368 1053 l 438 1053 q 460 1047 450 1053 q 479 1050 471 1050 q 519 1015 519 1040 q 503 1009 511 1009 l 354 1009 q 346 1001 350 1009 l 346 998 q 354 990 346 994 l 435 990 q 460 987 445 990 q 476 990 464 990 l 522 982 l 536 985 q 560 925 547 977 l 576 901 l 582 903 l 595 903 q 614 871 614 903 q 579 857 610 866 l 574 849 q 590 836 574 844 l 604 838 l 609 838 q 620 827 613 838 q 606 808 614 810 l 587 808 l 585 803 l 587 787 l 590 787 l 601 798 l 612 798 l 612 789 q 617 768 617 770 l 617 762 q 582 751 617 754 q 563 735 582 747 q 506 730 540 735 l 463 732 q 452 730 456 732 q 422 732 433 732 l 387 732 q 368 743 372 732 q 384 760 368 747 l 389 760 l 408 757 l 416 770 l 414 784 q 416 792 414 787 q 414 817 414 807 l 414 833 q 370 846 370 836 l 370 849 q 384 868 370 864 q 408 865 399 865 q 414 876 414 872 q 387 895 414 895 q 340 933 358 895 l 300 941 q 259 911 287 941 l 259 909 q 264 903 260 903 l 289 903 q 297 895 293 903 q 292 887 297 894 q 294 876 292 881 q 256 860 294 862 l 245 846 q 289 833 254 838 l 289 819 q 286 808 289 813 q 292 762 289 806 q 248 749 286 757 l 245 743 q 248 730 245 734 q 245 678 245 700 l 245 659 q 243 648 245 653 q 245 637 245 644 l 245 635 q 243 624 245 624 l 245 605 l 245 483 q 248 461 245 472 q 245 439 245 451 l 245 361 q 243 334 245 348 q 245 309 245 323 l 245 293 q 208 282 245 286 l 205 277 l 205 271 q 227 225 205 225 q 262 217 255 217 l 283 217 q 330 187 299 187 l 332 187 q 373 214 373 197 q 319 231 319 218 q 346 290 327 290 q 354 285 354 288 q 373 298 371 290 l 373 401 l 370 418 q 384 434 374 429 l 406 434 q 441 431 428 434 q 479 434 458 434 l 503 434 q 552 426 526 434 q 560 429 557 429 q 574 410 574 412 q 549 374 574 374 q 519 369 530 374 q 509 372 510 372 q 463 369 477 369 q 446 372 460 369 q 438 369 441 369 q 408 372 420 372 l 403 363 l 403 355 q 408 350 404 350 l 481 350 q 574 336 574 350 l 574 331 q 568 309 574 328 q 574 293 574 300 q 533 282 574 286 q 509 260 530 272 q 525 239 524 260 q 522 231 522 233 q 587 214 538 223 l 587 212 q 530 198 587 205 l 473 198 q 463 201 467 198 q 452 193 452 197 l 452 182 l 465 179 l 555 179 q 574 168 570 179 q 343 27 516 27 q 151 71 186 27 q 91 141 102 111 q 69 198 75 170 q 58 217 64 217 l 50 217 q -1 228 -1 217 l -1 260 l -7 279 q 4 290 -3 279 l 23 288 l 28 288 q 39 304 34 288 q 37 347 37 332 l 37 377 q 39 388 37 388 l 37 407 l 37 686 q 53 757 37 757 q 80 770 80 757 q 77 833 77 821 q 39 841 70 838 l 37 846 l 37 854 q 80 868 37 866 l 85 879 q 53 901 85 901 l 45 911 q 69 987 45 933 q 275 1101 133 1101 m 129 811 l 129 806 q 142 795 130 800 q 186 798 170 798 l 199 798 q 205 803 205 798 l 205 811 q 199 817 205 817 l 142 817 q 140 819 140 817 q 129 811 129 815 m 172 260 q 178 247 173 247 q 186 250 183 250 l 186 258 q 178 266 186 262 q 172 260 172 265 z "},"D":{"ha":580,"x_min":-34,"x_max":604,"o":"m 31 1050 l 227 1050 q 229 1047 229 1050 l 235 1050 l 251 1050 q 416 1034 372 1050 q 511 966 485 1010 q 533 933 533 943 l 530 928 q 544 884 541 911 q 555 876 555 883 l 549 868 q 454 865 486 865 l 419 865 q 408 868 413 865 l 359 857 q 308 887 338 857 q 245 895 281 895 q 218 884 218 892 l 218 876 q 237 865 223 865 l 256 865 q 264 857 260 865 l 259 846 q 262 836 262 842 q 243 825 258 825 q 240 827 240 825 q 218 811 222 820 q 256 798 218 802 q 264 746 264 789 l 264 724 q 227 713 264 717 q 218 697 218 707 l 218 372 q 216 347 218 362 q 221 258 221 329 l 221 255 q 180 244 221 248 l 178 239 l 178 190 q 240 174 240 178 q 248 157 240 157 l 300 157 q 340 174 340 165 q 324 182 340 178 l 319 179 q 294 190 294 182 l 294 195 q 302 220 302 205 l 302 239 q 346 255 302 245 l 349 260 l 349 675 q 351 686 349 682 q 349 697 349 691 q 370 724 353 724 l 376 722 q 395 732 395 726 l 395 751 q 387 800 395 800 l 378 800 q 368 798 372 800 q 349 811 351 803 q 387 830 349 827 q 406 844 387 837 q 441 841 431 844 q 495 844 471 844 l 514 844 q 595 841 541 844 l 601 833 q 563 819 601 827 l 557 808 q 601 795 570 801 l 601 779 q 604 735 601 763 l 601 730 q 604 722 604 724 q 568 713 600 717 l 560 703 l 560 692 q 563 648 560 676 q 560 640 560 643 q 563 621 563 629 q 560 616 563 616 l 563 597 l 563 369 q 557 326 563 357 q 563 293 563 307 l 563 290 l 555 263 q 560 258 560 262 l 560 255 q 522 244 560 248 q 511 203 516 238 q 571 174 511 184 l 571 168 q 555 144 564 147 l 538 144 q 509 138 512 138 l 457 138 q 441 130 441 137 l 441 125 q 446 119 441 119 l 484 119 q 487 117 487 119 q 495 119 492 119 q 547 109 547 119 l 547 100 q 511 57 537 92 q 302 0 437 0 q 292 3 293 3 q 281 0 282 0 q 248 3 267 0 q 145 0 192 0 l 140 0 q 102 3 125 0 q 94 0 96 0 l 80 3 q 47 0 61 0 q 28 8 41 0 q 34 76 34 38 l 34 163 q 26 179 34 177 l -20 179 q -31 190 -24 179 l -31 214 l -34 241 l -23 250 l 1 250 q 9 266 9 252 l 9 510 q 12 608 9 557 q 9 684 9 616 l 9 708 q 53 727 9 718 l 53 738 q 56 765 53 751 q 31 800 56 800 q 9 808 9 800 l 9 814 q 26 830 9 818 l 42 827 q 53 836 53 831 l 53 841 q 39 860 53 860 q 28 857 30 857 q 9 873 16 862 l 9 939 q 12 941 9 941 l 9 947 l 9 1009 l 7 1042 q 31 1050 17 1050 m 481 979 l 481 971 l 487 971 l 487 974 q 481 979 487 979 m 509 928 l 506 922 l 506 917 q 511 911 507 911 l 514 917 l 514 922 q 509 928 514 928 m 85 811 l 85 808 q 94 800 85 806 l 113 803 l 191 803 q 199 811 195 803 q 180 822 195 822 l 96 822 q 85 811 92 822 m 579 762 q 585 757 580 757 l 587 762 l 587 768 l 585 768 q 579 762 579 767 m 113 551 q 123 543 113 543 q 170 548 141 543 l 170 559 q 156 570 170 563 q 113 553 113 570 l 113 551 m 528 296 q 536 282 531 282 l 541 282 q 549 334 549 304 q 528 296 534 322 m 199 304 l 199 293 l 202 293 l 202 304 l 199 304 m 145 228 l 145 212 l 151 212 q 161 222 155 212 q 145 228 153 228 m 511 98 l 511 92 q 519 95 517 95 l 519 98 l 511 98 z "},"E":{"ha":549,"x_min":-34,"x_max":530,"o":"m 28 1070 l 148 1070 l 164 1067 q 178 1070 169 1070 l 178 1067 q 180 1070 180 1067 q 202 1067 199 1070 q 294 1070 259 1070 l 427 1070 q 430 1067 430 1070 l 435 1070 q 503 1067 488 1067 q 509 1057 509 1061 q 500 1035 507 1035 q 422 1032 441 1032 q 395 1035 398 1035 l 389 1027 l 389 1021 q 397 1013 389 1017 l 457 1013 q 506 994 506 1013 q 503 991 506 991 l 506 964 l 506 926 q 500 918 506 925 q 419 916 446 916 l 248 916 q 221 902 227 916 q 262 883 221 886 l 267 875 l 267 872 q 232 845 267 845 q 227 829 227 836 l 227 826 q 267 812 267 823 q 254 799 267 805 q 245 802 245 799 q 199 799 214 799 l 137 799 q 115 791 117 799 l 115 783 l 129 780 l 180 780 q 270 761 270 780 q 262 736 268 736 l 240 736 q 221 723 225 736 q 224 715 221 720 l 221 701 l 224 685 q 221 650 221 667 l 221 639 q 281 628 221 628 l 444 628 q 452 620 448 628 l 452 614 q 449 612 452 612 q 452 609 449 609 q 449 555 449 572 l 449 538 q 452 495 449 523 q 387 476 452 476 l 259 476 q 221 460 221 476 l 221 457 q 224 403 221 443 l 216 397 q 142 395 161 395 l 126 397 q 99 395 112 395 l 83 395 q 47 397 65 395 q 20 395 38 395 q 12 403 20 399 q 15 476 15 453 l 15 723 q 26 745 18 743 q 50 742 41 742 q 56 750 56 749 l 56 802 q 20 821 56 821 l 15 829 q 50 850 15 850 l 53 856 l 53 878 q 42 886 53 884 q 26 883 28 883 q 12 894 22 883 l 15 907 l 15 1002 l 18 1019 q 12 1065 16 1022 q 28 1070 21 1070 m 26 376 l 39 373 l 156 373 q 208 370 178 373 l 213 373 q 227 362 225 368 l 218 349 l 218 343 l 221 327 q 216 311 216 318 q 224 294 224 308 l 224 292 q 221 289 224 289 l 224 283 l 224 275 q 216 267 224 271 l 191 267 q 180 248 186 267 q 183 232 180 246 q 180 224 180 227 q 216 199 180 211 l 229 202 l 237 202 q 251 178 242 202 q 297 175 283 175 l 473 175 q 500 170 500 174 l 506 172 l 522 172 q 528 167 528 172 l 528 132 l 525 115 q 528 113 525 113 l 525 94 l 525 83 l 528 64 q 522 58 522 63 l 522 56 q 530 37 530 45 l 530 34 q 522 26 530 30 l 519 26 q 454 20 458 20 l 53 20 q 34 31 41 20 l 37 45 l 37 159 q 18 199 37 199 q -28 210 -28 202 l -28 227 q -26 237 -28 233 q -34 262 -34 259 q 9 273 -26 270 q 15 281 15 279 l 15 283 q 12 365 15 311 q 26 376 26 374 m 153 251 l 151 245 l 151 240 q 156 235 151 235 l 161 243 q 153 251 161 247 z "},"F":{"ha":505,"x_min":-34,"x_max":495,"o":"m 20 1050 l 400 1050 q 487 1047 429 1050 l 492 1039 l 492 979 q 435 971 492 971 l 392 971 l 378 968 l 378 958 q 395 947 378 954 l 400 949 l 406 949 q 487 947 433 949 q 495 914 495 932 q 425 895 495 895 l 237 895 q 218 882 222 895 q 248 865 218 865 q 267 833 267 865 q 243 825 252 825 l 243 827 q 221 817 221 823 l 221 811 q 264 795 221 804 q 267 792 264 792 l 264 765 l 264 749 l 267 732 q 227 713 267 713 q 221 697 221 705 l 221 629 l 218 597 q 251 583 233 583 l 300 583 q 373 586 335 583 q 438 575 438 582 l 438 572 q 433 556 433 564 l 433 510 q 435 442 433 487 l 427 437 l 403 437 q 381 431 400 437 l 351 431 q 262 434 312 431 q 221 412 221 434 l 221 372 q 216 366 221 366 l 199 366 q 170 361 173 361 l 31 361 q 12 372 17 361 l 12 529 q 9 591 12 563 q 12 646 12 606 l 12 697 q 26 722 18 722 l 39 722 l 45 719 l 53 730 q 50 741 53 736 q 53 765 53 755 l 53 789 q 18 800 53 798 l 12 808 l 12 811 q 31 830 12 830 q 42 827 37 830 q 53 836 53 831 l 53 852 q 18 863 53 860 q 12 879 12 871 l 12 982 l 15 998 q 9 1042 13 1005 l 20 1050 m 189 632 l 189 629 l 194 629 l 194 637 q 189 632 189 637 m 20 339 l 123 339 q 227 328 227 339 q 218 296 222 319 l 221 282 l 221 258 q 202 247 217 247 l 194 247 q 191 250 191 247 q 175 231 175 243 q 178 201 178 212 l 178 193 q 218 179 178 187 l 237 179 q 248 165 243 178 q 240 152 243 152 l 245 41 l 243 35 q 245 24 245 31 l 245 22 q 237 5 245 7 l 235 5 q 170 0 174 0 l 50 0 q 31 8 41 0 q 34 22 31 17 q 31 100 31 70 l 31 117 q 34 141 31 126 q 31 144 34 144 l 34 157 l 34 160 q -7 182 34 182 l -12 179 q -34 190 -21 179 q -28 217 -28 213 l -31 244 l -20 252 l -1 250 q 15 271 15 256 l 9 331 l 20 339 m 145 222 l 145 217 q 151 212 146 212 q 164 222 163 217 q 159 228 164 228 l 151 228 q 145 222 145 227 m 213 98 l 218 98 q 229 125 218 115 l 229 127 l 224 127 q 213 98 213 125 z "},"G":{"ha":603,"x_min":-27,"x_max":594,"o":"m 304 1051 q 477 989 425 1051 q 518 940 494 983 q 524 921 524 940 q 510 913 510 918 l 510 894 q 518 872 510 874 l 524 872 q 529 878 529 872 l 529 886 l 521 897 l 521 907 l 526 907 q 548 859 548 869 q 591 837 591 859 l 591 823 q 559 812 591 815 q 553 802 559 808 q 564 788 564 789 l 583 791 l 586 791 q 594 783 590 791 l 594 774 q 589 761 594 761 q 594 712 594 725 q 559 704 590 707 q 469 685 559 685 l 448 685 q 426 682 437 685 q 404 685 416 685 l 366 685 q 345 696 351 685 q 391 715 350 711 q 393 723 391 718 l 391 736 q 396 753 396 745 q 355 793 396 793 l 350 802 q 358 818 352 818 l 382 818 q 391 829 391 818 q 377 850 381 850 l 358 850 q 315 888 342 850 q 290 894 297 894 l 282 894 q 239 867 264 894 l 239 864 q 271 853 239 856 q 274 845 274 848 l 271 840 q 274 829 274 835 q 266 812 274 823 l 252 815 l 239 815 q 225 802 235 815 q 241 788 225 797 l 255 791 l 263 791 q 269 785 269 790 l 269 739 q 266 736 269 736 l 269 731 l 269 715 q 228 701 269 709 q 225 699 228 699 l 228 666 l 228 639 q 225 601 228 624 q 228 593 228 595 l 225 574 l 228 547 q 225 506 228 533 q 228 376 228 442 q 222 340 228 362 q 228 308 228 321 l 228 248 q 184 235 228 238 l 182 229 q 214 175 182 175 q 288 142 260 175 q 320 140 292 142 q 345 151 320 146 q 350 167 350 159 l 339 172 q 317 170 324 170 q 296 186 296 174 q 309 235 307 208 l 320 243 l 336 240 q 350 248 350 243 l 350 378 q 347 389 350 385 l 350 395 q 317 422 350 422 q 271 435 283 422 q 274 471 271 448 q 271 557 271 522 q 269 566 269 563 q 290 576 280 576 l 304 576 q 334 579 324 576 q 369 576 351 576 l 410 576 q 434 579 419 576 q 445 576 439 576 q 475 579 463 579 q 524 555 475 562 l 543 555 q 551 519 551 555 q 548 509 551 509 l 551 481 l 551 376 q 548 256 551 328 q 551 243 551 252 q 534 237 542 237 l 529 237 q 526 240 526 237 q 505 202 505 240 q 502 180 502 187 q 567 156 567 170 l 545 102 q 307 -20 488 -20 q 144 12 192 -20 q 73 91 86 47 q 41 170 68 93 q 33 172 38 170 q 5 170 9 170 q -24 183 -24 173 q -22 216 -24 188 q -27 232 -27 227 q 11 243 -20 239 l 16 256 l 14 300 q 16 343 14 322 q 14 438 14 389 q 16 484 14 456 q 14 530 14 496 l 24 563 l 24 566 q 14 609 14 606 q 16 647 14 624 l 14 652 q 16 677 16 667 l 14 693 q 54 718 14 707 l 57 723 q 54 731 57 731 l 57 745 l 57 774 q 14 799 53 783 l 14 802 q 60 821 14 816 l 62 826 l 62 834 q 33 853 62 853 l 22 864 q 71 975 29 909 q 252 1051 129 1051 l 304 1051 m 564 764 l 564 747 l 570 747 l 572 761 l 572 764 l 564 764 m 195 655 l 195 647 q 203 617 203 638 l 206 617 q 220 650 206 634 q 203 663 218 663 q 195 655 199 663 m 144 471 l 117 471 q 114 463 117 468 q 127 449 115 455 l 133 452 l 141 452 q 144 449 144 452 q 157 454 153 454 l 157 465 q 149 473 157 467 l 144 471 m 117 397 q 133 387 119 387 l 165 387 q 174 395 170 387 l 174 400 q 160 408 174 406 q 152 406 157 408 q 130 408 137 408 q 117 397 119 408 m 475 216 l 475 205 l 477 205 q 483 210 483 205 l 483 216 l 475 216 m 152 210 l 152 208 l 157 208 l 157 210 l 152 210 m 518 110 l 518 107 l 521 107 q 526 113 526 107 l 526 115 l 524 115 q 518 110 518 115 z "},"H":{"ha":609,"x_min":-27,"x_max":627,"o":"m 41 1023 l 119 1023 q 228 1020 159 1023 l 231 1015 l 231 1009 q 222 1001 231 1005 l 225 987 l 225 977 q 222 966 225 966 l 225 947 l 225 852 q 269 836 225 839 l 274 811 q 263 798 269 799 l 239 798 q 228 781 228 792 q 269 770 235 774 l 271 765 l 271 697 q 233 686 271 689 q 222 665 224 665 l 225 651 q 222 637 225 642 q 225 613 225 623 l 225 589 q 252 575 231 575 l 298 575 q 372 581 329 575 q 396 570 388 570 l 551 570 q 583 559 583 570 q 581 537 583 540 l 583 510 q 578 429 583 483 q 583 407 583 415 q 581 353 583 393 q 583 317 581 351 l 581 290 l 583 274 l 581 274 l 583 269 q 581 266 583 266 l 583 260 l 583 233 q 543 217 583 222 q 532 198 534 198 q 537 176 537 188 l 537 165 q 532 160 537 160 l 513 160 q 491 155 510 160 l 423 155 q 404 133 408 133 q 393 127 404 127 q 380 155 387 150 l 366 152 l 358 152 q 323 160 336 152 l 326 193 l 323 212 l 331 225 l 350 222 l 358 222 q 369 233 362 222 q 363 266 369 249 q 366 274 366 271 q 363 293 366 290 q 366 350 366 328 l 366 399 q 355 420 366 410 q 347 418 350 418 q 312 423 323 423 l 250 423 q 225 407 235 423 q 228 401 225 401 q 222 323 222 345 q 225 320 225 323 l 220 317 q 201 326 206 326 q 176 320 181 323 l 160 323 l 157 323 q 136 320 146 323 l 122 323 l 84 320 q 24 323 48 323 l 16 334 l 16 673 q 60 700 16 694 q 62 732 60 718 q 60 743 60 742 l 62 757 q 19 776 62 769 l 16 781 l 16 789 q 60 806 16 798 l 62 819 q 22 838 62 828 q 16 854 16 847 l 16 898 q 19 985 16 941 q 16 1015 16 1000 q 41 1023 26 1023 m 391 1023 l 483 1023 q 578 1020 514 1023 l 583 1012 l 581 998 q 583 987 581 997 q 581 955 581 968 q 583 947 581 952 l 581 941 q 583 876 583 903 l 583 863 q 581 852 583 857 q 591 838 586 840 l 616 838 q 627 814 624 838 q 597 798 627 798 q 581 781 589 798 q 621 770 586 773 l 624 765 q 621 735 624 759 q 624 713 621 733 q 608 689 624 689 q 581 678 583 689 l 581 675 q 583 602 581 652 q 578 597 578 602 q 496 594 524 594 l 410 594 q 369 591 396 594 q 363 597 369 597 l 366 629 l 366 654 l 363 681 q 410 700 370 693 q 412 754 412 736 q 372 776 412 770 l 369 781 l 369 789 q 410 806 369 798 l 412 811 q 393 833 412 833 q 366 846 374 833 l 366 974 l 363 990 q 366 1001 366 995 l 363 1015 q 391 1023 378 1023 m 247 743 l 247 738 q 252 743 252 738 l 247 743 m 553 632 l 553 624 q 559 629 559 624 l 553 632 m 106 597 l 106 589 q 122 581 109 581 l 176 581 q 198 589 197 581 l 198 591 q 190 608 198 602 l 163 602 l 146 605 l 122 605 q 119 608 119 605 q 106 597 107 602 m 551 407 l 556 404 l 559 404 q 567 434 567 425 q 551 407 553 434 m 41 282 l 160 282 q 212 277 206 277 l 225 277 q 231 271 231 276 l 231 269 q 222 252 231 254 q 231 228 231 237 q 195 220 221 220 q 193 222 195 222 l 184 212 l 184 168 q 214 152 184 163 q 217 136 217 148 l 228 136 q 244 152 228 152 q 250 146 245 146 q 244 106 246 111 q 247 76 247 87 l 247 24 q 250 -16 247 11 q 201 -27 243 -21 l 187 -24 q 160 -27 163 -27 q 111 -24 116 -24 l 79 -27 l 73 -24 q 54 -27 62 -27 q 35 -19 47 -27 l 38 0 l 38 141 q 22 155 38 146 l 3 152 l -5 152 q -27 163 -20 152 l -27 203 q 8 225 -27 225 q 16 244 16 235 l 16 247 q 11 263 16 254 q 41 282 11 279 m 193 250 l 193 239 l 201 239 q 203 250 203 248 l 193 250 m 396 117 q 418 114 399 117 q 431 117 427 114 q 469 114 454 114 l 515 114 q 600 100 600 114 l 600 95 l 597 71 q 600 52 600 60 q 578 41 578 45 l 578 30 q 583 24 578 24 q 589 30 584 30 l 597 16 l 594 11 q 602 -11 602 -3 q 543 -27 602 -24 q 540 -24 540 -27 l 521 -27 l 437 -27 q 426 -24 431 -27 q 415 -27 421 -27 l 410 -27 q 388 -14 395 -27 q 391 27 391 14 l 388 33 l 391 38 l 388 62 q 391 114 391 92 l 396 117 m 212 73 q 220 62 216 62 q 231 87 225 79 l 231 98 l 228 98 q 212 73 225 98 m 222 46 l 220 33 l 220 27 q 231 38 224 27 l 231 46 l 222 46 z "},"I":{"ha":296,"x_min":-27,"x_max":274,"o":"m 33 1050 q 46 1047 41 1050 q 98 1050 76 1050 l 117 1050 q 225 1047 157 1050 q 231 1042 226 1042 q 222 993 228 1009 q 228 971 228 983 l 228 966 q 222 949 228 958 l 206 952 q 182 947 195 952 q 171 949 172 949 q 138 947 143 947 l 106 949 l 100 941 l 100 936 q 109 928 100 934 l 141 930 l 171 930 q 228 917 228 926 l 228 884 q 269 863 228 863 q 274 838 271 857 q 260 822 271 827 l 236 822 q 228 814 232 822 l 228 811 q 269 798 228 801 q 271 789 271 792 q 269 754 269 755 q 274 735 269 749 q 252 713 271 713 q 241 716 246 713 q 228 705 229 711 l 228 686 q 225 665 228 675 q 228 643 228 654 l 228 621 q 217 610 228 617 l 198 610 q 184 608 189 610 l 168 610 l 119 610 q 114 605 114 610 l 114 594 q 125 586 114 590 q 127 589 127 586 q 136 586 130 589 q 179 589 163 589 l 198 583 l 217 586 q 231 575 221 586 l 228 556 l 228 342 l 231 326 q 228 312 228 321 l 228 274 l 231 255 l 220 247 l 212 247 l 198 250 q 184 225 190 240 l 187 212 q 184 190 184 193 q 250 174 225 176 l 250 171 q 252 103 250 148 q 250 46 250 62 l 252 27 q 250 19 250 22 q 252 11 252 14 q 179 0 252 5 l 109 0 q 65 3 93 0 q 57 0 60 0 q 38 8 46 3 q 41 19 38 14 q 38 103 38 69 l 38 133 q 41 174 38 146 q 24 179 32 179 l -5 179 q -27 190 -15 179 l -22 217 q -24 239 -24 228 q -8 252 -24 243 l 8 252 l 14 250 l 22 263 q 19 326 19 313 q 22 345 19 341 q 19 388 19 372 l 19 510 q 22 618 19 550 q 19 640 19 629 q 30 654 24 652 l 57 654 q 68 665 61 654 l 68 667 q 62 673 68 673 l 30 673 q 19 684 26 673 l 19 700 q 35 724 19 715 l 52 722 q 62 765 60 722 q 54 800 60 795 l 41 798 l 30 798 q 16 811 26 798 q 38 830 22 830 q 54 827 52 827 l 60 836 l 60 846 q 54 863 60 854 q 35 857 49 863 q 19 871 31 857 q 22 952 22 925 l 22 985 q 24 1015 22 996 q 16 1036 21 1030 l 16 1039 q 33 1050 16 1044 m 198 1006 l 198 987 q 203 982 199 982 l 206 996 l 203 1006 l 198 1006 m 225 155 l 225 136 l 231 136 q 233 144 231 138 q 231 155 231 149 l 225 155 z "},"J":{"ha":366,"x_min":7,"x_max":389,"o":"m 156 1057 l 256 1057 q 338 1054 283 1057 q 343 1048 338 1048 q 340 1019 340 1030 q 346 891 340 964 l 343 886 q 354 872 349 873 l 381 872 q 389 861 389 872 q 387 859 389 859 l 389 845 l 389 840 q 381 831 389 836 l 354 834 q 346 815 346 821 q 357 804 350 815 l 370 807 l 373 807 q 389 796 389 807 q 387 766 389 785 q 389 736 389 751 q 349 720 389 722 q 340 699 340 707 l 340 680 q 319 671 321 680 q 330 647 319 656 q 324 639 330 646 l 324 636 q 340 625 340 636 q 343 552 340 594 q 340 536 340 538 q 343 498 343 519 l 343 481 q 332 473 343 473 l 332 468 q 343 416 343 437 q 340 346 343 391 l 343 335 q 340 308 340 321 l 340 286 q 330 281 340 281 l 330 275 q 346 262 346 275 q 305 251 340 254 l 294 229 l 294 218 q 297 208 294 212 q 294 197 294 203 q 338 186 314 186 l 349 186 q 357 175 357 186 q 340 145 357 168 q 316 88 340 108 q 264 37 316 73 l 262 37 l 251 42 l 202 12 l 189 15 l 178 15 q 110 7 153 7 l 18 7 q 7 18 14 7 l 7 42 q 9 66 7 56 q 7 94 7 81 l 7 129 q 18 161 7 161 l 20 161 q 126 180 126 161 q 121 186 126 186 l 96 186 q 77 197 82 186 l 77 202 q 94 251 87 213 q 113 259 107 259 l 123 256 q 137 273 137 258 l 137 278 q 132 311 137 292 q 156 319 142 319 l 251 319 l 264 321 l 264 330 q 245 340 260 340 q 224 338 235 340 l 199 340 q 148 338 163 338 q 134 354 134 342 q 140 669 137 614 q 134 718 134 705 q 153 731 149 731 l 164 728 q 178 745 178 730 l 178 788 q 142 807 178 807 q 134 815 134 813 l 134 823 q 153 837 136 830 q 161 834 159 834 q 178 842 178 837 l 178 853 l 175 867 q 153 864 160 864 q 134 880 147 865 l 137 899 l 137 1029 l 132 1048 q 156 1057 142 1057 m 321 1013 l 319 1000 l 324 997 l 335 997 l 335 1013 l 321 1013 m 316 484 l 316 481 q 319 473 319 476 l 324 473 l 324 479 q 319 484 324 484 l 316 484 m 308 129 l 305 123 l 305 107 l 308 107 q 313 126 308 113 l 308 129 z "},"K":{"ha":636,"x_min":-34,"x_max":620,"o":"m 28 1009 l 134 1009 q 216 1006 161 1009 q 224 998 216 1002 l 218 966 l 221 928 q 218 838 218 878 l 216 838 q 264 822 216 823 q 267 819 264 819 q 264 808 267 818 q 267 792 267 794 q 259 779 264 779 l 245 779 q 235 784 239 784 q 224 768 224 781 q 240 760 227 760 l 259 760 l 267 754 q 262 730 264 736 l 264 716 l 262 692 q 273 678 267 680 q 308 749 283 678 q 281 760 308 755 l 278 765 l 278 773 q 327 792 282 788 q 340 817 337 800 q 335 822 335 817 l 330 819 l 319 819 q 308 830 315 819 l 308 836 q 365 939 351 934 l 514 939 l 541 930 l 557 933 l 560 928 l 560 922 q 514 836 519 840 l 514 830 q 528 819 514 826 l 533 822 l 544 822 q 552 814 548 822 q 528 784 552 798 l 509 784 q 487 770 494 784 l 487 768 q 519 757 487 761 l 519 749 q 495 705 504 730 q 476 675 479 675 l 468 675 q 457 678 462 675 q 419 635 437 678 q 370 537 408 625 q 435 374 395 496 q 468 293 444 363 q 503 217 482 258 l 503 214 q 468 203 503 207 q 465 195 465 198 q 492 146 478 146 q 557 127 557 141 q 585 57 557 120 q 620 -30 603 20 q 509 -41 620 -41 l 506 -41 q 427 -38 475 -41 q 416 -41 422 -41 q 362 84 403 -41 q 330 138 343 138 q 264 163 264 138 q 251 198 262 180 q 278 212 251 210 l 278 209 q 286 212 283 212 l 286 214 q 262 285 276 262 q 240 323 252 323 q 218 263 218 288 l 218 233 q 224 212 224 214 q 218 206 224 206 l 197 206 q 180 190 180 206 l 180 171 q 161 155 170 155 l 161 149 l 164 149 q 216 138 186 149 l 218 138 l 237 144 l 243 136 q 240 117 243 127 q 243 49 243 76 q 240 27 243 42 q 243 3 243 17 q 240 -19 240 -16 q 245 -33 245 -28 l 240 -35 l 224 -35 q 183 -41 184 -41 q 164 -38 168 -41 q 126 -41 141 -41 l 53 -41 q 31 -30 43 -41 q 34 11 34 -3 l 34 57 q 31 106 34 80 l 31 136 q -34 152 -34 138 q -28 179 -34 159 q -31 201 -31 190 q 7 214 -22 211 q 12 233 12 225 q 9 236 12 236 l 12 252 q 9 271 12 271 q 12 312 12 298 l 12 418 q 9 594 12 498 q 12 648 12 613 l 9 665 q 53 684 9 681 q 56 686 53 686 l 53 703 q 56 749 56 731 q 18 760 48 758 l 9 770 q 34 789 18 789 q 37 787 37 789 q 53 795 53 790 l 53 814 q 47 819 53 819 l 31 817 q 9 836 19 821 l 9 876 q 12 903 9 889 q 9 928 9 913 l 12 960 l 9 974 l 12 987 q 7 1001 7 996 q 28 1009 20 1009 m 411 1009 l 411 1006 l 416 1009 l 425 1009 q 427 1006 427 1009 l 433 1009 l 463 1009 q 465 1006 465 1009 l 471 1009 l 514 1009 q 517 1006 517 1009 q 525 1009 522 1009 q 595 1006 532 1009 l 601 998 q 560 958 581 958 l 381 958 q 370 971 370 963 l 389 1004 q 411 1009 399 1009 m 237 732 l 235 727 l 235 724 q 240 719 235 719 q 248 722 245 722 l 248 730 l 237 732 m 115 722 l 107 711 l 107 700 l 121 697 l 140 697 q 148 705 144 697 q 115 722 148 715 m 365 594 l 365 589 q 373 597 369 589 l 373 600 l 370 600 q 365 594 365 599 m 389 423 l 389 412 l 395 412 l 395 418 q 389 423 395 423 z "},"L":{"ha":578,"x_min":14,"x_max":562,"o":"m 35 1029 q 38 1027 38 1029 l 43 1029 l 133 1029 q 198 1024 174 1029 q 214 1027 202 1027 l 228 1019 q 222 994 227 994 l 225 989 l 225 967 q 222 956 225 961 q 228 937 228 943 q 225 916 225 927 q 236 907 236 910 l 241 910 q 269 899 269 907 l 269 880 q 258 869 269 876 q 165 864 241 869 q 109 867 135 867 q 68 864 75 864 q 52 902 59 875 q 43 905 46 905 l 27 902 q 14 954 14 914 q 16 970 14 956 q 14 1019 14 1002 q 35 1029 25 1029 m 195 983 l 195 981 q 201 975 196 975 l 203 981 l 203 989 l 201 989 q 195 983 195 988 m 30 875 q 41 848 37 875 l 46 845 l 165 845 q 209 840 170 845 l 220 840 q 228 831 224 840 q 222 812 228 812 l 225 799 l 225 704 l 228 688 l 220 674 l 201 677 q 160 669 175 669 l 100 669 q 76 671 91 669 q 68 669 71 669 q 38 671 44 671 l 24 669 q 14 690 14 680 l 14 718 q 16 726 14 726 l 14 739 l 14 804 q 16 834 14 816 q 14 848 14 839 q 30 875 14 865 m 193 810 l 195 796 q 212 812 212 796 l 206 815 l 198 815 q 193 810 193 814 m 24 652 l 41 650 q 65 652 50 650 q 144 650 109 650 l 168 652 q 222 639 222 642 q 228 631 225 639 q 225 598 225 612 q 266 579 225 584 l 266 574 l 263 568 q 266 557 266 564 l 266 555 q 231 544 266 547 q 225 528 225 535 q 228 519 225 519 l 225 492 l 225 189 q 269 156 225 166 l 271 151 l 271 148 q 269 145 271 145 q 271 137 271 140 l 274 137 q 279 142 279 137 l 279 145 l 277 151 l 282 153 q 296 134 286 134 l 315 137 l 342 132 q 401 134 389 134 q 458 132 423 134 l 496 134 q 556 132 532 132 l 559 126 q 553 64 559 78 q 562 7 559 49 q 534 -18 562 -18 q 477 -20 516 -20 l 312 -20 q 301 -18 306 -20 q 290 -20 296 -20 l 285 -20 q 271 -18 276 -20 l 255 -20 q 193 -15 226 -20 q 133 -20 152 -20 q 130 -18 130 -20 l 117 -20 l 98 -20 q 79 -7 83 -20 q 81 47 81 30 l 81 142 q 65 161 81 158 l 52 159 q 14 170 14 163 l 14 400 q 16 541 14 443 q 27 552 20 541 l 41 549 l 52 549 q 57 555 57 549 l 57 576 q 22 587 57 585 q 14 609 14 597 q 24 652 14 642 m 532 85 l 532 75 q 537 69 532 69 l 537 85 l 532 85 m 532 56 l 532 50 l 537 50 l 537 61 q 532 56 532 60 z "},"M":{"ha":806,"x_min":14,"x_max":819,"o":"m 41 1050 l 60 1050 q 90 1044 63 1050 q 136 1050 126 1050 l 149 1050 q 163 1047 158 1050 l 179 1050 l 193 1050 q 266 1042 216 1050 q 288 1044 281 1044 l 293 1036 l 288 1028 l 290 1012 l 282 1012 l 269 1031 q 260 1028 263 1028 l 260 1017 q 293 979 272 995 q 317 930 303 966 q 320 928 320 930 l 334 930 q 361 898 361 930 q 326 884 361 886 q 320 863 320 867 q 326 825 326 842 l 326 817 q 342 735 333 811 q 350 703 344 735 l 347 689 q 366 613 353 676 l 372 610 l 391 610 q 415 572 412 610 l 429 570 l 439 570 q 453 602 451 570 q 445 605 448 605 q 434 602 435 602 q 412 616 419 608 q 437 760 429 725 q 467 892 448 892 q 477 895 473 892 l 483 892 q 499 901 499 896 l 499 917 q 486 925 499 923 l 472 922 q 461 939 461 933 q 486 1050 476 1040 l 689 1050 q 754 1039 751 1044 l 751 1012 l 751 944 q 789 925 751 925 q 798 903 798 913 q 784 884 791 886 l 768 887 q 749 857 758 887 q 667 854 694 854 l 618 854 q 589 846 589 854 l 589 844 q 616 833 589 836 l 665 833 q 754 825 745 833 l 751 792 l 751 618 q 798 600 751 610 l 798 594 q 770 567 798 567 q 751 548 751 567 q 754 537 751 542 q 749 524 751 524 l 751 505 l 751 401 q 754 363 751 387 q 751 350 751 359 q 754 342 754 345 q 735 334 744 334 q 724 336 729 334 q 675 326 675 334 l 675 317 q 684 309 675 313 l 689 309 q 703 312 698 309 q 751 301 751 309 l 751 206 q 789 182 751 182 l 808 182 q 819 171 812 182 q 811 117 814 165 l 814 111 q 811 90 814 109 q 817 14 811 77 q 808 3 812 3 l 803 3 q 800 5 800 3 q 757 0 789 0 l 697 0 l 681 3 q 670 0 676 0 q 648 3 663 0 q 627 0 633 0 l 613 8 q 616 62 616 45 l 616 76 q 613 100 616 85 q 616 103 613 103 l 613 122 l 613 176 l 600 179 l 581 179 q 567 136 573 179 l 570 125 q 553 62 553 79 q 534 3 553 3 q 480 0 520 3 l 453 3 q 391 0 425 0 l 388 0 l 372 3 q 358 0 367 0 l 355 0 q 334 90 342 0 q 328 100 330 90 l 331 106 q 315 179 321 179 l 301 179 l 274 182 q 263 141 268 176 l 271 95 l 269 84 l 271 71 q 260 57 266 58 l 271 35 q 260 3 269 3 l 222 3 q 212 0 216 3 q 209 3 209 0 l 195 0 l 117 0 q 79 11 79 0 q 84 54 81 54 l 81 73 l 81 103 q 84 141 81 118 q 79 160 79 155 l 90 168 l 106 168 q 141 176 141 168 l 141 184 q 130 193 141 189 q 114 190 128 193 q 106 193 106 190 l 79 190 l 49 190 q 16 201 16 190 l 16 491 q 14 515 16 500 q 16 524 16 521 q 14 532 16 526 q 41 572 14 572 l 60 572 l 62 583 q 22 608 62 608 l 14 618 l 14 667 q 16 697 14 679 q 14 700 16 700 l 16 727 l 16 746 q 14 773 16 759 q 24 822 16 805 q 19 846 19 842 q 52 887 19 887 q 65 901 59 889 l 65 922 q 60 928 65 928 l 54 928 q 33 922 52 928 l 30 922 q 14 941 18 929 q 16 968 14 945 l 14 1012 q 22 1028 19 1028 l 19 1034 l 19 1036 q 41 1050 26 1050 m 247 909 l 241 901 l 241 895 q 263 882 248 882 l 279 884 q 307 882 294 882 q 317 892 309 882 q 307 906 312 905 l 288 906 q 247 909 274 906 m 307 811 l 304 806 l 307 762 q 317 800 311 762 q 320 803 320 800 l 320 808 l 307 811 m 323 694 l 323 689 q 334 678 323 685 q 339 694 339 687 l 339 703 q 331 711 339 707 q 323 694 323 708 m 518 640 l 518 637 l 526 637 l 526 646 l 524 646 q 518 640 518 645 m 372 551 q 374 534 374 536 q 372 518 374 532 q 374 507 372 517 q 372 488 372 496 q 388 464 372 475 q 401 532 395 464 q 404 551 401 540 q 385 567 404 565 q 372 551 377 566 m 722 526 q 719 521 722 521 l 722 515 q 719 488 722 512 l 722 475 l 727 475 q 735 491 727 481 l 724 510 l 727 526 l 722 526 m 146 439 q 141 426 141 431 q 149 415 145 415 l 155 415 q 163 423 159 415 q 146 439 163 439 m 209 429 l 206 410 l 206 307 q 203 247 206 278 q 206 198 206 236 l 206 195 q 247 184 206 186 l 250 190 l 250 195 q 220 407 220 383 q 212 429 217 429 l 209 429 m 513 418 q 515 396 515 408 q 526 415 519 396 q 521 420 526 420 l 518 420 l 513 418 m 326 410 l 326 404 q 331 399 326 399 l 342 399 q 350 407 346 399 l 350 410 q 334 418 347 418 q 326 410 330 418 m 545 418 l 529 312 q 513 198 529 285 q 537 184 513 189 q 551 193 551 188 l 551 247 q 553 277 551 258 l 551 282 q 556 377 553 301 q 548 418 556 387 l 545 418 m 515 385 l 515 377 l 518 377 l 518 385 l 515 385 m 252 127 q 258 122 253 122 l 258 133 q 252 127 252 132 m 537 100 l 537 73 l 543 73 l 543 87 q 553 95 543 94 q 543 106 553 99 q 537 100 537 105 m 138 24 q 146 14 142 14 l 176 14 q 184 22 180 14 l 184 27 q 176 35 184 31 l 155 35 q 138 24 143 35 z "},"N":{"ha":644,"x_min":20,"x_max":655,"o":"m 42 996 l 175 996 q 283 968 283 996 q 300 901 283 925 q 349 871 300 871 q 357 841 357 852 l 357 838 q 351 833 357 833 q 330 836 336 836 q 321 814 321 824 q 330 787 330 792 l 327 781 q 357 675 357 699 q 384 578 378 621 l 389 575 l 395 575 l 397 589 l 397 591 q 392 675 397 637 q 395 792 395 737 l 395 825 q 441 844 395 834 l 441 849 q 422 871 439 871 l 416 868 q 392 884 410 868 l 395 903 l 395 958 l 397 974 q 395 987 395 979 q 419 996 405 996 l 438 993 q 463 996 448 996 l 463 993 l 468 996 l 473 996 q 514 993 490 996 l 528 996 q 568 987 568 990 l 574 990 l 582 990 q 593 979 586 990 l 593 968 q 582 955 582 956 l 593 936 l 590 922 l 593 906 l 579 898 l 566 901 q 514 887 514 894 l 514 882 q 519 876 515 876 l 533 876 q 620 873 562 876 q 633 844 633 855 q 617 833 620 833 q 609 836 612 836 q 587 795 587 831 q 590 768 587 782 q 587 730 587 745 q 590 689 587 716 q 587 667 587 674 q 590 651 590 653 l 587 632 q 590 602 590 608 l 587 578 q 628 548 587 548 q 633 521 631 543 q 593 507 629 516 l 590 502 l 590 486 q 587 467 590 470 q 590 445 590 452 q 587 363 590 412 q 590 317 590 332 q 587 277 587 283 q 590 247 590 258 q 587 239 587 241 q 590 225 590 234 q 576 214 589 220 q 555 217 562 217 q 544 212 544 216 l 525 214 l 509 214 q 492 198 492 214 q 511 190 503 190 q 536 193 526 190 q 571 190 553 190 l 582 190 q 590 182 586 190 q 587 152 590 176 q 628 127 587 127 q 655 119 655 127 l 655 117 q 595 106 655 107 q 587 109 593 106 q 557 106 569 106 l 525 106 q 517 98 521 106 l 517 95 q 533 87 519 87 l 590 87 q 623 81 623 86 l 628 84 l 639 84 q 655 79 646 84 q 650 41 650 50 q 652 -46 652 -23 q 647 -52 647 -47 q 560 -54 589 -54 l 479 -54 q 468 -52 473 -54 q 457 -54 463 -54 q 430 -22 430 -54 q 422 3 422 -2 l 422 5 q 454 19 422 13 l 457 24 l 457 27 q 449 35 457 31 l 430 35 q 400 90 405 35 q 384 125 391 121 q 381 122 381 125 q 319 152 319 122 q 270 331 313 187 q 237 467 237 441 q 218 507 237 482 l 210 494 q 216 461 216 468 q 213 361 213 395 l 210 361 q 216 345 213 345 l 213 331 l 213 312 q 216 274 213 297 l 202 233 q 189 212 189 229 l 191 201 l 197 201 l 205 206 l 210 206 q 218 193 216 206 l 216 168 q 240 130 216 130 q 259 125 259 128 l 264 127 l 270 127 l 281 119 l 278 92 l 278 60 q 281 49 278 54 q 275 30 275 38 q 281 -43 275 23 l 270 -52 l 267 -52 q 224 -54 252 -52 q 221 -52 221 -54 l 208 -54 l 170 -54 q 159 -52 163 -54 q 148 -54 154 -54 l 121 -52 q 99 -54 106 -54 q 85 -43 87 -49 l 85 -3 q 83 49 85 23 q 88 119 85 67 q 77 127 77 125 l 50 125 l 45 125 q 20 136 24 125 l 20 255 q 23 399 20 316 q 20 434 20 416 q 23 507 23 467 q 64 532 64 519 l 64 548 q 23 570 23 548 l 20 581 q 23 616 23 598 q 20 624 23 618 q 23 627 20 627 q 20 681 20 663 q 23 808 20 722 q 20 817 20 814 q 64 844 20 836 q 66 854 66 853 q 50 873 66 861 l 39 868 q 20 884 27 873 l 23 901 l 20 920 l 23 933 l 20 947 q 23 977 23 970 q 20 985 20 982 q 42 996 32 996 m 560 361 l 560 355 l 563 355 l 563 361 l 560 361 m 121 81 l 121 73 q 137 62 126 62 q 167 65 149 62 q 229 62 195 62 q 243 73 241 68 l 243 81 q 210 87 224 87 l 126 87 q 121 81 121 86 z "},"O":{"ha":585,"x_min":14,"x_max":618,"o":"m 258 1058 q 415 1042 361 1058 q 486 998 447 1028 q 513 971 486 990 q 553 928 522 928 q 594 898 583 928 l 594 895 q 559 882 585 886 q 524 863 559 863 l 475 863 q 467 854 471 863 l 467 846 q 477 838 467 838 q 553 836 498 838 q 562 800 558 831 l 556 746 q 564 700 559 718 q 543 670 564 670 l 423 670 q 415 662 419 670 l 415 654 l 420 646 l 434 648 l 477 648 q 564 635 564 648 q 559 627 562 627 q 602 597 559 606 l 602 591 l 600 586 q 605 572 605 577 q 589 564 595 564 l 578 567 q 559 545 559 557 q 562 537 559 543 q 559 499 559 514 l 559 491 q 562 453 559 476 q 559 450 562 450 q 562 434 562 436 q 559 361 562 415 q 562 339 562 342 q 559 317 559 329 q 562 307 559 311 q 559 282 559 292 l 559 250 q 556 198 559 228 q 586 179 556 182 l 610 179 q 618 171 614 179 q 597 119 603 119 q 502 114 585 119 q 499 117 499 114 l 486 114 l 434 114 q 380 117 416 114 l 372 106 q 382 95 372 103 l 396 98 l 412 98 q 488 95 447 98 l 502 98 l 515 95 l 534 98 l 551 90 l 562 90 l 570 95 l 578 95 q 586 79 586 92 q 540 43 562 58 q 453 -3 540 23 q 353 -14 391 -14 l 309 -14 q 190 19 213 -4 q 117 90 160 31 l 81 179 l 41 179 q 19 195 19 179 q 16 252 16 221 l 16 488 q 14 526 16 503 q 16 534 16 532 l 14 551 q 54 570 15 566 q 62 591 59 576 q 54 602 58 602 l 35 602 q 14 616 20 602 q 30 637 14 631 l 49 635 l 60 635 q 73 637 68 635 l 87 635 q 171 637 153 637 l 206 629 q 214 632 212 632 l 239 602 l 263 602 q 271 594 267 602 l 271 572 q 258 562 270 567 q 233 564 243 564 q 225 551 225 555 q 228 529 228 532 q 222 521 225 521 l 225 507 l 225 480 q 222 469 225 474 l 225 464 q 222 426 222 441 q 225 399 225 402 l 222 399 l 225 393 l 225 366 q 222 363 225 363 l 225 358 l 225 244 q 260 182 225 182 q 279 176 266 182 l 296 179 l 301 179 q 347 144 325 144 l 355 144 q 377 160 361 144 q 396 171 392 160 l 396 174 q 391 179 396 179 l 350 179 q 342 187 346 179 l 342 190 q 350 263 350 197 l 350 556 q 393 572 350 562 l 393 600 q 347 618 351 600 l 350 646 l 347 662 q 350 681 350 673 q 347 697 350 693 q 350 727 350 715 l 350 792 q 347 822 350 804 q 350 830 350 827 q 331 873 350 857 l 331 879 q 350 895 331 882 l 331 901 q 288 884 316 901 q 285 887 285 884 q 231 825 231 887 l 222 798 q 225 738 222 779 q 214 705 222 705 l 209 705 l 203 708 l 201 703 l 201 697 l 203 692 l 209 694 l 214 694 q 228 673 228 688 q 149 656 228 656 l 24 656 l 14 665 l 16 678 q 14 684 16 684 l 16 703 l 16 819 q 38 887 22 887 q 76 911 76 887 l 76 914 q 46 925 76 918 l 43 930 q 90 1001 43 941 q 125 1028 96 1001 q 258 1058 180 1058 m 203 852 l 203 849 q 209 844 204 844 l 212 844 q 217 849 217 844 l 217 857 l 209 857 q 203 852 203 857 m 203 499 q 201 491 203 496 q 203 456 203 478 l 206 456 q 209 496 206 463 l 203 499 z "},"P":{"ha":562,"x_min":14,"x_max":586,"o":"m 38 1043 l 49 1043 q 52 1040 52 1043 l 57 1043 l 250 1043 q 475 983 437 1043 l 475 975 q 467 967 471 975 l 496 940 q 507 943 501 943 q 540 910 507 933 q 548 899 544 899 l 553 899 q 562 913 555 913 q 575 894 575 902 l 567 888 l 564 888 l 548 891 q 534 883 534 886 q 526 886 532 883 q 488 883 503 883 l 486 883 q 472 886 477 883 l 456 883 l 429 886 q 407 883 414 883 l 391 886 l 388 880 l 388 867 q 404 856 388 863 q 415 859 406 856 q 518 840 518 859 l 524 840 l 537 842 l 540 837 l 540 831 q 477 815 535 817 l 426 815 q 423 818 423 815 q 410 804 416 818 q 418 793 414 793 l 537 793 q 553 785 553 792 q 551 734 553 760 q 553 709 553 719 q 543 688 550 688 q 529 712 536 688 l 521 712 q 513 696 513 709 l 513 690 q 518 669 513 679 q 515 658 515 664 q 521 636 521 641 l 524 636 q 532 642 525 636 q 543 633 543 637 q 529 625 543 627 q 524 631 529 631 l 521 631 l 521 614 l 526 614 l 532 617 q 559 587 548 603 l 572 595 l 581 595 q 586 590 586 595 q 570 568 576 570 q 559 571 560 571 q 521 541 553 571 l 521 514 q 477 446 513 473 q 437 416 472 435 q 423 408 437 410 l 399 411 q 277 392 374 392 q 274 389 277 389 q 263 392 269 392 l 241 392 q 222 381 227 392 l 209 384 l 198 384 l 195 370 l 195 362 q 228 340 200 351 l 228 335 q 225 311 228 321 q 228 275 228 293 l 228 262 q 220 240 228 242 l 214 240 l 201 248 q 190 235 190 245 l 198 221 l 198 218 q 187 210 198 210 l 187 205 q 263 170 212 178 l 266 164 q 255 137 255 145 l 255 134 q 263 126 255 130 l 274 126 l 288 129 q 296 113 296 119 q 290 96 294 96 l 293 69 l 293 15 l 296 1 l 288 -4 l 269 -1 q 244 -7 251 -7 l 236 -7 q 233 -4 233 -7 q 225 -7 228 -7 q 222 -4 222 -7 l 209 -7 l 100 -7 q 79 7 85 -7 l 81 39 q 79 45 81 45 l 81 64 l 81 94 q 79 134 81 111 q 92 164 79 164 l 92 167 q 62 180 80 180 q 16 175 28 175 l 14 180 l 14 183 q 24 216 24 195 l 22 243 q 33 259 27 259 q 38 256 38 259 l 65 259 l 71 259 q 130 256 90 259 l 133 262 l 133 264 q 106 283 133 283 q 57 286 95 286 l 33 286 q 22 308 22 290 q 24 359 22 330 q 16 411 16 401 l 16 454 q 19 514 16 483 q 16 555 16 526 q 35 563 26 563 l 54 563 q 62 579 62 566 l 62 593 q 57 598 62 598 l 35 598 q 16 617 16 598 l 16 671 l 19 688 q 16 690 19 690 l 24 731 q 22 761 22 755 q 24 780 22 769 q 22 818 22 797 q 35 880 22 880 q 68 891 68 880 q 52 921 68 921 q 27 916 34 916 l 16 935 q 19 964 19 953 l 16 970 q 19 972 16 972 l 16 1005 l 16 1032 q 38 1043 16 1039 m 225 875 q 228 850 225 865 q 225 796 225 814 q 228 766 225 790 q 193 726 228 755 l 190 712 l 190 709 q 195 704 191 704 q 193 650 193 667 l 193 612 q 201 606 193 606 q 225 612 218 612 l 239 595 l 252 598 l 263 598 q 271 590 267 598 q 269 582 269 585 q 274 568 274 573 q 260 560 260 562 l 247 563 l 239 563 q 231 555 235 563 l 231 549 q 250 538 231 543 q 377 582 377 570 l 377 593 q 372 598 377 598 l 347 598 q 336 620 339 598 q 339 628 336 623 l 336 644 l 336 650 l 345 677 l 345 777 l 336 788 l 336 815 q 315 861 336 861 l 315 867 q 326 880 315 868 q 301 894 326 884 q 225 875 225 886 m 239 587 l 239 582 l 244 582 q 239 587 244 587 m 282 164 l 288 164 l 288 161 l 282 161 l 282 164 z "},"Q":{"ha":599,"x_min":14,"x_max":700,"o":"m 244 967 q 453 932 414 967 q 513 872 504 901 q 496 859 496 869 q 499 850 499 853 l 507 850 l 521 861 l 524 861 q 583 831 538 831 q 591 812 591 821 l 591 802 q 559 791 591 793 l 553 780 q 562 715 559 766 q 553 709 555 709 l 548 709 q 515 707 524 709 q 475 709 492 709 l 448 709 q 426 701 428 709 l 426 693 q 437 682 426 690 l 442 685 l 496 685 l 513 688 q 534 682 523 682 l 553 682 l 564 674 q 559 647 559 654 l 562 628 l 559 623 l 562 617 l 559 590 l 562 563 q 559 528 559 550 q 578 509 559 522 l 583 511 l 600 511 q 608 503 604 511 l 608 484 q 589 473 604 473 q 581 476 586 473 q 562 438 564 476 q 488 430 545 430 l 483 422 l 483 416 q 540 406 483 408 q 551 408 545 408 l 562 403 q 559 294 559 334 l 559 175 q 562 137 559 160 l 556 110 q 586 88 567 88 l 610 88 q 618 80 614 88 l 618 77 q 529 66 618 66 l 467 66 q 458 58 463 66 l 458 56 q 467 47 458 52 l 543 47 q 581 39 563 47 l 597 42 q 602 37 602 41 q 594 4 594 12 q 656 -12 625 -9 l 656 -96 l 654 -113 q 667 -126 654 -120 q 692 -123 682 -123 q 700 -132 696 -123 l 700 -145 q 651 -156 700 -154 q 640 -153 642 -153 q 613 -156 626 -156 q 502 -129 590 -156 q 448 -96 473 -129 q 380 -104 410 -104 l 312 -104 q 187 -72 249 -104 q 100 47 125 -34 q 76 85 96 85 l 49 85 q 16 137 16 85 q 14 148 14 137 l 14 153 q 49 167 18 167 l 62 167 q 136 156 73 167 q 176 159 159 159 q 203 151 198 151 l 222 153 q 236 99 230 148 q 282 88 258 88 l 301 88 q 350 53 330 53 q 396 80 368 53 l 388 85 l 380 85 q 342 96 342 85 q 353 137 350 106 q 350 142 353 142 q 353 183 353 170 l 353 406 q 350 430 353 415 q 353 449 353 433 l 353 463 q 377 479 362 479 q 380 476 380 479 q 393 495 393 480 l 393 503 q 382 511 393 506 l 377 509 l 374 509 q 353 522 359 509 l 353 663 q 336 777 353 777 l 336 783 q 355 802 336 802 l 355 804 q 334 810 345 810 l 328 810 q 255 791 286 791 q 228 753 240 777 q 176 747 206 753 q 163 750 172 750 q 144 739 153 750 q 155 728 146 728 q 182 731 158 728 q 228 715 228 724 l 228 571 q 225 547 228 562 q 228 530 228 543 l 214 525 q 209 528 209 525 q 149 525 168 525 l 27 525 q 16 544 16 530 l 16 566 q 19 595 16 586 q 16 631 16 613 l 16 682 q 35 796 22 796 q 76 812 76 796 q 79 821 79 818 q 76 829 76 826 l 60 829 q 49 840 56 829 q 98 910 77 910 q 171 956 98 925 q 244 967 218 967 m 529 764 l 529 755 l 534 755 l 534 764 l 529 764 m 260 514 l 274 506 q 255 473 274 473 q 228 449 228 473 q 225 397 225 412 q 228 330 225 374 q 225 286 225 290 q 228 186 228 234 q 212 180 219 180 l 209 180 q 163 189 174 189 l 138 189 q 62 191 104 189 q 41 189 52 189 q 16 202 18 189 q 19 392 16 256 q 14 430 14 428 q 95 444 14 444 q 117 441 98 444 l 130 444 q 168 441 147 441 l 171 446 l 171 457 q 165 463 171 463 l 57 463 q 46 460 51 463 q 22 468 22 463 l 22 471 q 30 479 22 475 l 54 479 q 65 500 58 479 l 95 506 l 109 503 l 127 506 q 149 503 142 503 l 163 506 l 176 503 q 198 506 183 503 q 236 503 215 503 q 260 514 248 514 m 46 427 l 38 416 q 54 408 41 408 l 79 408 l 92 411 l 92 419 q 84 427 92 421 l 79 425 l 65 425 l 46 427 m 632 -39 l 629 -45 q 635 -50 630 -50 l 637 -45 q 632 -39 637 -39 z "},"R":{"ha":601,"x_min":14,"x_max":635,"o":"m 30 1050 q 35 1047 35 1050 q 90 1050 72 1050 l 260 1050 q 499 982 451 1050 q 507 974 503 982 l 505 949 l 510 947 q 518 949 515 949 q 575 922 539 922 l 578 917 l 578 914 l 575 909 q 467 906 507 906 l 385 906 q 377 898 381 906 q 396 887 382 887 l 499 887 q 521 879 505 887 q 537 882 523 879 q 553 844 551 882 q 551 836 551 838 q 553 827 551 827 l 551 795 l 551 724 q 537 616 551 673 q 572 605 548 608 l 572 600 q 524 589 572 591 q 518 586 524 586 q 499 589 510 586 q 469 586 475 586 l 426 589 q 410 578 410 583 l 410 572 q 420 564 410 568 q 442 567 423 564 q 499 564 477 564 l 505 556 l 505 553 l 456 518 l 456 507 q 537 423 494 499 l 532 412 q 396 410 438 410 l 312 410 q 239 426 274 426 q 225 418 225 420 q 228 385 225 414 q 149 374 214 374 l 146 374 q 141 369 141 374 l 141 363 q 155 334 155 341 l 176 334 q 201 323 186 334 q 220 334 205 334 q 228 323 228 334 q 225 320 228 320 q 228 309 225 319 q 225 285 228 300 q 228 263 225 283 q 222 203 228 251 q 260 179 222 189 l 266 182 l 285 182 q 293 174 289 182 q 290 157 293 172 q 293 149 293 152 q 288 133 288 140 l 288 87 q 285 84 288 84 l 288 79 l 288 62 q 285 52 288 56 q 290 16 290 39 l 290 11 q 279 3 290 3 q 228 0 264 3 q 225 3 225 0 l 206 0 l 119 0 q 109 3 113 0 q 98 0 104 0 q 79 8 89 0 q 81 54 81 40 l 81 81 q 79 109 81 94 q 81 133 81 119 l 81 136 l 79 168 l 81 168 q 27 182 81 182 l 22 182 q 14 187 15 187 l 16 206 l 16 355 q 19 393 16 376 q 16 429 16 407 l 16 486 q 14 496 16 492 l 19 510 q 14 521 17 521 l 16 534 l 14 551 q 33 572 14 563 l 49 570 l 52 570 q 60 578 56 570 l 60 600 q 54 605 60 605 l 35 605 q 16 624 16 605 l 16 819 q 19 822 16 822 l 16 827 l 16 860 q 14 871 16 866 q 43 895 14 888 q 54 892 48 892 l 60 901 l 60 909 q 43 928 60 928 q 27 922 35 922 q 16 939 16 936 q 19 947 16 941 l 16 971 l 19 990 l 16 1004 l 19 1023 l 16 1042 q 30 1050 30 1047 m 247 884 q 239 887 241 887 q 228 871 228 884 l 228 841 q 225 719 228 794 l 228 703 q 198 673 228 673 l 193 662 l 201 648 q 203 651 203 648 q 228 640 228 648 l 228 637 q 225 627 228 631 q 239 602 232 602 q 258 608 244 602 q 269 597 269 605 q 266 589 266 591 q 285 581 278 581 q 353 600 338 581 l 353 605 l 336 605 q 328 613 332 605 l 328 616 q 353 654 336 654 q 369 651 365 654 l 442 656 q 458 654 446 654 q 469 662 469 658 l 469 665 q 453 673 467 673 l 382 673 q 380 675 380 673 l 374 673 l 353 673 q 345 681 349 673 l 345 700 q 342 738 345 721 q 345 765 345 752 l 342 798 q 345 825 345 812 q 317 876 334 859 q 320 884 320 882 q 288 895 302 895 l 247 884 m 342 391 l 366 388 q 374 391 369 388 l 388 388 l 404 391 l 423 388 q 480 391 471 391 q 548 380 548 387 q 553 307 553 314 l 553 301 q 545 293 553 297 l 526 293 q 496 288 523 293 l 483 288 q 472 290 477 288 q 461 279 468 290 q 477 269 464 269 l 494 269 q 537 266 509 269 l 543 269 q 556 250 556 264 q 553 241 556 247 q 556 222 556 231 q 551 203 551 205 q 600 182 561 182 q 621 174 612 182 q 616 136 618 143 l 618 119 l 618 117 q 616 95 618 106 q 635 11 618 62 l 624 3 l 618 3 q 567 0 597 3 q 564 3 564 0 l 545 0 l 437 0 q 410 46 416 0 l 410 127 q 399 179 410 179 l 382 179 q 345 190 345 179 l 345 331 q 326 382 345 346 q 342 391 336 391 m 201 217 l 195 203 l 201 201 l 209 201 q 214 206 214 201 l 214 209 q 201 217 210 209 z "},"S":{"ha":560,"x_min":7,"x_max":598,"o":"m 256 1058 q 414 1036 364 1058 q 503 963 463 1017 l 503 958 q 468 949 503 952 q 438 930 438 949 l 449 925 l 468 928 l 484 925 q 509 928 499 928 q 574 909 574 926 l 574 895 q 563 884 574 891 l 547 887 q 533 873 543 887 q 544 770 544 850 q 536 762 540 770 q 449 760 477 760 l 359 760 q 340 768 351 760 q 343 798 343 791 q 324 873 335 873 l 324 876 q 346 895 324 884 l 346 898 l 335 901 q 286 882 302 901 q 264 884 267 884 q 218 800 232 884 q 237 732 230 772 l 235 732 q 324 616 250 688 q 359 602 331 610 q 368 605 365 605 q 416 570 380 604 q 408 564 410 564 q 397 567 402 564 q 387 559 387 563 l 387 556 q 422 529 396 541 q 463 477 422 520 q 530 336 530 387 q 544 241 538 336 q 538 195 538 205 q 574 179 538 184 l 590 179 q 598 171 594 179 l 598 168 q 547 157 598 160 q 544 160 544 157 l 530 157 l 435 157 q 427 149 431 157 l 427 144 q 433 138 428 138 l 492 138 q 587 136 524 138 l 590 130 q 549 62 576 78 q 536 46 549 54 l 522 65 q 492 16 508 65 q 389 -5 453 -5 q 365 -14 389 -12 l 300 -14 q 156 33 225 -14 q 115 79 137 50 l 115 87 q 123 95 115 91 l 216 95 q 245 98 227 95 l 262 92 q 275 109 275 97 q 259 114 267 114 l 115 114 q 88 149 88 114 q 72 176 88 167 l 53 176 q 12 190 12 176 q 9 282 9 247 l 9 285 q 7 296 9 291 q 20 317 14 317 l 159 317 q 178 312 178 317 l 191 315 l 202 315 l 210 309 q 205 252 210 299 q 218 193 214 203 q 273 179 218 179 l 278 182 q 302 157 290 182 q 330 146 320 146 l 335 146 q 376 171 351 146 l 376 174 q 321 187 321 176 q 335 241 330 187 q 259 401 335 317 q 183 480 245 412 q 107 562 107 538 l 107 564 l 110 570 l 123 567 q 129 572 129 567 l 129 578 l 110 602 l 96 600 l 91 600 q 12 773 39 600 l 12 798 q 20 860 12 825 l 18 865 q 64 892 18 892 q 72 914 72 899 q 45 925 72 920 q 39 936 39 932 q 96 1006 71 998 q 256 1058 134 1058 m 514 854 l 514 846 l 517 846 l 517 854 l 514 854 m 194 800 q 202 789 198 789 q 208 795 208 789 l 205 808 l 202 808 q 194 800 198 808 m 178 288 l 178 285 q 175 244 175 251 l 180 241 l 183 241 q 194 252 187 241 q 186 277 194 267 q 191 285 191 283 l 191 288 l 178 288 m 514 239 q 511 198 514 215 l 522 198 l 517 239 l 514 239 m 536 92 l 528 79 l 533 76 q 541 84 537 76 l 541 87 q 536 92 541 92 z "},"T":{"ha":547,"x_min":-20,"x_max":579,"o":"m -1 1050 l 237 1050 l 286 1044 q 324 1050 315 1050 l 335 1050 q 373 1044 344 1050 q 414 1050 399 1050 l 419 1050 q 446 1047 432 1050 l 463 1050 q 525 1034 525 1047 l 525 1015 q 536 1001 533 1015 q 533 971 533 983 l 533 955 q 530 944 533 949 q 549 928 530 930 l 555 930 q 579 914 579 927 q 560 898 573 898 q 547 903 547 898 l 476 892 q 441 895 458 895 q 362 876 362 884 q 359 852 359 861 l 359 849 l 362 833 q 359 825 359 827 l 362 806 q 351 792 357 793 l 349 792 q 335 833 342 792 l 330 836 q 321 806 321 825 q 351 765 330 765 q 362 741 362 745 q 351 727 357 728 l 343 727 q 302 724 326 727 q 294 727 300 724 q 270 724 279 724 l 237 724 l 235 713 l 245 705 l 308 705 q 330 697 316 705 l 346 700 l 351 700 q 362 686 354 700 q 359 646 359 659 l 359 618 q 403 602 359 607 l 406 597 l 406 578 q 368 564 406 568 q 359 551 361 551 q 362 545 359 545 q 359 499 359 513 l 359 412 q 354 377 359 401 q 359 342 359 353 l 359 206 q 425 179 359 179 q 427 171 427 174 q 425 163 427 168 q 427 144 427 152 q 422 127 422 135 l 422 84 q 427 27 422 61 q 416 3 424 3 l 403 3 q 373 0 391 3 q 370 3 370 0 l 343 0 l 254 0 l 237 3 q 224 0 233 0 q 216 8 220 0 l 216 174 q 153 182 216 182 q 148 187 153 187 l 151 206 l 151 510 q 159 537 151 524 l 156 553 l 156 559 q 189 575 156 569 q 194 597 194 585 q 186 605 194 601 l 161 605 q 151 616 157 605 l 151 694 q 148 741 151 720 l 153 822 q 151 865 151 838 l 151 868 l 153 887 q 132 895 142 895 q 126 892 126 895 l 99 895 l 39 895 q 12 922 23 895 q 4 925 7 925 l -12 922 q -20 936 -18 936 l -18 963 l -18 968 q -20 1006 -18 983 q -18 1015 -18 1012 q -20 1036 -20 1025 l -20 1039 q -1 1050 -16 1050 m 498 947 l 498 939 l 503 939 q 509 944 509 939 l 509 947 l 498 947 m 327 491 q 335 456 329 456 q 343 494 335 469 q 338 513 338 505 q 340 524 340 517 l 335 526 q 327 491 329 526 m 330 393 q 332 385 332 388 l 340 385 q 346 391 346 385 l 346 393 q 340 399 346 399 l 335 399 q 330 393 330 398 z "},"U":{"ha":591,"x_min":20,"x_max":614,"o":"m 34 1063 l 66 1061 l 77 1061 q 88 1063 88 1061 l 107 1061 l 170 1061 q 213 1058 185 1061 q 221 1061 218 1061 l 235 1053 l 232 1034 l 232 1025 q 235 1015 232 1019 q 229 1004 233 1004 q 232 993 229 998 q 229 928 229 955 l 229 925 q 232 887 229 910 q 229 873 229 882 q 248 852 234 858 l 254 854 l 267 854 q 275 846 271 854 l 275 844 q 254 836 275 838 l 254 838 q 232 822 235 833 q 235 806 235 808 q 232 781 232 791 l 229 781 q 210 787 218 787 l 208 781 l 210 768 l 208 749 q 218 708 208 708 q 232 618 232 708 l 232 602 q 221 575 229 575 l 210 586 l 208 581 l 208 559 q 213 553 208 553 l 216 553 l 221 556 q 229 494 229 545 l 229 475 q 227 350 229 425 q 229 342 229 345 q 227 326 227 338 l 232 315 l 229 301 l 232 274 q 224 263 228 263 q 213 266 218 263 q 186 258 186 260 l 172 260 l 99 260 q 77 258 88 260 q 56 260 67 260 l 28 260 q 20 274 24 260 q 23 342 23 319 l 23 746 q 26 757 23 752 q 23 768 23 762 l 23 830 q 64 844 23 840 l 64 849 l 50 852 l 31 852 q 23 860 27 852 l 23 996 q 20 1034 23 1010 l 23 1039 q 20 1050 20 1044 q 34 1063 20 1053 m 365 1063 l 392 1061 l 492 1061 q 557 1050 557 1061 l 557 1047 q 555 1023 557 1038 q 557 1020 555 1020 l 555 993 l 555 876 q 574 854 555 854 l 593 854 q 601 846 597 854 q 593 836 597 836 l 574 836 q 555 814 555 836 l 557 808 q 552 795 555 795 l 555 781 l 555 689 q 557 643 555 664 q 555 602 555 631 l 555 578 l 557 545 l 541 537 q 538 540 538 537 l 519 537 l 414 537 q 389 526 393 537 l 389 518 l 403 515 l 536 515 q 557 507 556 515 l 555 494 l 557 483 q 552 469 555 469 l 555 442 l 555 250 l 547 236 q 579 195 554 195 q 601 187 579 190 q 606 193 602 193 l 609 193 q 614 187 614 192 l 614 184 q 604 168 604 174 l 606 152 q 549 57 606 128 q 509 33 543 57 q 435 8 509 26 q 340 0 383 0 q 178 41 241 0 q 96 187 96 125 q 26 212 26 191 l 23 228 q 34 241 28 240 l 64 241 q 77 244 73 241 l 94 241 l 170 241 q 180 244 176 241 q 213 231 213 236 l 218 233 l 221 233 q 243 206 238 233 q 289 193 254 201 q 300 195 294 195 q 362 160 334 160 q 403 184 394 175 l 403 187 q 397 193 403 193 l 370 193 q 349 203 355 193 l 349 214 l 357 225 l 357 366 q 359 429 357 400 q 357 483 357 444 l 357 540 q 359 548 357 548 l 357 562 l 357 830 q 395 844 357 841 q 381 852 395 848 l 365 849 l 357 860 l 357 1012 l 354 1028 q 357 1036 357 1034 l 354 1050 q 365 1063 354 1054 m 425 380 l 433 374 l 444 374 q 452 382 446 374 q 441 396 446 395 l 433 396 q 425 380 425 393 z "},"V":{"ha":644,"x_min":14,"x_max":632,"o":"m 30 1002 l 49 1000 l 71 1000 q 73 997 73 1000 l 79 1000 l 146 1000 q 171 1002 156 1000 q 201 997 175 1000 l 217 1000 l 228 986 l 228 975 q 252 802 239 880 l 271 791 l 288 793 l 293 793 q 301 785 297 793 l 301 783 q 288 772 300 777 q 263 774 273 774 l 260 769 l 260 761 q 279 639 264 639 q 304 465 285 536 q 307 463 307 465 q 304 452 307 456 q 323 340 315 369 l 320 335 q 323 327 323 330 l 326 327 q 345 435 334 327 q 353 468 348 435 q 350 490 350 483 q 377 661 361 522 l 374 666 q 388 682 378 682 q 423 677 412 677 q 472 680 452 677 q 526 677 491 677 l 532 677 l 572 669 q 551 538 572 648 l 548 519 l 551 514 q 515 267 515 309 q 494 151 494 218 q 543 132 494 138 l 551 121 l 551 113 q 545 96 551 105 l 548 91 q 537 31 545 58 l 540 26 q 524 -45 531 -38 q 513 -42 514 -42 q 469 -47 472 -47 q 456 -45 456 -47 q 415 -47 429 -47 l 290 -47 q 279 -45 284 -47 q 269 -47 275 -47 l 258 -47 q 233 -37 237 -47 l 233 -34 q 206 129 222 77 q 198 132 198 129 q 195 129 195 132 q 141 153 141 129 q 122 273 134 241 l 125 278 q 84 538 90 478 q 73 617 80 538 q 49 772 49 728 l 60 780 l 68 780 q 71 777 71 780 q 87 785 87 781 q 81 791 87 791 l 76 791 l 60 788 q 35 861 35 788 q 14 991 14 966 q 30 1002 14 996 m 442 1000 l 564 1000 q 602 997 579 1000 q 616 1000 607 1000 q 627 989 627 997 q 594 799 610 930 q 602 791 598 799 l 616 793 l 627 793 q 632 788 632 793 l 632 783 q 624 774 632 779 l 621 774 l 605 777 q 578 736 593 777 l 583 720 q 572 701 578 701 l 564 701 q 556 704 556 701 l 543 701 l 518 701 q 472 699 493 701 q 448 701 457 701 q 426 699 446 701 l 412 701 q 391 699 397 699 q 385 707 385 705 q 391 761 391 745 l 391 764 q 420 780 399 780 l 426 780 l 431 777 q 437 785 437 784 q 401 796 437 789 l 399 802 l 429 997 l 442 1000 m 543 655 q 534 639 536 639 q 543 628 538 628 l 551 639 l 551 647 q 543 655 551 651 m 255 647 l 255 644 q 258 579 258 584 l 263 579 q 269 606 264 606 q 258 647 264 647 l 255 647 m 518 487 l 515 481 q 521 476 516 476 q 524 484 521 479 l 518 487 m 241 425 l 241 422 q 252 414 241 414 q 282 416 276 416 l 282 425 q 260 433 281 433 l 258 433 q 241 425 241 431 m 285 403 q 279 381 279 386 l 282 381 q 296 397 286 381 l 296 403 l 285 403 m 515 72 l 515 66 l 521 66 l 521 72 l 515 72 z "},"W":{"ha":860,"x_min":14,"x_max":873,"o":"m 30 1043 l 43 1040 l 111 1040 q 122 1043 117 1040 q 133 1040 127 1040 l 174 1040 l 190 1038 q 203 1040 195 1040 q 220 1032 220 1039 q 214 1027 220 1027 l 190 1027 q 174 1016 174 1027 q 193 983 178 983 l 198 983 l 217 986 q 231 954 231 986 l 228 940 l 239 891 q 179 878 235 884 q 176 869 179 869 q 195 856 180 856 l 233 856 l 255 834 l 263 834 q 274 837 269 834 q 288 829 288 833 l 288 821 q 282 815 288 815 l 255 815 q 247 785 247 815 l 247 777 l 252 758 q 250 750 252 755 q 277 484 266 629 q 285 476 283 476 q 296 522 296 490 l 296 560 q 315 761 309 734 l 312 774 q 331 821 319 821 l 347 821 q 350 818 350 821 q 358 821 355 821 l 358 826 q 353 831 358 831 l 336 829 q 323 840 324 834 q 336 1032 336 959 q 353 1043 353 1041 l 372 1040 l 456 1040 q 551 1029 551 1040 l 548 1019 q 553 989 548 1017 q 551 986 553 986 q 572 834 560 834 q 578 831 578 834 l 597 837 q 610 826 609 831 l 610 823 q 602 815 610 819 l 600 815 q 589 818 593 815 q 570 807 585 818 l 600 484 q 602 476 602 484 q 510 465 602 465 l 464 465 q 407 468 442 465 q 388 457 388 463 l 388 452 q 399 444 388 444 q 401 446 401 444 l 415 444 q 442 446 428 444 l 461 444 q 513 446 491 446 q 521 444 515 446 q 524 446 524 444 q 572 444 528 446 q 727 446 605 444 q 779 444 757 444 q 787 430 787 435 l 762 199 q 800 172 762 172 l 817 172 q 822 167 822 172 l 822 164 q 806 61 814 86 q 757 47 806 56 l 656 47 q 640 39 640 46 l 640 37 q 648 28 640 33 l 738 28 q 806 15 806 23 l 806 7 q 673 -7 806 -7 l 602 -7 q 572 -4 591 -7 q 551 -7 570 -7 q 537 4 538 -1 q 540 26 537 16 q 518 167 526 129 l 510 172 l 494 172 q 483 161 490 172 l 486 156 q 477 137 480 137 q 480 134 477 134 q 469 4 475 101 q 399 -7 464 -1 l 228 -7 q 190 9 198 -7 l 193 28 l 174 170 l 160 172 q 152 170 157 172 q 109 199 109 170 q 73 530 73 498 l 76 541 q 41 812 63 585 q 76 826 73 822 l 76 829 q 65 831 70 829 l 60 829 q 33 888 33 829 q 14 1032 18 1015 q 30 1043 30 1041 m 675 1043 l 703 1040 l 795 1040 q 833 1038 810 1040 q 846 1040 838 1040 l 854 1029 q 846 978 849 1006 l 849 964 l 844 951 q 846 948 844 948 q 836 845 838 889 q 871 831 836 836 l 873 826 l 873 823 l 871 818 q 784 815 812 815 l 727 815 l 711 812 q 678 831 707 812 q 646 845 646 831 l 667 1038 q 675 1043 675 1038 m 662 821 q 684 796 681 821 l 694 791 q 703 793 697 791 q 708 791 708 793 q 730 793 728 793 q 825 791 811 791 l 830 783 q 808 604 817 756 q 798 544 803 604 l 798 519 q 795 517 798 517 l 798 511 l 798 500 q 754 473 798 479 l 673 473 l 635 463 q 610 476 625 463 q 624 636 618 528 q 635 742 627 640 q 646 812 639 742 q 662 821 656 821 m 163 761 l 171 755 l 176 755 q 182 761 182 755 l 182 769 q 176 774 182 774 l 171 774 q 163 761 165 774 m 269 425 l 269 411 l 274 411 l 274 425 l 269 425 m 757 425 l 757 414 l 760 414 q 762 422 760 416 l 757 425 m 437 305 q 423 189 431 291 q 439 178 426 178 l 445 178 q 453 186 449 178 q 439 305 453 305 l 437 305 z "},"X":{"ha":646,"x_min":14,"x_max":705,"o":"m 22 1050 l 54 1047 l 179 1047 q 236 1036 236 1042 l 233 1025 l 236 1012 l 233 998 q 266 933 251 998 q 258 928 258 930 l 239 930 l 198 930 q 182 920 184 930 q 195 906 186 906 q 282 892 282 906 q 304 844 292 844 l 315 838 l 334 844 q 345 836 345 840 l 345 830 q 336 814 345 816 l 334 814 q 320 825 332 814 q 309 808 309 822 l 309 806 q 331 743 328 743 q 355 817 340 743 q 404 830 366 824 l 407 836 l 399 841 q 374 838 384 838 l 372 844 l 372 846 l 380 857 q 377 873 380 859 q 429 1034 429 1013 q 448 1047 429 1047 l 567 1047 q 629 1039 629 1047 l 629 1036 l 600 944 l 581 890 l 575 890 q 529 884 529 889 l 510 887 l 450 887 q 439 884 444 887 q 429 887 435 887 l 423 887 q 401 873 408 887 q 418 863 404 863 l 439 863 q 467 865 452 863 q 477 863 468 865 l 496 865 q 562 863 530 863 l 564 863 q 570 857 570 862 l 567 844 q 600 833 600 840 l 600 830 q 589 822 600 822 q 581 825 586 822 q 545 784 550 825 q 524 741 528 741 l 521 741 l 515 743 l 515 738 l 521 730 l 521 722 q 502 684 521 684 q 496 697 496 690 l 491 697 l 488 686 q 496 656 488 667 l 496 646 q 480 597 496 635 q 461 570 480 570 q 401 567 430 567 l 361 567 q 355 562 355 566 l 355 551 q 363 543 355 547 l 418 543 q 439 537 429 543 l 456 540 l 461 540 q 486 469 467 540 q 507 399 493 460 q 540 304 520 380 l 570 231 q 632 179 570 179 q 640 182 637 182 q 662 130 654 182 q 678 92 671 130 q 689 54 685 92 q 705 14 696 51 l 705 11 q 684 3 704 3 l 678 3 q 675 5 675 3 q 646 0 665 0 l 532 0 l 515 3 q 505 0 511 0 q 477 49 477 10 q 450 127 471 49 q 437 174 445 127 q 369 182 421 179 q 326 320 326 300 q 315 334 326 334 q 282 239 303 334 q 269 201 277 239 q 293 179 269 188 l 317 182 l 320 176 l 320 165 q 288 57 288 91 q 271 14 279 57 q 179 0 271 4 l 157 0 l 141 3 q 127 0 136 0 q 114 3 119 0 l 98 0 l 81 0 q 68 16 68 8 q 122 171 106 111 l 122 174 q 117 179 122 179 l 92 179 q 68 190 71 179 l 68 195 q 149 437 111 319 q 163 483 157 437 l 176 491 l 209 488 q 233 491 218 488 q 279 488 262 488 q 336 491 289 488 l 342 488 q 353 496 353 492 l 353 507 q 347 513 353 513 l 220 513 q 195 510 210 513 q 179 521 179 516 q 182 553 182 540 q 127 716 127 713 q 109 773 122 720 q 95 814 106 774 l 95 819 q 106 827 95 823 l 111 825 l 125 827 l 125 836 q 73 873 73 836 q 14 1036 25 1017 l 22 1050 m 236 817 l 236 806 q 247 798 236 802 q 282 814 282 798 q 266 825 279 825 l 252 825 q 236 817 236 823 m 515 789 q 521 784 516 784 q 526 789 526 784 q 521 795 526 795 q 515 789 515 794 m 499 754 l 499 751 q 505 746 500 746 l 510 746 l 507 760 l 505 760 q 499 754 499 759 m 214 182 l 206 182 q 195 184 200 182 q 176 174 182 180 q 193 163 179 163 l 247 163 q 255 171 251 163 l 255 179 q 231 187 255 187 q 214 182 222 182 m 285 146 l 285 141 l 298 141 l 298 146 q 293 152 298 152 l 290 152 q 285 146 285 151 z "},"Y":{"ha":642,"x_min":7,"x_max":628,"o":"m 441 1029 l 460 1027 l 598 1027 q 609 1024 604 1027 q 620 1027 614 1027 l 628 1016 q 598 932 612 961 q 574 853 587 871 q 571 840 571 848 l 571 823 q 609 815 609 821 l 609 810 q 590 799 609 803 q 568 802 575 802 q 530 690 547 765 l 476 519 q 468 479 471 515 l 446 411 l 425 338 q 416 321 421 338 q 422 256 419 270 l 411 248 q 400 251 400 248 q 359 248 373 248 l 229 248 q 213 256 215 248 l 213 311 q 210 335 213 320 q 221 349 216 347 l 359 349 q 368 357 363 349 q 351 368 365 368 l 232 368 l 205 365 q 183 430 189 380 q 156 525 172 446 q 115 658 134 576 q 75 799 96 705 l 85 807 l 107 807 l 107 812 q 99 818 107 818 l 80 815 q 56 864 62 815 q 28 959 32 916 q 7 1016 23 965 l 7 1019 q 15 1027 7 1023 l 170 1027 q 199 1024 181 1027 q 213 1027 204 1027 q 232 994 229 1027 l 229 983 l 237 964 l 235 954 q 256 897 254 930 q 259 894 259 897 l 259 878 l 262 859 q 245 850 245 855 l 245 840 q 254 834 245 834 l 273 837 q 294 821 279 821 l 313 821 q 324 810 317 821 l 324 807 q 289 799 324 802 q 273 750 287 766 l 270 736 q 273 728 273 731 l 275 728 q 289 742 289 736 l 294 742 q 316 655 305 724 q 319 650 319 655 l 321 650 q 343 726 334 650 q 368 802 351 741 l 387 807 l 406 807 q 411 812 411 807 q 378 821 411 818 l 376 826 q 419 1013 419 998 q 441 1029 419 1023 m 576 940 l 585 935 l 587 940 l 587 954 l 585 954 q 576 940 578 954 m 224 932 l 224 916 q 229 924 229 916 q 227 932 227 929 l 224 932 m 454 547 l 452 528 l 454 514 q 465 536 460 514 q 457 547 461 547 l 454 547 m 454 509 l 454 500 l 457 500 l 457 509 l 454 509 m 218 224 l 406 224 q 422 213 422 224 q 416 199 416 204 q 435 167 416 167 q 484 156 469 161 q 487 83 487 106 l 487 7 q 468 -18 487 -18 l 460 -18 q 457 -15 457 -18 q 422 -20 445 -20 l 416 -20 q 321 -18 376 -20 q 302 -20 311 -20 l 297 -18 l 292 -20 q 273 -9 281 -20 q 275 31 275 18 l 275 104 q 278 129 275 114 q 256 159 278 159 q 213 170 213 159 l 213 199 l 210 218 l 218 224 m 403 205 q 400 199 403 199 q 403 191 403 194 q 408 197 408 191 l 408 199 q 403 205 408 205 m 454 121 l 454 104 l 460 104 q 463 113 460 107 l 460 126 q 454 121 454 125 z "},"Z":{"ha":609,"x_min":20,"x_max":598,"o":"m 39 1047 q 47 1044 47 1047 l 66 1047 l 275 1047 q 297 1044 287 1047 q 319 1047 308 1047 l 479 1047 q 517 1044 494 1047 q 528 1047 522 1047 q 538 1036 528 1043 q 533 944 533 1006 l 533 906 l 514 846 l 514 844 q 549 833 549 841 l 549 830 q 541 822 549 826 l 514 822 q 479 768 494 822 q 435 665 469 751 q 419 624 430 665 q 362 496 402 581 q 327 464 362 464 q 273 461 313 461 l 170 461 l 151 456 l 151 439 l 170 437 l 240 437 q 335 434 271 437 l 338 429 l 338 426 q 294 326 311 372 q 259 236 287 317 q 240 195 240 200 q 256 179 240 189 l 270 182 q 294 174 294 180 l 294 171 q 289 163 294 170 q 297 155 289 159 l 498 155 q 593 152 529 155 q 598 146 593 146 q 595 87 595 106 l 595 52 q 598 14 595 37 l 593 3 l 579 5 q 528 0 547 0 l 99 0 q 69 14 82 0 q 80 176 75 152 l 75 179 l 37 179 q 28 187 33 179 l 28 195 q 75 312 33 218 l 129 437 q 170 534 134 465 q 210 635 170 547 q 270 776 240 712 q 300 827 287 827 l 316 825 q 332 833 332 827 q 302 841 332 838 q 300 849 300 846 q 313 884 300 854 l 308 895 q 302 892 302 895 q 189 898 253 898 l 175 898 q 115 895 146 898 q 83 898 101 898 q 56 895 79 898 l 50 898 q 39 895 45 895 q 23 906 37 895 q 26 947 26 933 q 23 987 26 964 l 26 1001 q 20 1039 20 1035 q 39 1047 31 1047 m 425 713 l 425 711 q 430 705 425 705 l 433 711 l 433 719 l 430 719 q 425 713 425 718 m 411 670 l 411 665 l 416 665 q 425 673 420 665 q 419 678 425 678 q 411 670 415 678 m 349 529 l 349 526 l 354 526 q 359 532 359 526 l 359 537 l 357 537 q 349 529 353 537 m 270 326 l 270 320 l 273 320 l 273 326 l 270 326 z "},"[":{"ha":514,"x_min":0,"x_max":0,"o":""},"\\":{"ha":386,"x_min":0,"x_max":0,"o":""},"]":{"ha":514,"x_min":0,"x_max":0,"o":""},"^":{"ha":688,"x_min":0,"x_max":0,"o":""},"_":{"ha":694,"x_min":0,"x_max":0,"o":""},"`":{"ha":694,"x_min":0,"x_max":0,"o":""},"a":{"ha":623,"x_min":-26,"x_max":630,"o":"m 172 1050 l 359 1050 l 375 1047 l 380 1050 q 424 1047 408 1047 l 429 1047 q 443 993 441 1047 q 456 914 453 966 q 467 873 465 914 q 513 860 475 867 q 519 838 513 846 q 481 822 519 825 q 475 808 475 813 q 494 800 486 800 l 513 800 q 527 779 527 793 q 505 768 523 768 l 505 762 q 532 741 532 762 l 532 722 q 497 713 532 716 l 492 703 q 508 632 492 691 q 511 575 511 585 q 527 510 518 575 q 505 505 517 505 l 418 505 q 410 496 414 505 l 410 488 q 418 480 410 484 l 486 480 q 535 461 535 480 q 559 312 535 391 q 557 309 559 309 l 559 296 l 559 282 l 557 269 q 568 258 561 269 l 568 255 q 551 247 565 247 l 532 247 q 511 228 517 228 q 503 231 505 231 l 500 225 l 500 220 q 508 203 502 203 q 522 214 508 208 l 524 214 q 554 184 540 184 q 592 165 592 179 q 606 141 606 150 q 616 81 612 98 q 606 57 612 57 l 592 62 q 554 54 574 54 l 489 54 q 481 46 485 54 q 489 35 485 35 l 573 35 q 603 30 576 35 l 616 33 q 630 11 630 18 q 570 0 621 6 l 551 3 l 538 0 q 522 3 524 3 l 503 0 q 473 3 479 3 l 440 0 l 440 3 l 435 0 l 432 0 q 410 14 417 0 l 413 38 q 391 157 405 68 l 391 174 q 383 182 391 176 q 375 179 378 179 q 261 193 356 179 q 193 190 220 190 l 191 184 q 199 168 193 168 l 204 168 l 212 174 l 220 174 q 229 165 224 174 l 207 49 l 207 14 q 188 3 207 7 l 182 5 q 142 0 148 0 q 106 3 140 0 q 71 0 105 3 l 58 3 q 50 0 52 0 l 39 3 l 25 0 q 6 11 6 4 l 25 98 q 31 155 25 109 l 31 171 q 22 179 31 175 l -7 179 q -26 190 -22 179 l -26 193 q -21 222 -21 219 l -21 225 q -24 236 -21 231 q 22 252 -24 251 q 39 271 28 269 l 55 269 q 68 279 67 274 q 36 290 68 288 q 31 298 31 297 l 31 301 q 58 472 58 432 q 79 575 79 568 q 77 591 79 577 l 93 670 l 90 675 q 112 724 90 703 l 131 722 l 136 722 q 155 789 143 722 q 153 798 153 795 l 125 798 q 115 808 121 798 l 115 817 q 134 830 123 830 q 155 827 149 827 q 163 846 163 840 q 150 860 163 854 q 139 857 145 857 q 123 871 123 867 q 150 1039 150 1013 q 172 1050 161 1050 m 416 998 l 416 990 l 429 987 l 432 993 l 432 998 l 427 1006 q 416 998 416 1002 m 432 911 l 437 909 l 440 909 l 440 917 l 437 917 q 432 911 432 916 m 275 694 l 277 667 l 277 665 q 275 654 277 659 q 277 651 275 651 q 261 548 275 607 l 242 401 l 237 401 q 226 423 230 401 l 229 434 q 226 442 226 439 l 223 442 q 218 437 218 441 l 218 374 q 229 369 218 369 l 229 355 q 223 350 229 350 l 218 350 l 204 353 l 201 347 l 267 336 q 283 339 269 336 q 291 336 286 339 q 315 339 306 339 l 337 339 q 342 345 342 339 q 296 675 304 585 q 283 694 293 675 l 275 694 m 475 673 l 475 643 q 484 621 475 623 l 486 627 l 486 648 q 489 667 489 660 q 475 673 484 667 m 530 317 l 530 307 l 532 307 l 532 317 l 530 317 m 530 301 l 530 296 l 532 296 l 532 301 l 530 301 m 505 195 l 505 193 l 511 193 l 511 195 l 505 195 z "},"b":{"ha":607,"x_min":-14,"x_max":613,"o":"m 52 1016 l 285 1016 q 288 1013 288 1016 l 293 1016 l 296 1016 q 521 943 473 1016 q 559 861 536 937 q 578 829 559 842 q 600 831 593 831 q 613 821 612 826 l 613 807 q 578 788 613 788 l 570 777 q 586 766 572 766 l 605 766 q 613 755 613 766 q 610 712 613 740 l 613 699 q 570 680 613 682 q 537 585 562 671 q 510 555 533 585 q 469 530 497 550 l 469 522 q 537 479 499 513 q 526 471 537 471 q 507 473 518 471 q 480 471 493 471 l 475 471 q 464 473 464 471 l 445 471 l 374 471 q 358 460 358 471 q 377 446 362 446 l 548 446 q 570 416 570 431 l 570 389 q 562 370 570 380 l 562 359 l 575 362 q 586 297 582 362 q 583 251 583 276 l 583 240 q 589 218 583 237 q 559 213 578 213 l 548 213 l 543 194 l 543 161 q 591 140 543 151 l 591 137 l 589 132 q 594 115 594 123 q 570 61 581 97 q 543 31 565 61 q 461 20 534 20 q 420 26 420 20 l 388 20 q 350 26 383 22 q 304 20 328 20 l 279 20 q 263 12 263 19 l 263 4 l 266 -1 l 312 4 q 336 -4 330 -4 l 353 -4 q 385 4 355 -4 l 420 -7 q 453 1 445 1 l 469 1 q 475 -4 475 1 l 475 -7 q 448 -20 475 -15 q 420 -18 444 -20 q 385 -31 399 -31 q 334 -28 377 -31 q 317 -34 317 -31 q 304 -31 309 -34 q 193 -34 233 -34 l 87 -34 q 52 -23 52 -32 l 54 -9 q 52 -7 54 -7 l 54 12 l 54 58 l 52 77 q 84 85 62 85 q 127 83 100 85 q 146 85 136 83 q 241 83 201 83 l 323 83 q 361 85 338 83 q 374 83 366 83 q 391 88 379 83 q 369 104 385 104 l 282 104 q 258 102 268 104 q 231 104 243 104 l 84 104 l 68 102 q 52 121 52 109 l 54 126 q 43 145 50 145 l 16 145 q -11 159 -5 145 l -11 189 l -14 208 l -3 216 l 22 216 q 54 245 54 216 q 33 273 54 250 l 33 500 q 49 509 35 509 l 201 509 q 209 517 205 509 l 209 519 q 193 528 206 528 q 182 525 182 528 l 155 528 l 109 528 q 81 525 96 528 q 57 528 71 528 l 41 528 q 33 544 33 530 l 33 631 l 35 647 q 33 661 33 652 l 33 666 q 73 690 33 690 l 79 726 q 68 764 79 764 q 60 766 65 764 l 46 764 q 33 774 34 769 l 33 783 q 57 796 33 791 l 76 796 q 79 804 76 799 q 49 826 79 826 q 30 842 41 829 l 33 856 q 35 910 33 880 q 33 945 33 933 l 35 964 q 33 997 33 979 q 52 1016 33 1016 m 244 853 l 244 842 q 282 829 244 832 l 285 823 l 285 810 q 277 788 285 790 l 274 788 q 263 812 267 788 l 258 815 l 255 815 l 252 802 l 263 791 q 225 774 241 774 q 212 758 212 774 l 212 753 q 258 739 212 745 q 282 742 273 742 l 285 736 l 285 690 q 277 682 285 686 l 269 682 q 258 685 262 682 q 241 628 241 685 l 241 620 q 252 590 241 597 q 331 612 331 600 q 350 639 331 618 l 358 663 q 355 671 355 669 q 399 690 368 690 l 404 728 q 388 766 404 766 l 385 766 l 366 764 l 358 780 q 369 796 358 783 l 382 793 l 388 793 q 396 802 392 793 l 396 807 q 380 826 385 826 l 361 826 q 312 856 353 826 l 298 859 l 279 859 q 255 861 270 859 q 244 853 244 857 m 241 425 l 244 419 q 239 397 244 408 q 241 387 239 396 q 239 373 241 378 q 241 335 241 350 l 241 297 q 239 262 241 279 l 244 218 q 228 213 235 213 l 209 213 q 190 194 207 213 l 174 194 l 171 183 l 179 178 q 195 183 190 183 q 214 151 207 155 l 233 145 l 236 145 l 252 148 q 269 126 266 148 l 282 123 l 293 123 q 372 140 372 123 q 342 148 372 148 q 334 145 339 148 q 320 156 321 151 l 334 197 q 331 205 331 202 q 372 218 344 218 l 374 224 l 374 343 q 320 430 374 407 q 269 435 306 430 l 252 435 q 241 425 250 435 m 548 395 l 551 381 l 556 381 l 553 395 l 548 395 m 513 194 l 513 189 l 518 189 q 513 194 518 194 z "},"c":{"ha":612,"x_min":-7,"x_max":620,"o":"m 275 1101 l 292 1099 l 335 1099 q 430 1080 430 1090 l 430 1077 l 411 1074 l 338 1074 q 321 1066 321 1073 l 321 1063 q 340 1050 321 1061 l 368 1053 l 438 1053 q 460 1047 450 1053 q 479 1050 471 1050 q 519 1015 519 1040 q 503 1009 511 1009 l 354 1009 q 346 1001 350 1009 l 346 998 q 354 990 346 994 l 435 990 q 460 987 445 990 q 476 990 464 990 l 522 982 l 536 985 q 560 925 547 977 l 576 901 l 582 903 l 595 903 q 614 871 614 903 q 579 857 610 866 l 574 849 q 590 836 574 844 l 604 838 l 609 838 q 620 827 613 838 q 606 808 614 810 l 587 808 l 585 803 l 587 787 l 590 787 l 601 798 l 612 798 l 612 789 q 617 768 617 770 l 617 762 q 582 751 617 754 q 563 735 582 747 q 506 730 540 735 l 463 732 q 452 730 456 732 q 422 732 433 732 l 387 732 q 368 743 372 732 q 384 760 368 747 l 389 760 l 408 757 l 416 770 l 414 784 q 416 792 414 787 q 414 817 414 807 l 414 833 q 370 846 370 836 l 370 849 q 384 868 370 864 q 408 865 399 865 q 414 876 414 872 q 387 895 414 895 q 340 933 358 895 l 300 941 q 259 911 287 941 l 259 909 q 264 903 260 903 l 289 903 q 297 895 293 903 q 292 887 297 894 q 294 876 292 881 q 256 860 294 862 l 245 846 q 289 833 254 838 l 289 819 q 286 808 289 813 q 292 762 289 806 q 248 749 286 757 l 245 743 q 248 730 245 734 q 245 678 245 700 l 245 659 q 243 648 245 653 q 245 637 245 644 l 245 635 q 243 624 245 624 l 245 605 l 245 483 q 248 461 245 472 q 245 439 245 451 l 245 361 q 243 334 245 348 q 245 309 245 323 l 245 293 q 208 282 245 286 l 205 277 l 205 271 q 227 225 205 225 q 262 217 255 217 l 283 217 q 330 187 299 187 l 332 187 q 373 214 373 197 q 319 231 319 218 q 346 290 327 290 q 354 285 354 288 q 373 298 371 290 l 373 401 l 370 418 q 384 434 374 429 l 406 434 q 441 431 428 434 q 479 434 458 434 l 503 434 q 552 426 526 434 q 560 429 557 429 q 574 410 574 412 q 549 374 574 374 q 519 369 530 374 q 509 372 510 372 q 463 369 477 369 q 446 372 460 369 q 438 369 441 369 q 408 372 420 372 l 403 363 l 403 355 q 408 350 404 350 l 481 350 q 574 336 574 350 l 574 331 q 568 309 574 328 q 574 293 574 300 q 533 282 574 286 q 509 260 530 272 q 525 239 524 260 q 522 231 522 233 q 587 214 538 223 l 587 212 q 530 198 587 205 l 473 198 q 463 201 467 198 q 452 193 452 197 l 452 182 l 465 179 l 555 179 q 574 168 570 179 q 343 27 516 27 q 151 71 186 27 q 91 141 102 111 q 69 198 75 170 q 58 217 64 217 l 50 217 q -1 228 -1 217 l -1 260 l -7 279 q 4 290 -3 279 l 23 288 l 28 288 q 39 304 34 288 q 37 347 37 332 l 37 377 q 39 388 37 388 l 37 407 l 37 686 q 53 757 37 757 q 80 770 80 757 q 77 833 77 821 q 39 841 70 838 l 37 846 l 37 854 q 80 868 37 866 l 85 879 q 53 901 85 901 l 45 911 q 69 987 45 933 q 275 1101 133 1101 m 129 811 l 129 806 q 142 795 130 800 q 186 798 170 798 l 199 798 q 205 803 205 798 l 205 811 q 199 817 205 817 l 142 817 q 140 819 140 817 q 129 811 129 815 m 172 260 q 178 247 173 247 q 186 250 183 250 l 186 258 q 178 266 186 262 q 172 260 172 265 z "},"d":{"ha":580,"x_min":-34,"x_max":604,"o":"m 31 1050 l 227 1050 q 229 1047 229 1050 l 235 1050 l 251 1050 q 416 1034 372 1050 q 511 966 485 1010 q 533 933 533 943 l 530 928 q 544 884 541 911 q 555 876 555 883 l 549 868 q 454 865 486 865 l 419 865 q 408 868 413 865 l 359 857 q 308 887 338 857 q 245 895 281 895 q 218 884 218 892 l 218 876 q 237 865 223 865 l 256 865 q 264 857 260 865 l 259 846 q 262 836 262 842 q 243 825 258 825 q 240 827 240 825 q 218 811 222 820 q 256 798 218 802 q 264 746 264 789 l 264 724 q 227 713 264 717 q 218 697 218 707 l 218 372 q 216 347 218 362 q 221 258 221 329 l 221 255 q 180 244 221 248 l 178 239 l 178 190 q 240 174 240 178 q 248 157 240 157 l 300 157 q 340 174 340 165 q 324 182 340 178 l 319 179 q 294 190 294 182 l 294 195 q 302 220 302 205 l 302 239 q 346 255 302 245 l 349 260 l 349 675 q 351 686 349 682 q 349 697 349 691 q 370 724 353 724 l 376 722 q 395 732 395 726 l 395 751 q 387 800 395 800 l 378 800 q 368 798 372 800 q 349 811 351 803 q 387 830 349 827 q 406 844 387 837 q 441 841 431 844 q 495 844 471 844 l 514 844 q 595 841 541 844 l 601 833 q 563 819 601 827 l 557 808 q 601 795 570 801 l 601 779 q 604 735 601 763 l 601 730 q 604 722 604 724 q 568 713 600 717 l 560 703 l 560 692 q 563 648 560 676 q 560 640 560 643 q 563 621 563 629 q 560 616 563 616 l 563 597 l 563 369 q 557 326 563 357 q 563 293 563 307 l 563 290 l 555 263 q 560 258 560 262 l 560 255 q 522 244 560 248 q 511 203 516 238 q 571 174 511 184 l 571 168 q 555 144 564 147 l 538 144 q 509 138 512 138 l 457 138 q 441 130 441 137 l 441 125 q 446 119 441 119 l 484 119 q 487 117 487 119 q 495 119 492 119 q 547 109 547 119 l 547 100 q 511 57 537 92 q 302 0 437 0 q 292 3 293 3 q 281 0 282 0 q 248 3 267 0 q 145 0 192 0 l 140 0 q 102 3 125 0 q 94 0 96 0 l 80 3 q 47 0 61 0 q 28 8 41 0 q 34 76 34 38 l 34 163 q 26 179 34 177 l -20 179 q -31 190 -24 179 l -31 214 l -34 241 l -23 250 l 1 250 q 9 266 9 252 l 9 510 q 12 608 9 557 q 9 684 9 616 l 9 708 q 53 727 9 718 l 53 738 q 56 765 53 751 q 31 800 56 800 q 9 808 9 800 l 9 814 q 26 830 9 818 l 42 827 q 53 836 53 831 l 53 841 q 39 860 53 860 q 28 857 30 857 q 9 873 16 862 l 9 939 q 12 941 9 941 l 9 947 l 9 1009 l 7 1042 q 31 1050 17 1050 m 481 979 l 481 971 l 487 971 l 487 974 q 481 979 487 979 m 509 928 l 506 922 l 506 917 q 511 911 507 911 l 514 917 l 514 922 q 509 928 514 928 m 85 811 l 85 808 q 94 800 85 806 l 113 803 l 191 803 q 199 811 195 803 q 180 822 195 822 l 96 822 q 85 811 92 822 m 579 762 q 585 757 580 757 l 587 762 l 587 768 l 585 768 q 579 762 579 767 m 113 551 q 123 543 113 543 q 170 548 141 543 l 170 559 q 156 570 170 563 q 113 553 113 570 l 113 551 m 528 296 q 536 282 531 282 l 541 282 q 549 334 549 304 q 528 296 534 322 m 199 304 l 199 293 l 202 293 l 202 304 l 199 304 m 145 228 l 145 212 l 151 212 q 161 222 155 212 q 145 228 153 228 m 511 98 l 511 92 q 519 95 517 95 l 519 98 l 511 98 z "},"e":{"ha":549,"x_min":-34,"x_max":530,"o":"m 28 1070 l 148 1070 l 164 1067 q 178 1070 169 1070 l 178 1067 q 180 1070 180 1067 q 202 1067 199 1070 q 294 1070 259 1070 l 427 1070 q 430 1067 430 1070 l 435 1070 q 503 1067 488 1067 q 509 1057 509 1061 q 500 1035 507 1035 q 422 1032 441 1032 q 395 1035 398 1035 l 389 1027 l 389 1021 q 397 1013 389 1017 l 457 1013 q 506 994 506 1013 q 503 991 506 991 l 506 964 l 506 926 q 500 918 506 925 q 419 916 446 916 l 248 916 q 221 902 227 916 q 262 883 221 886 l 267 875 l 267 872 q 232 845 267 845 q 227 829 227 836 l 227 826 q 267 812 267 823 q 254 799 267 805 q 245 802 245 799 q 199 799 214 799 l 137 799 q 115 791 117 799 l 115 783 l 129 780 l 180 780 q 270 761 270 780 q 262 736 268 736 l 240 736 q 221 723 225 736 q 224 715 221 720 l 221 701 l 224 685 q 221 650 221 667 l 221 639 q 281 628 221 628 l 444 628 q 452 620 448 628 l 452 614 q 449 612 452 612 q 452 609 449 609 q 449 555 449 572 l 449 538 q 452 495 449 523 q 387 476 452 476 l 259 476 q 221 460 221 476 l 221 457 q 224 403 221 443 l 216 397 q 142 395 161 395 l 126 397 q 99 395 112 395 l 83 395 q 47 397 65 395 q 20 395 38 395 q 12 403 20 399 q 15 476 15 453 l 15 723 q 26 745 18 743 q 50 742 41 742 q 56 750 56 749 l 56 802 q 20 821 56 821 l 15 829 q 50 850 15 850 l 53 856 l 53 878 q 42 886 53 884 q 26 883 28 883 q 12 894 22 883 l 15 907 l 15 1002 l 18 1019 q 12 1065 16 1022 q 28 1070 21 1070 m 26 376 l 39 373 l 156 373 q 208 370 178 373 l 213 373 q 227 362 225 368 l 218 349 l 218 343 l 221 327 q 216 311 216 318 q 224 294 224 308 l 224 292 q 221 289 224 289 l 224 283 l 224 275 q 216 267 224 271 l 191 267 q 180 248 186 267 q 183 232 180 246 q 180 224 180 227 q 216 199 180 211 l 229 202 l 237 202 q 251 178 242 202 q 297 175 283 175 l 473 175 q 500 170 500 174 l 506 172 l 522 172 q 528 167 528 172 l 528 132 l 525 115 q 528 113 525 113 l 525 94 l 525 83 l 528 64 q 522 58 522 63 l 522 56 q 530 37 530 45 l 530 34 q 522 26 530 30 l 519 26 q 454 20 458 20 l 53 20 q 34 31 41 20 l 37 45 l 37 159 q 18 199 37 199 q -28 210 -28 202 l -28 227 q -26 237 -28 233 q -34 262 -34 259 q 9 273 -26 270 q 15 281 15 279 l 15 283 q 12 365 15 311 q 26 376 26 374 m 153 251 l 151 245 l 151 240 q 156 235 151 235 l 161 243 q 153 251 161 247 z "},"f":{"ha":505,"x_min":-34,"x_max":495,"o":"m 20 1050 l 400 1050 q 487 1047 429 1050 l 492 1039 l 492 979 q 435 971 492 971 l 392 971 l 378 968 l 378 958 q 395 947 378 954 l 400 949 l 406 949 q 487 947 433 949 q 495 914 495 932 q 425 895 495 895 l 237 895 q 218 882 222 895 q 248 865 218 865 q 267 833 267 865 q 243 825 252 825 l 243 827 q 221 817 221 823 l 221 811 q 264 795 221 804 q 267 792 264 792 l 264 765 l 264 749 l 267 732 q 227 713 267 713 q 221 697 221 705 l 221 629 l 218 597 q 251 583 233 583 l 300 583 q 373 586 335 583 q 438 575 438 582 l 438 572 q 433 556 433 564 l 433 510 q 435 442 433 487 l 427 437 l 403 437 q 381 431 400 437 l 351 431 q 262 434 312 431 q 221 412 221 434 l 221 372 q 216 366 221 366 l 199 366 q 170 361 173 361 l 31 361 q 12 372 17 361 l 12 529 q 9 591 12 563 q 12 646 12 606 l 12 697 q 26 722 18 722 l 39 722 l 45 719 l 53 730 q 50 741 53 736 q 53 765 53 755 l 53 789 q 18 800 53 798 l 12 808 l 12 811 q 31 830 12 830 q 42 827 37 830 q 53 836 53 831 l 53 852 q 18 863 53 860 q 12 879 12 871 l 12 982 l 15 998 q 9 1042 13 1005 l 20 1050 m 189 632 l 189 629 l 194 629 l 194 637 q 189 632 189 637 m 20 339 l 123 339 q 227 328 227 339 q 218 296 222 319 l 221 282 l 221 258 q 202 247 217 247 l 194 247 q 191 250 191 247 q 175 231 175 243 q 178 201 178 212 l 178 193 q 218 179 178 187 l 237 179 q 248 165 243 178 q 240 152 243 152 l 245 41 l 243 35 q 245 24 245 31 l 245 22 q 237 5 245 7 l 235 5 q 170 0 174 0 l 50 0 q 31 8 41 0 q 34 22 31 17 q 31 100 31 70 l 31 117 q 34 141 31 126 q 31 144 34 144 l 34 157 l 34 160 q -7 182 34 182 l -12 179 q -34 190 -21 179 q -28 217 -28 213 l -31 244 l -20 252 l -1 250 q 15 271 15 256 l 9 331 l 20 339 m 145 222 l 145 217 q 151 212 146 212 q 164 222 163 217 q 159 228 164 228 l 151 228 q 145 222 145 227 m 213 98 l 218 98 q 229 125 218 115 l 229 127 l 224 127 q 213 98 213 125 z "},"g":{"ha":603,"x_min":-27,"x_max":594,"o":"m 304 1051 q 477 989 425 1051 q 518 940 494 983 q 524 921 524 940 q 510 913 510 918 l 510 894 q 518 872 510 874 l 524 872 q 529 878 529 872 l 529 886 l 521 897 l 521 907 l 526 907 q 548 859 548 869 q 591 837 591 859 l 591 823 q 559 812 591 815 q 553 802 559 808 q 564 788 564 789 l 583 791 l 586 791 q 594 783 590 791 l 594 774 q 589 761 594 761 q 594 712 594 725 q 559 704 590 707 q 469 685 559 685 l 448 685 q 426 682 437 685 q 404 685 416 685 l 366 685 q 345 696 351 685 q 391 715 350 711 q 393 723 391 718 l 391 736 q 396 753 396 745 q 355 793 396 793 l 350 802 q 358 818 352 818 l 382 818 q 391 829 391 818 q 377 850 381 850 l 358 850 q 315 888 342 850 q 290 894 297 894 l 282 894 q 239 867 264 894 l 239 864 q 271 853 239 856 q 274 845 274 848 l 271 840 q 274 829 274 835 q 266 812 274 823 l 252 815 l 239 815 q 225 802 235 815 q 241 788 225 797 l 255 791 l 263 791 q 269 785 269 790 l 269 739 q 266 736 269 736 l 269 731 l 269 715 q 228 701 269 709 q 225 699 228 699 l 228 666 l 228 639 q 225 601 228 624 q 228 593 228 595 l 225 574 l 228 547 q 225 506 228 533 q 228 376 228 442 q 222 340 228 362 q 228 308 228 321 l 228 248 q 184 235 228 238 l 182 229 q 214 175 182 175 q 288 142 260 175 q 320 140 292 142 q 345 151 320 146 q 350 167 350 159 l 339 172 q 317 170 324 170 q 296 186 296 174 q 309 235 307 208 l 320 243 l 336 240 q 350 248 350 243 l 350 378 q 347 389 350 385 l 350 395 q 317 422 350 422 q 271 435 283 422 q 274 471 271 448 q 271 557 271 522 q 269 566 269 563 q 290 576 280 576 l 304 576 q 334 579 324 576 q 369 576 351 576 l 410 576 q 434 579 419 576 q 445 576 439 576 q 475 579 463 579 q 524 555 475 562 l 543 555 q 551 519 551 555 q 548 509 551 509 l 551 481 l 551 376 q 548 256 551 328 q 551 243 551 252 q 534 237 542 237 l 529 237 q 526 240 526 237 q 505 202 505 240 q 502 180 502 187 q 567 156 567 170 l 545 102 q 307 -20 488 -20 q 144 12 192 -20 q 73 91 86 47 q 41 170 68 93 q 33 172 38 170 q 5 170 9 170 q -24 183 -24 173 q -22 216 -24 188 q -27 232 -27 227 q 11 243 -20 239 l 16 256 l 14 300 q 16 343 14 322 q 14 438 14 389 q 16 484 14 456 q 14 530 14 496 l 24 563 l 24 566 q 14 609 14 606 q 16 647 14 624 l 14 652 q 16 677 16 667 l 14 693 q 54 718 14 707 l 57 723 q 54 731 57 731 l 57 745 l 57 774 q 14 799 53 783 l 14 802 q 60 821 14 816 l 62 826 l 62 834 q 33 853 62 853 l 22 864 q 71 975 29 909 q 252 1051 129 1051 l 304 1051 m 564 764 l 564 747 l 570 747 l 572 761 l 572 764 l 564 764 m 195 655 l 195 647 q 203 617 203 638 l 206 617 q 220 650 206 634 q 203 663 218 663 q 195 655 199 663 m 144 471 l 117 471 q 114 463 117 468 q 127 449 115 455 l 133 452 l 141 452 q 144 449 144 452 q 157 454 153 454 l 157 465 q 149 473 157 467 l 144 471 m 117 397 q 133 387 119 387 l 165 387 q 174 395 170 387 l 174 400 q 160 408 174 406 q 152 406 157 408 q 130 408 137 408 q 117 397 119 408 m 475 216 l 475 205 l 477 205 q 483 210 483 205 l 483 216 l 475 216 m 152 210 l 152 208 l 157 208 l 157 210 l 152 210 m 518 110 l 518 107 l 521 107 q 526 113 526 107 l 526 115 l 524 115 q 518 110 518 115 z "},"h":{"ha":609,"x_min":-27,"x_max":627,"o":"m 41 1023 l 119 1023 q 228 1020 159 1023 l 231 1015 l 231 1009 q 222 1001 231 1005 l 225 987 l 225 977 q 222 966 225 966 l 225 947 l 225 852 q 269 836 225 839 l 274 811 q 263 798 269 799 l 239 798 q 228 781 228 792 q 269 770 235 774 l 271 765 l 271 697 q 233 686 271 689 q 222 665 224 665 l 225 651 q 222 637 225 642 q 225 613 225 623 l 225 589 q 252 575 231 575 l 298 575 q 372 581 329 575 q 396 570 388 570 l 551 570 q 583 559 583 570 q 581 537 583 540 l 583 510 q 578 429 583 483 q 583 407 583 415 q 581 353 583 393 q 583 317 581 351 l 581 290 l 583 274 l 581 274 l 583 269 q 581 266 583 266 l 583 260 l 583 233 q 543 217 583 222 q 532 198 534 198 q 537 176 537 188 l 537 165 q 532 160 537 160 l 513 160 q 491 155 510 160 l 423 155 q 404 133 408 133 q 393 127 404 127 q 380 155 387 150 l 366 152 l 358 152 q 323 160 336 152 l 326 193 l 323 212 l 331 225 l 350 222 l 358 222 q 369 233 362 222 q 363 266 369 249 q 366 274 366 271 q 363 293 366 290 q 366 350 366 328 l 366 399 q 355 420 366 410 q 347 418 350 418 q 312 423 323 423 l 250 423 q 225 407 235 423 q 228 401 225 401 q 222 323 222 345 q 225 320 225 323 l 220 317 q 201 326 206 326 q 176 320 181 323 l 160 323 l 157 323 q 136 320 146 323 l 122 323 l 84 320 q 24 323 48 323 l 16 334 l 16 673 q 60 700 16 694 q 62 732 60 718 q 60 743 60 742 l 62 757 q 19 776 62 769 l 16 781 l 16 789 q 60 806 16 798 l 62 819 q 22 838 62 828 q 16 854 16 847 l 16 898 q 19 985 16 941 q 16 1015 16 1000 q 41 1023 26 1023 m 391 1023 l 483 1023 q 578 1020 514 1023 l 583 1012 l 581 998 q 583 987 581 997 q 581 955 581 968 q 583 947 581 952 l 581 941 q 583 876 583 903 l 583 863 q 581 852 583 857 q 591 838 586 840 l 616 838 q 627 814 624 838 q 597 798 627 798 q 581 781 589 798 q 621 770 586 773 l 624 765 q 621 735 624 759 q 624 713 621 733 q 608 689 624 689 q 581 678 583 689 l 581 675 q 583 602 581 652 q 578 597 578 602 q 496 594 524 594 l 410 594 q 369 591 396 594 q 363 597 369 597 l 366 629 l 366 654 l 363 681 q 410 700 370 693 q 412 754 412 736 q 372 776 412 770 l 369 781 l 369 789 q 410 806 369 798 l 412 811 q 393 833 412 833 q 366 846 374 833 l 366 974 l 363 990 q 366 1001 366 995 l 363 1015 q 391 1023 378 1023 m 247 743 l 247 738 q 252 743 252 738 l 247 743 m 553 632 l 553 624 q 559 629 559 624 l 553 632 m 106 597 l 106 589 q 122 581 109 581 l 176 581 q 198 589 197 581 l 198 591 q 190 608 198 602 l 163 602 l 146 605 l 122 605 q 119 608 119 605 q 106 597 107 602 m 551 407 l 556 404 l 559 404 q 567 434 567 425 q 551 407 553 434 m 41 282 l 160 282 q 212 277 206 277 l 225 277 q 231 271 231 276 l 231 269 q 222 252 231 254 q 231 228 231 237 q 195 220 221 220 q 193 222 195 222 l 184 212 l 184 168 q 214 152 184 163 q 217 136 217 148 l 228 136 q 244 152 228 152 q 250 146 245 146 q 244 106 246 111 q 247 76 247 87 l 247 24 q 250 -16 247 11 q 201 -27 243 -21 l 187 -24 q 160 -27 163 -27 q 111 -24 116 -24 l 79 -27 l 73 -24 q 54 -27 62 -27 q 35 -19 47 -27 l 38 0 l 38 141 q 22 155 38 146 l 3 152 l -5 152 q -27 163 -20 152 l -27 203 q 8 225 -27 225 q 16 244 16 235 l 16 247 q 11 263 16 254 q 41 282 11 279 m 193 250 l 193 239 l 201 239 q 203 250 203 248 l 193 250 m 396 117 q 418 114 399 117 q 431 117 427 114 q 469 114 454 114 l 515 114 q 600 100 600 114 l 600 95 l 597 71 q 600 52 600 60 q 578 41 578 45 l 578 30 q 583 24 578 24 q 589 30 584 30 l 597 16 l 594 11 q 602 -11 602 -3 q 543 -27 602 -24 q 540 -24 540 -27 l 521 -27 l 437 -27 q 426 -24 431 -27 q 415 -27 421 -27 l 410 -27 q 388 -14 395 -27 q 391 27 391 14 l 388 33 l 391 38 l 388 62 q 391 114 391 92 l 396 117 m 212 73 q 220 62 216 62 q 231 87 225 79 l 231 98 l 228 98 q 212 73 225 98 m 222 46 l 220 33 l 220 27 q 231 38 224 27 l 231 46 l 222 46 z "},"i":{"ha":296,"x_min":-27,"x_max":274,"o":"m 33 1050 q 46 1047 41 1050 q 98 1050 76 1050 l 117 1050 q 225 1047 157 1050 q 231 1042 226 1042 q 222 993 228 1009 q 228 971 228 983 l 228 966 q 222 949 228 958 l 206 952 q 182 947 195 952 q 171 949 172 949 q 138 947 143 947 l 106 949 l 100 941 l 100 936 q 109 928 100 934 l 141 930 l 171 930 q 228 917 228 926 l 228 884 q 269 863 228 863 q 274 838 271 857 q 260 822 271 827 l 236 822 q 228 814 232 822 l 228 811 q 269 798 228 801 q 271 789 271 792 q 269 754 269 755 q 274 735 269 749 q 252 713 271 713 q 241 716 246 713 q 228 705 229 711 l 228 686 q 225 665 228 675 q 228 643 228 654 l 228 621 q 217 610 228 617 l 198 610 q 184 608 189 610 l 168 610 l 119 610 q 114 605 114 610 l 114 594 q 125 586 114 590 q 127 589 127 586 q 136 586 130 589 q 179 589 163 589 l 198 583 l 217 586 q 231 575 221 586 l 228 556 l 228 342 l 231 326 q 228 312 228 321 l 228 274 l 231 255 l 220 247 l 212 247 l 198 250 q 184 225 190 240 l 187 212 q 184 190 184 193 q 250 174 225 176 l 250 171 q 252 103 250 148 q 250 46 250 62 l 252 27 q 250 19 250 22 q 252 11 252 14 q 179 0 252 5 l 109 0 q 65 3 93 0 q 57 0 60 0 q 38 8 46 3 q 41 19 38 14 q 38 103 38 69 l 38 133 q 41 174 38 146 q 24 179 32 179 l -5 179 q -27 190 -15 179 l -22 217 q -24 239 -24 228 q -8 252 -24 243 l 8 252 l 14 250 l 22 263 q 19 326 19 313 q 22 345 19 341 q 19 388 19 372 l 19 510 q 22 618 19 550 q 19 640 19 629 q 30 654 24 652 l 57 654 q 68 665 61 654 l 68 667 q 62 673 68 673 l 30 673 q 19 684 26 673 l 19 700 q 35 724 19 715 l 52 722 q 62 765 60 722 q 54 800 60 795 l 41 798 l 30 798 q 16 811 26 798 q 38 830 22 830 q 54 827 52 827 l 60 836 l 60 846 q 54 863 60 854 q 35 857 49 863 q 19 871 31 857 q 22 952 22 925 l 22 985 q 24 1015 22 996 q 16 1036 21 1030 l 16 1039 q 33 1050 16 1044 m 198 1006 l 198 987 q 203 982 199 982 l 206 996 l 203 1006 l 198 1006 m 225 155 l 225 136 l 231 136 q 233 144 231 138 q 231 155 231 149 l 225 155 z "},"j":{"ha":366,"x_min":7,"x_max":389,"o":"m 156 1057 l 256 1057 q 338 1054 283 1057 q 343 1048 338 1048 q 340 1019 340 1030 q 346 891 340 964 l 343 886 q 354 872 349 873 l 381 872 q 389 861 389 872 q 387 859 389 859 l 389 845 l 389 840 q 381 831 389 836 l 354 834 q 346 815 346 821 q 357 804 350 815 l 370 807 l 373 807 q 389 796 389 807 q 387 766 389 785 q 389 736 389 751 q 349 720 389 722 q 340 699 340 707 l 340 680 q 319 671 321 680 q 330 647 319 656 q 324 639 330 646 l 324 636 q 340 625 340 636 q 343 552 340 594 q 340 536 340 538 q 343 498 343 519 l 343 481 q 332 473 343 473 l 332 468 q 343 416 343 437 q 340 346 343 391 l 343 335 q 340 308 340 321 l 340 286 q 330 281 340 281 l 330 275 q 346 262 346 275 q 305 251 340 254 l 294 229 l 294 218 q 297 208 294 212 q 294 197 294 203 q 338 186 314 186 l 349 186 q 357 175 357 186 q 340 145 357 168 q 316 88 340 108 q 264 37 316 73 l 262 37 l 251 42 l 202 12 l 189 15 l 178 15 q 110 7 153 7 l 18 7 q 7 18 14 7 l 7 42 q 9 66 7 56 q 7 94 7 81 l 7 129 q 18 161 7 161 l 20 161 q 126 180 126 161 q 121 186 126 186 l 96 186 q 77 197 82 186 l 77 202 q 94 251 87 213 q 113 259 107 259 l 123 256 q 137 273 137 258 l 137 278 q 132 311 137 292 q 156 319 142 319 l 251 319 l 264 321 l 264 330 q 245 340 260 340 q 224 338 235 340 l 199 340 q 148 338 163 338 q 134 354 134 342 q 140 669 137 614 q 134 718 134 705 q 153 731 149 731 l 164 728 q 178 745 178 730 l 178 788 q 142 807 178 807 q 134 815 134 813 l 134 823 q 153 837 136 830 q 161 834 159 834 q 178 842 178 837 l 178 853 l 175 867 q 153 864 160 864 q 134 880 147 865 l 137 899 l 137 1029 l 132 1048 q 156 1057 142 1057 m 321 1013 l 319 1000 l 324 997 l 335 997 l 335 1013 l 321 1013 m 316 484 l 316 481 q 319 473 319 476 l 324 473 l 324 479 q 319 484 324 484 l 316 484 m 308 129 l 305 123 l 305 107 l 308 107 q 313 126 308 113 l 308 129 z "},"k":{"ha":636,"x_min":-34,"x_max":620,"o":"m 28 1009 l 134 1009 q 216 1006 161 1009 q 224 998 216 1002 l 218 966 l 221 928 q 218 838 218 878 l 216 838 q 264 822 216 823 q 267 819 264 819 q 264 808 267 818 q 267 792 267 794 q 259 779 264 779 l 245 779 q 235 784 239 784 q 224 768 224 781 q 240 760 227 760 l 259 760 l 267 754 q 262 730 264 736 l 264 716 l 262 692 q 273 678 267 680 q 308 749 283 678 q 281 760 308 755 l 278 765 l 278 773 q 327 792 282 788 q 340 817 337 800 q 335 822 335 817 l 330 819 l 319 819 q 308 830 315 819 l 308 836 q 365 939 351 934 l 514 939 l 541 930 l 557 933 l 560 928 l 560 922 q 514 836 519 840 l 514 830 q 528 819 514 826 l 533 822 l 544 822 q 552 814 548 822 q 528 784 552 798 l 509 784 q 487 770 494 784 l 487 768 q 519 757 487 761 l 519 749 q 495 705 504 730 q 476 675 479 675 l 468 675 q 457 678 462 675 q 419 635 437 678 q 370 537 408 625 q 435 374 395 496 q 468 293 444 363 q 503 217 482 258 l 503 214 q 468 203 503 207 q 465 195 465 198 q 492 146 478 146 q 557 127 557 141 q 585 57 557 120 q 620 -30 603 20 q 509 -41 620 -41 l 506 -41 q 427 -38 475 -41 q 416 -41 422 -41 q 362 84 403 -41 q 330 138 343 138 q 264 163 264 138 q 251 198 262 180 q 278 212 251 210 l 278 209 q 286 212 283 212 l 286 214 q 262 285 276 262 q 240 323 252 323 q 218 263 218 288 l 218 233 q 224 212 224 214 q 218 206 224 206 l 197 206 q 180 190 180 206 l 180 171 q 161 155 170 155 l 161 149 l 164 149 q 216 138 186 149 l 218 138 l 237 144 l 243 136 q 240 117 243 127 q 243 49 243 76 q 240 27 243 42 q 243 3 243 17 q 240 -19 240 -16 q 245 -33 245 -28 l 240 -35 l 224 -35 q 183 -41 184 -41 q 164 -38 168 -41 q 126 -41 141 -41 l 53 -41 q 31 -30 43 -41 q 34 11 34 -3 l 34 57 q 31 106 34 80 l 31 136 q -34 152 -34 138 q -28 179 -34 159 q -31 201 -31 190 q 7 214 -22 211 q 12 233 12 225 q 9 236 12 236 l 12 252 q 9 271 12 271 q 12 312 12 298 l 12 418 q 9 594 12 498 q 12 648 12 613 l 9 665 q 53 684 9 681 q 56 686 53 686 l 53 703 q 56 749 56 731 q 18 760 48 758 l 9 770 q 34 789 18 789 q 37 787 37 789 q 53 795 53 790 l 53 814 q 47 819 53 819 l 31 817 q 9 836 19 821 l 9 876 q 12 903 9 889 q 9 928 9 913 l 12 960 l 9 974 l 12 987 q 7 1001 7 996 q 28 1009 20 1009 m 411 1009 l 411 1006 l 416 1009 l 425 1009 q 427 1006 427 1009 l 433 1009 l 463 1009 q 465 1006 465 1009 l 471 1009 l 514 1009 q 517 1006 517 1009 q 525 1009 522 1009 q 595 1006 532 1009 l 601 998 q 560 958 581 958 l 381 958 q 370 971 370 963 l 389 1004 q 411 1009 399 1009 m 237 732 l 235 727 l 235 724 q 240 719 235 719 q 248 722 245 722 l 248 730 l 237 732 m 115 722 l 107 711 l 107 700 l 121 697 l 140 697 q 148 705 144 697 q 115 722 148 715 m 365 594 l 365 589 q 373 597 369 589 l 373 600 l 370 600 q 365 594 365 599 m 389 423 l 389 412 l 395 412 l 395 418 q 389 423 395 423 z "},"l":{"ha":578,"x_min":14,"x_max":562,"o":"m 35 1029 q 38 1027 38 1029 l 43 1029 l 133 1029 q 198 1024 174 1029 q 214 1027 202 1027 l 228 1019 q 222 994 227 994 l 225 989 l 225 967 q 222 956 225 961 q 228 937 228 943 q 225 916 225 927 q 236 907 236 910 l 241 910 q 269 899 269 907 l 269 880 q 258 869 269 876 q 165 864 241 869 q 109 867 135 867 q 68 864 75 864 q 52 902 59 875 q 43 905 46 905 l 27 902 q 14 954 14 914 q 16 970 14 956 q 14 1019 14 1002 q 35 1029 25 1029 m 195 983 l 195 981 q 201 975 196 975 l 203 981 l 203 989 l 201 989 q 195 983 195 988 m 30 875 q 41 848 37 875 l 46 845 l 165 845 q 209 840 170 845 l 220 840 q 228 831 224 840 q 222 812 228 812 l 225 799 l 225 704 l 228 688 l 220 674 l 201 677 q 160 669 175 669 l 100 669 q 76 671 91 669 q 68 669 71 669 q 38 671 44 671 l 24 669 q 14 690 14 680 l 14 718 q 16 726 14 726 l 14 739 l 14 804 q 16 834 14 816 q 14 848 14 839 q 30 875 14 865 m 193 810 l 195 796 q 212 812 212 796 l 206 815 l 198 815 q 193 810 193 814 m 24 652 l 41 650 q 65 652 50 650 q 144 650 109 650 l 168 652 q 222 639 222 642 q 228 631 225 639 q 225 598 225 612 q 266 579 225 584 l 266 574 l 263 568 q 266 557 266 564 l 266 555 q 231 544 266 547 q 225 528 225 535 q 228 519 225 519 l 225 492 l 225 189 q 269 156 225 166 l 271 151 l 271 148 q 269 145 271 145 q 271 137 271 140 l 274 137 q 279 142 279 137 l 279 145 l 277 151 l 282 153 q 296 134 286 134 l 315 137 l 342 132 q 401 134 389 134 q 458 132 423 134 l 496 134 q 556 132 532 132 l 559 126 q 553 64 559 78 q 562 7 559 49 q 534 -18 562 -18 q 477 -20 516 -20 l 312 -20 q 301 -18 306 -20 q 290 -20 296 -20 l 285 -20 q 271 -18 276 -20 l 255 -20 q 193 -15 226 -20 q 133 -20 152 -20 q 130 -18 130 -20 l 117 -20 l 98 -20 q 79 -7 83 -20 q 81 47 81 30 l 81 142 q 65 161 81 158 l 52 159 q 14 170 14 163 l 14 400 q 16 541 14 443 q 27 552 20 541 l 41 549 l 52 549 q 57 555 57 549 l 57 576 q 22 587 57 585 q 14 609 14 597 q 24 652 14 642 m 532 85 l 532 75 q 537 69 532 69 l 537 85 l 532 85 m 532 56 l 532 50 l 537 50 l 537 61 q 532 56 532 60 z "},"m":{"ha":806,"x_min":14,"x_max":819,"o":"m 41 1050 l 60 1050 q 90 1044 63 1050 q 136 1050 126 1050 l 149 1050 q 163 1047 158 1050 l 179 1050 l 193 1050 q 266 1042 216 1050 q 288 1044 281 1044 l 293 1036 l 288 1028 l 290 1012 l 282 1012 l 269 1031 q 260 1028 263 1028 l 260 1017 q 293 979 272 995 q 317 930 303 966 q 320 928 320 930 l 334 930 q 361 898 361 930 q 326 884 361 886 q 320 863 320 867 q 326 825 326 842 l 326 817 q 342 735 333 811 q 350 703 344 735 l 347 689 q 366 613 353 676 l 372 610 l 391 610 q 415 572 412 610 l 429 570 l 439 570 q 453 602 451 570 q 445 605 448 605 q 434 602 435 602 q 412 616 419 608 q 437 760 429 725 q 467 892 448 892 q 477 895 473 892 l 483 892 q 499 901 499 896 l 499 917 q 486 925 499 923 l 472 922 q 461 939 461 933 q 486 1050 476 1040 l 689 1050 q 754 1039 751 1044 l 751 1012 l 751 944 q 789 925 751 925 q 798 903 798 913 q 784 884 791 886 l 768 887 q 749 857 758 887 q 667 854 694 854 l 618 854 q 589 846 589 854 l 589 844 q 616 833 589 836 l 665 833 q 754 825 745 833 l 751 792 l 751 618 q 798 600 751 610 l 798 594 q 770 567 798 567 q 751 548 751 567 q 754 537 751 542 q 749 524 751 524 l 751 505 l 751 401 q 754 363 751 387 q 751 350 751 359 q 754 342 754 345 q 735 334 744 334 q 724 336 729 334 q 675 326 675 334 l 675 317 q 684 309 675 313 l 689 309 q 703 312 698 309 q 751 301 751 309 l 751 206 q 789 182 751 182 l 808 182 q 819 171 812 182 q 811 117 814 165 l 814 111 q 811 90 814 109 q 817 14 811 77 q 808 3 812 3 l 803 3 q 800 5 800 3 q 757 0 789 0 l 697 0 l 681 3 q 670 0 676 0 q 648 3 663 0 q 627 0 633 0 l 613 8 q 616 62 616 45 l 616 76 q 613 100 616 85 q 616 103 613 103 l 613 122 l 613 176 l 600 179 l 581 179 q 567 136 573 179 l 570 125 q 553 62 553 79 q 534 3 553 3 q 480 0 520 3 l 453 3 q 391 0 425 0 l 388 0 l 372 3 q 358 0 367 0 l 355 0 q 334 90 342 0 q 328 100 330 90 l 331 106 q 315 179 321 179 l 301 179 l 274 182 q 263 141 268 176 l 271 95 l 269 84 l 271 71 q 260 57 266 58 l 271 35 q 260 3 269 3 l 222 3 q 212 0 216 3 q 209 3 209 0 l 195 0 l 117 0 q 79 11 79 0 q 84 54 81 54 l 81 73 l 81 103 q 84 141 81 118 q 79 160 79 155 l 90 168 l 106 168 q 141 176 141 168 l 141 184 q 130 193 141 189 q 114 190 128 193 q 106 193 106 190 l 79 190 l 49 190 q 16 201 16 190 l 16 491 q 14 515 16 500 q 16 524 16 521 q 14 532 16 526 q 41 572 14 572 l 60 572 l 62 583 q 22 608 62 608 l 14 618 l 14 667 q 16 697 14 679 q 14 700 16 700 l 16 727 l 16 746 q 14 773 16 759 q 24 822 16 805 q 19 846 19 842 q 52 887 19 887 q 65 901 59 889 l 65 922 q 60 928 65 928 l 54 928 q 33 922 52 928 l 30 922 q 14 941 18 929 q 16 968 14 945 l 14 1012 q 22 1028 19 1028 l 19 1034 l 19 1036 q 41 1050 26 1050 m 247 909 l 241 901 l 241 895 q 263 882 248 882 l 279 884 q 307 882 294 882 q 317 892 309 882 q 307 906 312 905 l 288 906 q 247 909 274 906 m 307 811 l 304 806 l 307 762 q 317 800 311 762 q 320 803 320 800 l 320 808 l 307 811 m 323 694 l 323 689 q 334 678 323 685 q 339 694 339 687 l 339 703 q 331 711 339 707 q 323 694 323 708 m 518 640 l 518 637 l 526 637 l 526 646 l 524 646 q 518 640 518 645 m 372 551 q 374 534 374 536 q 372 518 374 532 q 374 507 372 517 q 372 488 372 496 q 388 464 372 475 q 401 532 395 464 q 404 551 401 540 q 385 567 404 565 q 372 551 377 566 m 722 526 q 719 521 722 521 l 722 515 q 719 488 722 512 l 722 475 l 727 475 q 735 491 727 481 l 724 510 l 727 526 l 722 526 m 146 439 q 141 426 141 431 q 149 415 145 415 l 155 415 q 163 423 159 415 q 146 439 163 439 m 209 429 l 206 410 l 206 307 q 203 247 206 278 q 206 198 206 236 l 206 195 q 247 184 206 186 l 250 190 l 250 195 q 220 407 220 383 q 212 429 217 429 l 209 429 m 513 418 q 515 396 515 408 q 526 415 519 396 q 521 420 526 420 l 518 420 l 513 418 m 326 410 l 326 404 q 331 399 326 399 l 342 399 q 350 407 346 399 l 350 410 q 334 418 347 418 q 326 410 330 418 m 545 418 l 529 312 q 513 198 529 285 q 537 184 513 189 q 551 193 551 188 l 551 247 q 553 277 551 258 l 551 282 q 556 377 553 301 q 548 418 556 387 l 545 418 m 515 385 l 515 377 l 518 377 l 518 385 l 515 385 m 252 127 q 258 122 253 122 l 258 133 q 252 127 252 132 m 537 100 l 537 73 l 543 73 l 543 87 q 553 95 543 94 q 543 106 553 99 q 537 100 537 105 m 138 24 q 146 14 142 14 l 176 14 q 184 22 180 14 l 184 27 q 176 35 184 31 l 155 35 q 138 24 143 35 z "},"n":{"ha":644,"x_min":20,"x_max":655,"o":"m 42 996 l 175 996 q 283 968 283 996 q 300 901 283 925 q 349 871 300 871 q 357 841 357 852 l 357 838 q 351 833 357 833 q 330 836 336 836 q 321 814 321 824 q 330 787 330 792 l 327 781 q 357 675 357 699 q 384 578 378 621 l 389 575 l 395 575 l 397 589 l 397 591 q 392 675 397 637 q 395 792 395 737 l 395 825 q 441 844 395 834 l 441 849 q 422 871 439 871 l 416 868 q 392 884 410 868 l 395 903 l 395 958 l 397 974 q 395 987 395 979 q 419 996 405 996 l 438 993 q 463 996 448 996 l 463 993 l 468 996 l 473 996 q 514 993 490 996 l 528 996 q 568 987 568 990 l 574 990 l 582 990 q 593 979 586 990 l 593 968 q 582 955 582 956 l 593 936 l 590 922 l 593 906 l 579 898 l 566 901 q 514 887 514 894 l 514 882 q 519 876 515 876 l 533 876 q 620 873 562 876 q 633 844 633 855 q 617 833 620 833 q 609 836 612 836 q 587 795 587 831 q 590 768 587 782 q 587 730 587 745 q 590 689 587 716 q 587 667 587 674 q 590 651 590 653 l 587 632 q 590 602 590 608 l 587 578 q 628 548 587 548 q 633 521 631 543 q 593 507 629 516 l 590 502 l 590 486 q 587 467 590 470 q 590 445 590 452 q 587 363 590 412 q 590 317 590 332 q 587 277 587 283 q 590 247 590 258 q 587 239 587 241 q 590 225 590 234 q 576 214 589 220 q 555 217 562 217 q 544 212 544 216 l 525 214 l 509 214 q 492 198 492 214 q 511 190 503 190 q 536 193 526 190 q 571 190 553 190 l 582 190 q 590 182 586 190 q 587 152 590 176 q 628 127 587 127 q 655 119 655 127 l 655 117 q 595 106 655 107 q 587 109 593 106 q 557 106 569 106 l 525 106 q 517 98 521 106 l 517 95 q 533 87 519 87 l 590 87 q 623 81 623 86 l 628 84 l 639 84 q 655 79 646 84 q 650 41 650 50 q 652 -46 652 -23 q 647 -52 647 -47 q 560 -54 589 -54 l 479 -54 q 468 -52 473 -54 q 457 -54 463 -54 q 430 -22 430 -54 q 422 3 422 -2 l 422 5 q 454 19 422 13 l 457 24 l 457 27 q 449 35 457 31 l 430 35 q 400 90 405 35 q 384 125 391 121 q 381 122 381 125 q 319 152 319 122 q 270 331 313 187 q 237 467 237 441 q 218 507 237 482 l 210 494 q 216 461 216 468 q 213 361 213 395 l 210 361 q 216 345 213 345 l 213 331 l 213 312 q 216 274 213 297 l 202 233 q 189 212 189 229 l 191 201 l 197 201 l 205 206 l 210 206 q 218 193 216 206 l 216 168 q 240 130 216 130 q 259 125 259 128 l 264 127 l 270 127 l 281 119 l 278 92 l 278 60 q 281 49 278 54 q 275 30 275 38 q 281 -43 275 23 l 270 -52 l 267 -52 q 224 -54 252 -52 q 221 -52 221 -54 l 208 -54 l 170 -54 q 159 -52 163 -54 q 148 -54 154 -54 l 121 -52 q 99 -54 106 -54 q 85 -43 87 -49 l 85 -3 q 83 49 85 23 q 88 119 85 67 q 77 127 77 125 l 50 125 l 45 125 q 20 136 24 125 l 20 255 q 23 399 20 316 q 20 434 20 416 q 23 507 23 467 q 64 532 64 519 l 64 548 q 23 570 23 548 l 20 581 q 23 616 23 598 q 20 624 23 618 q 23 627 20 627 q 20 681 20 663 q 23 808 20 722 q 20 817 20 814 q 64 844 20 836 q 66 854 66 853 q 50 873 66 861 l 39 868 q 20 884 27 873 l 23 901 l 20 920 l 23 933 l 20 947 q 23 977 23 970 q 20 985 20 982 q 42 996 32 996 m 560 361 l 560 355 l 563 355 l 563 361 l 560 361 m 121 81 l 121 73 q 137 62 126 62 q 167 65 149 62 q 229 62 195 62 q 243 73 241 68 l 243 81 q 210 87 224 87 l 126 87 q 121 81 121 86 z "},"o":{"ha":585,"x_min":14,"x_max":618,"o":"m 258 1058 q 415 1042 361 1058 q 486 998 447 1028 q 513 971 486 990 q 553 928 522 928 q 594 898 583 928 l 594 895 q 559 882 585 886 q 524 863 559 863 l 475 863 q 467 854 471 863 l 467 846 q 477 838 467 838 q 553 836 498 838 q 562 800 558 831 l 556 746 q 564 700 559 718 q 543 670 564 670 l 423 670 q 415 662 419 670 l 415 654 l 420 646 l 434 648 l 477 648 q 564 635 564 648 q 559 627 562 627 q 602 597 559 606 l 602 591 l 600 586 q 605 572 605 577 q 589 564 595 564 l 578 567 q 559 545 559 557 q 562 537 559 543 q 559 499 559 514 l 559 491 q 562 453 559 476 q 559 450 562 450 q 562 434 562 436 q 559 361 562 415 q 562 339 562 342 q 559 317 559 329 q 562 307 559 311 q 559 282 559 292 l 559 250 q 556 198 559 228 q 586 179 556 182 l 610 179 q 618 171 614 179 q 597 119 603 119 q 502 114 585 119 q 499 117 499 114 l 486 114 l 434 114 q 380 117 416 114 l 372 106 q 382 95 372 103 l 396 98 l 412 98 q 488 95 447 98 l 502 98 l 515 95 l 534 98 l 551 90 l 562 90 l 570 95 l 578 95 q 586 79 586 92 q 540 43 562 58 q 453 -3 540 23 q 353 -14 391 -14 l 309 -14 q 190 19 213 -4 q 117 90 160 31 l 81 179 l 41 179 q 19 195 19 179 q 16 252 16 221 l 16 488 q 14 526 16 503 q 16 534 16 532 l 14 551 q 54 570 15 566 q 62 591 59 576 q 54 602 58 602 l 35 602 q 14 616 20 602 q 30 637 14 631 l 49 635 l 60 635 q 73 637 68 635 l 87 635 q 171 637 153 637 l 206 629 q 214 632 212 632 l 239 602 l 263 602 q 271 594 267 602 l 271 572 q 258 562 270 567 q 233 564 243 564 q 225 551 225 555 q 228 529 228 532 q 222 521 225 521 l 225 507 l 225 480 q 222 469 225 474 l 225 464 q 222 426 222 441 q 225 399 225 402 l 222 399 l 225 393 l 225 366 q 222 363 225 363 l 225 358 l 225 244 q 260 182 225 182 q 279 176 266 182 l 296 179 l 301 179 q 347 144 325 144 l 355 144 q 377 160 361 144 q 396 171 392 160 l 396 174 q 391 179 396 179 l 350 179 q 342 187 346 179 l 342 190 q 350 263 350 197 l 350 556 q 393 572 350 562 l 393 600 q 347 618 351 600 l 350 646 l 347 662 q 350 681 350 673 q 347 697 350 693 q 350 727 350 715 l 350 792 q 347 822 350 804 q 350 830 350 827 q 331 873 350 857 l 331 879 q 350 895 331 882 l 331 901 q 288 884 316 901 q 285 887 285 884 q 231 825 231 887 l 222 798 q 225 738 222 779 q 214 705 222 705 l 209 705 l 203 708 l 201 703 l 201 697 l 203 692 l 209 694 l 214 694 q 228 673 228 688 q 149 656 228 656 l 24 656 l 14 665 l 16 678 q 14 684 16 684 l 16 703 l 16 819 q 38 887 22 887 q 76 911 76 887 l 76 914 q 46 925 76 918 l 43 930 q 90 1001 43 941 q 125 1028 96 1001 q 258 1058 180 1058 m 203 852 l 203 849 q 209 844 204 844 l 212 844 q 217 849 217 844 l 217 857 l 209 857 q 203 852 203 857 m 203 499 q 201 491 203 496 q 203 456 203 478 l 206 456 q 209 496 206 463 l 203 499 z "},"p":{"ha":562,"x_min":14,"x_max":586,"o":"m 38 1043 l 49 1043 q 52 1040 52 1043 l 57 1043 l 250 1043 q 475 983 437 1043 l 475 975 q 467 967 471 975 l 496 940 q 507 943 501 943 q 540 910 507 933 q 548 899 544 899 l 553 899 q 562 913 555 913 q 575 894 575 902 l 567 888 l 564 888 l 548 891 q 534 883 534 886 q 526 886 532 883 q 488 883 503 883 l 486 883 q 472 886 477 883 l 456 883 l 429 886 q 407 883 414 883 l 391 886 l 388 880 l 388 867 q 404 856 388 863 q 415 859 406 856 q 518 840 518 859 l 524 840 l 537 842 l 540 837 l 540 831 q 477 815 535 817 l 426 815 q 423 818 423 815 q 410 804 416 818 q 418 793 414 793 l 537 793 q 553 785 553 792 q 551 734 553 760 q 553 709 553 719 q 543 688 550 688 q 529 712 536 688 l 521 712 q 513 696 513 709 l 513 690 q 518 669 513 679 q 515 658 515 664 q 521 636 521 641 l 524 636 q 532 642 525 636 q 543 633 543 637 q 529 625 543 627 q 524 631 529 631 l 521 631 l 521 614 l 526 614 l 532 617 q 559 587 548 603 l 572 595 l 581 595 q 586 590 586 595 q 570 568 576 570 q 559 571 560 571 q 521 541 553 571 l 521 514 q 477 446 513 473 q 437 416 472 435 q 423 408 437 410 l 399 411 q 277 392 374 392 q 274 389 277 389 q 263 392 269 392 l 241 392 q 222 381 227 392 l 209 384 l 198 384 l 195 370 l 195 362 q 228 340 200 351 l 228 335 q 225 311 228 321 q 228 275 228 293 l 228 262 q 220 240 228 242 l 214 240 l 201 248 q 190 235 190 245 l 198 221 l 198 218 q 187 210 198 210 l 187 205 q 263 170 212 178 l 266 164 q 255 137 255 145 l 255 134 q 263 126 255 130 l 274 126 l 288 129 q 296 113 296 119 q 290 96 294 96 l 293 69 l 293 15 l 296 1 l 288 -4 l 269 -1 q 244 -7 251 -7 l 236 -7 q 233 -4 233 -7 q 225 -7 228 -7 q 222 -4 222 -7 l 209 -7 l 100 -7 q 79 7 85 -7 l 81 39 q 79 45 81 45 l 81 64 l 81 94 q 79 134 81 111 q 92 164 79 164 l 92 167 q 62 180 80 180 q 16 175 28 175 l 14 180 l 14 183 q 24 216 24 195 l 22 243 q 33 259 27 259 q 38 256 38 259 l 65 259 l 71 259 q 130 256 90 259 l 133 262 l 133 264 q 106 283 133 283 q 57 286 95 286 l 33 286 q 22 308 22 290 q 24 359 22 330 q 16 411 16 401 l 16 454 q 19 514 16 483 q 16 555 16 526 q 35 563 26 563 l 54 563 q 62 579 62 566 l 62 593 q 57 598 62 598 l 35 598 q 16 617 16 598 l 16 671 l 19 688 q 16 690 19 690 l 24 731 q 22 761 22 755 q 24 780 22 769 q 22 818 22 797 q 35 880 22 880 q 68 891 68 880 q 52 921 68 921 q 27 916 34 916 l 16 935 q 19 964 19 953 l 16 970 q 19 972 16 972 l 16 1005 l 16 1032 q 38 1043 16 1039 m 225 875 q 228 850 225 865 q 225 796 225 814 q 228 766 225 790 q 193 726 228 755 l 190 712 l 190 709 q 195 704 191 704 q 193 650 193 667 l 193 612 q 201 606 193 606 q 225 612 218 612 l 239 595 l 252 598 l 263 598 q 271 590 267 598 q 269 582 269 585 q 274 568 274 573 q 260 560 260 562 l 247 563 l 239 563 q 231 555 235 563 l 231 549 q 250 538 231 543 q 377 582 377 570 l 377 593 q 372 598 377 598 l 347 598 q 336 620 339 598 q 339 628 336 623 l 336 644 l 336 650 l 345 677 l 345 777 l 336 788 l 336 815 q 315 861 336 861 l 315 867 q 326 880 315 868 q 301 894 326 884 q 225 875 225 886 m 239 587 l 239 582 l 244 582 q 239 587 244 587 m 282 164 l 288 164 l 288 161 l 282 161 l 282 164 z "},"q":{"ha":599,"x_min":14,"x_max":700,"o":"m 244 967 q 453 932 414 967 q 513 872 504 901 q 496 859 496 869 q 499 850 499 853 l 507 850 l 521 861 l 524 861 q 583 831 538 831 q 591 812 591 821 l 591 802 q 559 791 591 793 l 553 780 q 562 715 559 766 q 553 709 555 709 l 548 709 q 515 707 524 709 q 475 709 492 709 l 448 709 q 426 701 428 709 l 426 693 q 437 682 426 690 l 442 685 l 496 685 l 513 688 q 534 682 523 682 l 553 682 l 564 674 q 559 647 559 654 l 562 628 l 559 623 l 562 617 l 559 590 l 562 563 q 559 528 559 550 q 578 509 559 522 l 583 511 l 600 511 q 608 503 604 511 l 608 484 q 589 473 604 473 q 581 476 586 473 q 562 438 564 476 q 488 430 545 430 l 483 422 l 483 416 q 540 406 483 408 q 551 408 545 408 l 562 403 q 559 294 559 334 l 559 175 q 562 137 559 160 l 556 110 q 586 88 567 88 l 610 88 q 618 80 614 88 l 618 77 q 529 66 618 66 l 467 66 q 458 58 463 66 l 458 56 q 467 47 458 52 l 543 47 q 581 39 563 47 l 597 42 q 602 37 602 41 q 594 4 594 12 q 656 -12 625 -9 l 656 -96 l 654 -113 q 667 -126 654 -120 q 692 -123 682 -123 q 700 -132 696 -123 l 700 -145 q 651 -156 700 -154 q 640 -153 642 -153 q 613 -156 626 -156 q 502 -129 590 -156 q 448 -96 473 -129 q 380 -104 410 -104 l 312 -104 q 187 -72 249 -104 q 100 47 125 -34 q 76 85 96 85 l 49 85 q 16 137 16 85 q 14 148 14 137 l 14 153 q 49 167 18 167 l 62 167 q 136 156 73 167 q 176 159 159 159 q 203 151 198 151 l 222 153 q 236 99 230 148 q 282 88 258 88 l 301 88 q 350 53 330 53 q 396 80 368 53 l 388 85 l 380 85 q 342 96 342 85 q 353 137 350 106 q 350 142 353 142 q 353 183 353 170 l 353 406 q 350 430 353 415 q 353 449 353 433 l 353 463 q 377 479 362 479 q 380 476 380 479 q 393 495 393 480 l 393 503 q 382 511 393 506 l 377 509 l 374 509 q 353 522 359 509 l 353 663 q 336 777 353 777 l 336 783 q 355 802 336 802 l 355 804 q 334 810 345 810 l 328 810 q 255 791 286 791 q 228 753 240 777 q 176 747 206 753 q 163 750 172 750 q 144 739 153 750 q 155 728 146 728 q 182 731 158 728 q 228 715 228 724 l 228 571 q 225 547 228 562 q 228 530 228 543 l 214 525 q 209 528 209 525 q 149 525 168 525 l 27 525 q 16 544 16 530 l 16 566 q 19 595 16 586 q 16 631 16 613 l 16 682 q 35 796 22 796 q 76 812 76 796 q 79 821 79 818 q 76 829 76 826 l 60 829 q 49 840 56 829 q 98 910 77 910 q 171 956 98 925 q 244 967 218 967 m 529 764 l 529 755 l 534 755 l 534 764 l 529 764 m 260 514 l 274 506 q 255 473 274 473 q 228 449 228 473 q 225 397 225 412 q 228 330 225 374 q 225 286 225 290 q 228 186 228 234 q 212 180 219 180 l 209 180 q 163 189 174 189 l 138 189 q 62 191 104 189 q 41 189 52 189 q 16 202 18 189 q 19 392 16 256 q 14 430 14 428 q 95 444 14 444 q 117 441 98 444 l 130 444 q 168 441 147 441 l 171 446 l 171 457 q 165 463 171 463 l 57 463 q 46 460 51 463 q 22 468 22 463 l 22 471 q 30 479 22 475 l 54 479 q 65 500 58 479 l 95 506 l 109 503 l 127 506 q 149 503 142 503 l 163 506 l 176 503 q 198 506 183 503 q 236 503 215 503 q 260 514 248 514 m 46 427 l 38 416 q 54 408 41 408 l 79 408 l 92 411 l 92 419 q 84 427 92 421 l 79 425 l 65 425 l 46 427 m 632 -39 l 629 -45 q 635 -50 630 -50 l 637 -45 q 632 -39 637 -39 z "},"r":{"ha":601,"x_min":14,"x_max":635,"o":"m 30 1050 q 35 1047 35 1050 q 90 1050 72 1050 l 260 1050 q 499 982 451 1050 q 507 974 503 982 l 505 949 l 510 947 q 518 949 515 949 q 575 922 539 922 l 578 917 l 578 914 l 575 909 q 467 906 507 906 l 385 906 q 377 898 381 906 q 396 887 382 887 l 499 887 q 521 879 505 887 q 537 882 523 879 q 553 844 551 882 q 551 836 551 838 q 553 827 551 827 l 551 795 l 551 724 q 537 616 551 673 q 572 605 548 608 l 572 600 q 524 589 572 591 q 518 586 524 586 q 499 589 510 586 q 469 586 475 586 l 426 589 q 410 578 410 583 l 410 572 q 420 564 410 568 q 442 567 423 564 q 499 564 477 564 l 505 556 l 505 553 l 456 518 l 456 507 q 537 423 494 499 l 532 412 q 396 410 438 410 l 312 410 q 239 426 274 426 q 225 418 225 420 q 228 385 225 414 q 149 374 214 374 l 146 374 q 141 369 141 374 l 141 363 q 155 334 155 341 l 176 334 q 201 323 186 334 q 220 334 205 334 q 228 323 228 334 q 225 320 228 320 q 228 309 225 319 q 225 285 228 300 q 228 263 225 283 q 222 203 228 251 q 260 179 222 189 l 266 182 l 285 182 q 293 174 289 182 q 290 157 293 172 q 293 149 293 152 q 288 133 288 140 l 288 87 q 285 84 288 84 l 288 79 l 288 62 q 285 52 288 56 q 290 16 290 39 l 290 11 q 279 3 290 3 q 228 0 264 3 q 225 3 225 0 l 206 0 l 119 0 q 109 3 113 0 q 98 0 104 0 q 79 8 89 0 q 81 54 81 40 l 81 81 q 79 109 81 94 q 81 133 81 119 l 81 136 l 79 168 l 81 168 q 27 182 81 182 l 22 182 q 14 187 15 187 l 16 206 l 16 355 q 19 393 16 376 q 16 429 16 407 l 16 486 q 14 496 16 492 l 19 510 q 14 521 17 521 l 16 534 l 14 551 q 33 572 14 563 l 49 570 l 52 570 q 60 578 56 570 l 60 600 q 54 605 60 605 l 35 605 q 16 624 16 605 l 16 819 q 19 822 16 822 l 16 827 l 16 860 q 14 871 16 866 q 43 895 14 888 q 54 892 48 892 l 60 901 l 60 909 q 43 928 60 928 q 27 922 35 922 q 16 939 16 936 q 19 947 16 941 l 16 971 l 19 990 l 16 1004 l 19 1023 l 16 1042 q 30 1050 30 1047 m 247 884 q 239 887 241 887 q 228 871 228 884 l 228 841 q 225 719 228 794 l 228 703 q 198 673 228 673 l 193 662 l 201 648 q 203 651 203 648 q 228 640 228 648 l 228 637 q 225 627 228 631 q 239 602 232 602 q 258 608 244 602 q 269 597 269 605 q 266 589 266 591 q 285 581 278 581 q 353 600 338 581 l 353 605 l 336 605 q 328 613 332 605 l 328 616 q 353 654 336 654 q 369 651 365 654 l 442 656 q 458 654 446 654 q 469 662 469 658 l 469 665 q 453 673 467 673 l 382 673 q 380 675 380 673 l 374 673 l 353 673 q 345 681 349 673 l 345 700 q 342 738 345 721 q 345 765 345 752 l 342 798 q 345 825 345 812 q 317 876 334 859 q 320 884 320 882 q 288 895 302 895 l 247 884 m 342 391 l 366 388 q 374 391 369 388 l 388 388 l 404 391 l 423 388 q 480 391 471 391 q 548 380 548 387 q 553 307 553 314 l 553 301 q 545 293 553 297 l 526 293 q 496 288 523 293 l 483 288 q 472 290 477 288 q 461 279 468 290 q 477 269 464 269 l 494 269 q 537 266 509 269 l 543 269 q 556 250 556 264 q 553 241 556 247 q 556 222 556 231 q 551 203 551 205 q 600 182 561 182 q 621 174 612 182 q 616 136 618 143 l 618 119 l 618 117 q 616 95 618 106 q 635 11 618 62 l 624 3 l 618 3 q 567 0 597 3 q 564 3 564 0 l 545 0 l 437 0 q 410 46 416 0 l 410 127 q 399 179 410 179 l 382 179 q 345 190 345 179 l 345 331 q 326 382 345 346 q 342 391 336 391 m 201 217 l 195 203 l 201 201 l 209 201 q 214 206 214 201 l 214 209 q 201 217 210 209 z "},"s":{"ha":560,"x_min":7,"x_max":598,"o":"m 256 1058 q 414 1036 364 1058 q 503 963 463 1017 l 503 958 q 468 949 503 952 q 438 930 438 949 l 449 925 l 468 928 l 484 925 q 509 928 499 928 q 574 909 574 926 l 574 895 q 563 884 574 891 l 547 887 q 533 873 543 887 q 544 770 544 850 q 536 762 540 770 q 449 760 477 760 l 359 760 q 340 768 351 760 q 343 798 343 791 q 324 873 335 873 l 324 876 q 346 895 324 884 l 346 898 l 335 901 q 286 882 302 901 q 264 884 267 884 q 218 800 232 884 q 237 732 230 772 l 235 732 q 324 616 250 688 q 359 602 331 610 q 368 605 365 605 q 416 570 380 604 q 408 564 410 564 q 397 567 402 564 q 387 559 387 563 l 387 556 q 422 529 396 541 q 463 477 422 520 q 530 336 530 387 q 544 241 538 336 q 538 195 538 205 q 574 179 538 184 l 590 179 q 598 171 594 179 l 598 168 q 547 157 598 160 q 544 160 544 157 l 530 157 l 435 157 q 427 149 431 157 l 427 144 q 433 138 428 138 l 492 138 q 587 136 524 138 l 590 130 q 549 62 576 78 q 536 46 549 54 l 522 65 q 492 16 508 65 q 389 -5 453 -5 q 365 -14 389 -12 l 300 -14 q 156 33 225 -14 q 115 79 137 50 l 115 87 q 123 95 115 91 l 216 95 q 245 98 227 95 l 262 92 q 275 109 275 97 q 259 114 267 114 l 115 114 q 88 149 88 114 q 72 176 88 167 l 53 176 q 12 190 12 176 q 9 282 9 247 l 9 285 q 7 296 9 291 q 20 317 14 317 l 159 317 q 178 312 178 317 l 191 315 l 202 315 l 210 309 q 205 252 210 299 q 218 193 214 203 q 273 179 218 179 l 278 182 q 302 157 290 182 q 330 146 320 146 l 335 146 q 376 171 351 146 l 376 174 q 321 187 321 176 q 335 241 330 187 q 259 401 335 317 q 183 480 245 412 q 107 562 107 538 l 107 564 l 110 570 l 123 567 q 129 572 129 567 l 129 578 l 110 602 l 96 600 l 91 600 q 12 773 39 600 l 12 798 q 20 860 12 825 l 18 865 q 64 892 18 892 q 72 914 72 899 q 45 925 72 920 q 39 936 39 932 q 96 1006 71 998 q 256 1058 134 1058 m 514 854 l 514 846 l 517 846 l 517 854 l 514 854 m 194 800 q 202 789 198 789 q 208 795 208 789 l 205 808 l 202 808 q 194 800 198 808 m 178 288 l 178 285 q 175 244 175 251 l 180 241 l 183 241 q 194 252 187 241 q 186 277 194 267 q 191 285 191 283 l 191 288 l 178 288 m 514 239 q 511 198 514 215 l 522 198 l 517 239 l 514 239 m 536 92 l 528 79 l 533 76 q 541 84 537 76 l 541 87 q 536 92 541 92 z "},"t":{"ha":547,"x_min":-20,"x_max":579,"o":"m -1 1050 l 237 1050 l 286 1044 q 324 1050 315 1050 l 335 1050 q 373 1044 344 1050 q 414 1050 399 1050 l 419 1050 q 446 1047 432 1050 l 463 1050 q 525 1034 525 1047 l 525 1015 q 536 1001 533 1015 q 533 971 533 983 l 533 955 q 530 944 533 949 q 549 928 530 930 l 555 930 q 579 914 579 927 q 560 898 573 898 q 547 903 547 898 l 476 892 q 441 895 458 895 q 362 876 362 884 q 359 852 359 861 l 359 849 l 362 833 q 359 825 359 827 l 362 806 q 351 792 357 793 l 349 792 q 335 833 342 792 l 330 836 q 321 806 321 825 q 351 765 330 765 q 362 741 362 745 q 351 727 357 728 l 343 727 q 302 724 326 727 q 294 727 300 724 q 270 724 279 724 l 237 724 l 235 713 l 245 705 l 308 705 q 330 697 316 705 l 346 700 l 351 700 q 362 686 354 700 q 359 646 359 659 l 359 618 q 403 602 359 607 l 406 597 l 406 578 q 368 564 406 568 q 359 551 361 551 q 362 545 359 545 q 359 499 359 513 l 359 412 q 354 377 359 401 q 359 342 359 353 l 359 206 q 425 179 359 179 q 427 171 427 174 q 425 163 427 168 q 427 144 427 152 q 422 127 422 135 l 422 84 q 427 27 422 61 q 416 3 424 3 l 403 3 q 373 0 391 3 q 370 3 370 0 l 343 0 l 254 0 l 237 3 q 224 0 233 0 q 216 8 220 0 l 216 174 q 153 182 216 182 q 148 187 153 187 l 151 206 l 151 510 q 159 537 151 524 l 156 553 l 156 559 q 189 575 156 569 q 194 597 194 585 q 186 605 194 601 l 161 605 q 151 616 157 605 l 151 694 q 148 741 151 720 l 153 822 q 151 865 151 838 l 151 868 l 153 887 q 132 895 142 895 q 126 892 126 895 l 99 895 l 39 895 q 12 922 23 895 q 4 925 7 925 l -12 922 q -20 936 -18 936 l -18 963 l -18 968 q -20 1006 -18 983 q -18 1015 -18 1012 q -20 1036 -20 1025 l -20 1039 q -1 1050 -16 1050 m 498 947 l 498 939 l 503 939 q 509 944 509 939 l 509 947 l 498 947 m 327 491 q 335 456 329 456 q 343 494 335 469 q 338 513 338 505 q 340 524 340 517 l 335 526 q 327 491 329 526 m 330 393 q 332 385 332 388 l 340 385 q 346 391 346 385 l 346 393 q 340 399 346 399 l 335 399 q 330 393 330 398 z "},"u":{"ha":591,"x_min":20,"x_max":614,"o":"m 34 1063 l 66 1061 l 77 1061 q 88 1063 88 1061 l 107 1061 l 170 1061 q 213 1058 185 1061 q 221 1061 218 1061 l 235 1053 l 232 1034 l 232 1025 q 235 1015 232 1019 q 229 1004 233 1004 q 232 993 229 998 q 229 928 229 955 l 229 925 q 232 887 229 910 q 229 873 229 882 q 248 852 234 858 l 254 854 l 267 854 q 275 846 271 854 l 275 844 q 254 836 275 838 l 254 838 q 232 822 235 833 q 235 806 235 808 q 232 781 232 791 l 229 781 q 210 787 218 787 l 208 781 l 210 768 l 208 749 q 218 708 208 708 q 232 618 232 708 l 232 602 q 221 575 229 575 l 210 586 l 208 581 l 208 559 q 213 553 208 553 l 216 553 l 221 556 q 229 494 229 545 l 229 475 q 227 350 229 425 q 229 342 229 345 q 227 326 227 338 l 232 315 l 229 301 l 232 274 q 224 263 228 263 q 213 266 218 263 q 186 258 186 260 l 172 260 l 99 260 q 77 258 88 260 q 56 260 67 260 l 28 260 q 20 274 24 260 q 23 342 23 319 l 23 746 q 26 757 23 752 q 23 768 23 762 l 23 830 q 64 844 23 840 l 64 849 l 50 852 l 31 852 q 23 860 27 852 l 23 996 q 20 1034 23 1010 l 23 1039 q 20 1050 20 1044 q 34 1063 20 1053 m 365 1063 l 392 1061 l 492 1061 q 557 1050 557 1061 l 557 1047 q 555 1023 557 1038 q 557 1020 555 1020 l 555 993 l 555 876 q 574 854 555 854 l 593 854 q 601 846 597 854 q 593 836 597 836 l 574 836 q 555 814 555 836 l 557 808 q 552 795 555 795 l 555 781 l 555 689 q 557 643 555 664 q 555 602 555 631 l 555 578 l 557 545 l 541 537 q 538 540 538 537 l 519 537 l 414 537 q 389 526 393 537 l 389 518 l 403 515 l 536 515 q 557 507 556 515 l 555 494 l 557 483 q 552 469 555 469 l 555 442 l 555 250 l 547 236 q 579 195 554 195 q 601 187 579 190 q 606 193 602 193 l 609 193 q 614 187 614 192 l 614 184 q 604 168 604 174 l 606 152 q 549 57 606 128 q 509 33 543 57 q 435 8 509 26 q 340 0 383 0 q 178 41 241 0 q 96 187 96 125 q 26 212 26 191 l 23 228 q 34 241 28 240 l 64 241 q 77 244 73 241 l 94 241 l 170 241 q 180 244 176 241 q 213 231 213 236 l 218 233 l 221 233 q 243 206 238 233 q 289 193 254 201 q 300 195 294 195 q 362 160 334 160 q 403 184 394 175 l 403 187 q 397 193 403 193 l 370 193 q 349 203 355 193 l 349 214 l 357 225 l 357 366 q 359 429 357 400 q 357 483 357 444 l 357 540 q 359 548 357 548 l 357 562 l 357 830 q 395 844 357 841 q 381 852 395 848 l 365 849 l 357 860 l 357 1012 l 354 1028 q 357 1036 357 1034 l 354 1050 q 365 1063 354 1054 m 425 380 l 433 374 l 444 374 q 452 382 446 374 q 441 396 446 395 l 433 396 q 425 380 425 393 z "},"v":{"ha":644,"x_min":14,"x_max":632,"o":"m 30 1002 l 49 1000 l 71 1000 q 73 997 73 1000 l 79 1000 l 146 1000 q 171 1002 156 1000 q 201 997 175 1000 l 217 1000 l 228 986 l 228 975 q 252 802 239 880 l 271 791 l 288 793 l 293 793 q 301 785 297 793 l 301 783 q 288 772 300 777 q 263 774 273 774 l 260 769 l 260 761 q 279 639 264 639 q 304 465 285 536 q 307 463 307 465 q 304 452 307 456 q 323 340 315 369 l 320 335 q 323 327 323 330 l 326 327 q 345 435 334 327 q 353 468 348 435 q 350 490 350 483 q 377 661 361 522 l 374 666 q 388 682 378 682 q 423 677 412 677 q 472 680 452 677 q 526 677 491 677 l 532 677 l 572 669 q 551 538 572 648 l 548 519 l 551 514 q 515 267 515 309 q 494 151 494 218 q 543 132 494 138 l 551 121 l 551 113 q 545 96 551 105 l 548 91 q 537 31 545 58 l 540 26 q 524 -45 531 -38 q 513 -42 514 -42 q 469 -47 472 -47 q 456 -45 456 -47 q 415 -47 429 -47 l 290 -47 q 279 -45 284 -47 q 269 -47 275 -47 l 258 -47 q 233 -37 237 -47 l 233 -34 q 206 129 222 77 q 198 132 198 129 q 195 129 195 132 q 141 153 141 129 q 122 273 134 241 l 125 278 q 84 538 90 478 q 73 617 80 538 q 49 772 49 728 l 60 780 l 68 780 q 71 777 71 780 q 87 785 87 781 q 81 791 87 791 l 76 791 l 60 788 q 35 861 35 788 q 14 991 14 966 q 30 1002 14 996 m 442 1000 l 564 1000 q 602 997 579 1000 q 616 1000 607 1000 q 627 989 627 997 q 594 799 610 930 q 602 791 598 799 l 616 793 l 627 793 q 632 788 632 793 l 632 783 q 624 774 632 779 l 621 774 l 605 777 q 578 736 593 777 l 583 720 q 572 701 578 701 l 564 701 q 556 704 556 701 l 543 701 l 518 701 q 472 699 493 701 q 448 701 457 701 q 426 699 446 701 l 412 701 q 391 699 397 699 q 385 707 385 705 q 391 761 391 745 l 391 764 q 420 780 399 780 l 426 780 l 431 777 q 437 785 437 784 q 401 796 437 789 l 399 802 l 429 997 l 442 1000 m 543 655 q 534 639 536 639 q 543 628 538 628 l 551 639 l 551 647 q 543 655 551 651 m 255 647 l 255 644 q 258 579 258 584 l 263 579 q 269 606 264 606 q 258 647 264 647 l 255 647 m 518 487 l 515 481 q 521 476 516 476 q 524 484 521 479 l 518 487 m 241 425 l 241 422 q 252 414 241 414 q 282 416 276 416 l 282 425 q 260 433 281 433 l 258 433 q 241 425 241 431 m 285 403 q 279 381 279 386 l 282 381 q 296 397 286 381 l 296 403 l 285 403 m 515 72 l 515 66 l 521 66 l 521 72 l 515 72 z "},"w":{"ha":860,"x_min":14,"x_max":873,"o":"m 30 1043 l 43 1040 l 111 1040 q 122 1043 117 1040 q 133 1040 127 1040 l 174 1040 l 190 1038 q 203 1040 195 1040 q 220 1032 220 1039 q 214 1027 220 1027 l 190 1027 q 174 1016 174 1027 q 193 983 178 983 l 198 983 l 217 986 q 231 954 231 986 l 228 940 l 239 891 q 179 878 235 884 q 176 869 179 869 q 195 856 180 856 l 233 856 l 255 834 l 263 834 q 274 837 269 834 q 288 829 288 833 l 288 821 q 282 815 288 815 l 255 815 q 247 785 247 815 l 247 777 l 252 758 q 250 750 252 755 q 277 484 266 629 q 285 476 283 476 q 296 522 296 490 l 296 560 q 315 761 309 734 l 312 774 q 331 821 319 821 l 347 821 q 350 818 350 821 q 358 821 355 821 l 358 826 q 353 831 358 831 l 336 829 q 323 840 324 834 q 336 1032 336 959 q 353 1043 353 1041 l 372 1040 l 456 1040 q 551 1029 551 1040 l 548 1019 q 553 989 548 1017 q 551 986 553 986 q 572 834 560 834 q 578 831 578 834 l 597 837 q 610 826 609 831 l 610 823 q 602 815 610 819 l 600 815 q 589 818 593 815 q 570 807 585 818 l 600 484 q 602 476 602 484 q 510 465 602 465 l 464 465 q 407 468 442 465 q 388 457 388 463 l 388 452 q 399 444 388 444 q 401 446 401 444 l 415 444 q 442 446 428 444 l 461 444 q 513 446 491 446 q 521 444 515 446 q 524 446 524 444 q 572 444 528 446 q 727 446 605 444 q 779 444 757 444 q 787 430 787 435 l 762 199 q 800 172 762 172 l 817 172 q 822 167 822 172 l 822 164 q 806 61 814 86 q 757 47 806 56 l 656 47 q 640 39 640 46 l 640 37 q 648 28 640 33 l 738 28 q 806 15 806 23 l 806 7 q 673 -7 806 -7 l 602 -7 q 572 -4 591 -7 q 551 -7 570 -7 q 537 4 538 -1 q 540 26 537 16 q 518 167 526 129 l 510 172 l 494 172 q 483 161 490 172 l 486 156 q 477 137 480 137 q 480 134 477 134 q 469 4 475 101 q 399 -7 464 -1 l 228 -7 q 190 9 198 -7 l 193 28 l 174 170 l 160 172 q 152 170 157 172 q 109 199 109 170 q 73 530 73 498 l 76 541 q 41 812 63 585 q 76 826 73 822 l 76 829 q 65 831 70 829 l 60 829 q 33 888 33 829 q 14 1032 18 1015 q 30 1043 30 1041 m 675 1043 l 703 1040 l 795 1040 q 833 1038 810 1040 q 846 1040 838 1040 l 854 1029 q 846 978 849 1006 l 849 964 l 844 951 q 846 948 844 948 q 836 845 838 889 q 871 831 836 836 l 873 826 l 873 823 l 871 818 q 784 815 812 815 l 727 815 l 711 812 q 678 831 707 812 q 646 845 646 831 l 667 1038 q 675 1043 675 1038 m 662 821 q 684 796 681 821 l 694 791 q 703 793 697 791 q 708 791 708 793 q 730 793 728 793 q 825 791 811 791 l 830 783 q 808 604 817 756 q 798 544 803 604 l 798 519 q 795 517 798 517 l 798 511 l 798 500 q 754 473 798 479 l 673 473 l 635 463 q 610 476 625 463 q 624 636 618 528 q 635 742 627 640 q 646 812 639 742 q 662 821 656 821 m 163 761 l 171 755 l 176 755 q 182 761 182 755 l 182 769 q 176 774 182 774 l 171 774 q 163 761 165 774 m 269 425 l 269 411 l 274 411 l 274 425 l 269 425 m 757 425 l 757 414 l 760 414 q 762 422 760 416 l 757 425 m 437 305 q 423 189 431 291 q 439 178 426 178 l 445 178 q 453 186 449 178 q 439 305 453 305 l 437 305 z "},"x":{"ha":646,"x_min":14,"x_max":705,"o":"m 22 1050 l 54 1047 l 179 1047 q 236 1036 236 1042 l 233 1025 l 236 1012 l 233 998 q 266 933 251 998 q 258 928 258 930 l 239 930 l 198 930 q 182 920 184 930 q 195 906 186 906 q 282 892 282 906 q 304 844 292 844 l 315 838 l 334 844 q 345 836 345 840 l 345 830 q 336 814 345 816 l 334 814 q 320 825 332 814 q 309 808 309 822 l 309 806 q 331 743 328 743 q 355 817 340 743 q 404 830 366 824 l 407 836 l 399 841 q 374 838 384 838 l 372 844 l 372 846 l 380 857 q 377 873 380 859 q 429 1034 429 1013 q 448 1047 429 1047 l 567 1047 q 629 1039 629 1047 l 629 1036 l 600 944 l 581 890 l 575 890 q 529 884 529 889 l 510 887 l 450 887 q 439 884 444 887 q 429 887 435 887 l 423 887 q 401 873 408 887 q 418 863 404 863 l 439 863 q 467 865 452 863 q 477 863 468 865 l 496 865 q 562 863 530 863 l 564 863 q 570 857 570 862 l 567 844 q 600 833 600 840 l 600 830 q 589 822 600 822 q 581 825 586 822 q 545 784 550 825 q 524 741 528 741 l 521 741 l 515 743 l 515 738 l 521 730 l 521 722 q 502 684 521 684 q 496 697 496 690 l 491 697 l 488 686 q 496 656 488 667 l 496 646 q 480 597 496 635 q 461 570 480 570 q 401 567 430 567 l 361 567 q 355 562 355 566 l 355 551 q 363 543 355 547 l 418 543 q 439 537 429 543 l 456 540 l 461 540 q 486 469 467 540 q 507 399 493 460 q 540 304 520 380 l 570 231 q 632 179 570 179 q 640 182 637 182 q 662 130 654 182 q 678 92 671 130 q 689 54 685 92 q 705 14 696 51 l 705 11 q 684 3 704 3 l 678 3 q 675 5 675 3 q 646 0 665 0 l 532 0 l 515 3 q 505 0 511 0 q 477 49 477 10 q 450 127 471 49 q 437 174 445 127 q 369 182 421 179 q 326 320 326 300 q 315 334 326 334 q 282 239 303 334 q 269 201 277 239 q 293 179 269 188 l 317 182 l 320 176 l 320 165 q 288 57 288 91 q 271 14 279 57 q 179 0 271 4 l 157 0 l 141 3 q 127 0 136 0 q 114 3 119 0 l 98 0 l 81 0 q 68 16 68 8 q 122 171 106 111 l 122 174 q 117 179 122 179 l 92 179 q 68 190 71 179 l 68 195 q 149 437 111 319 q 163 483 157 437 l 176 491 l 209 488 q 233 491 218 488 q 279 488 262 488 q 336 491 289 488 l 342 488 q 353 496 353 492 l 353 507 q 347 513 353 513 l 220 513 q 195 510 210 513 q 179 521 179 516 q 182 553 182 540 q 127 716 127 713 q 109 773 122 720 q 95 814 106 774 l 95 819 q 106 827 95 823 l 111 825 l 125 827 l 125 836 q 73 873 73 836 q 14 1036 25 1017 l 22 1050 m 236 817 l 236 806 q 247 798 236 802 q 282 814 282 798 q 266 825 279 825 l 252 825 q 236 817 236 823 m 515 789 q 521 784 516 784 q 526 789 526 784 q 521 795 526 795 q 515 789 515 794 m 499 754 l 499 751 q 505 746 500 746 l 510 746 l 507 760 l 505 760 q 499 754 499 759 m 214 182 l 206 182 q 195 184 200 182 q 176 174 182 180 q 193 163 179 163 l 247 163 q 255 171 251 163 l 255 179 q 231 187 255 187 q 214 182 222 182 m 285 146 l 285 141 l 298 141 l 298 146 q 293 152 298 152 l 290 152 q 285 146 285 151 z "}}}
